<?xml version="1.0" encoding="UTF-8" standalone="no"?>
<!-- Created with Inkscape (http://www.inkscape.org/) -->

<svg
   xmlns:dc="http://purl.org/dc/elements/1.1/"
   xmlns:cc="http://creativecommons.org/ns#"
   xmlns:rdf="http://www.w3.org/1999/02/22-rdf-syntax-ns#"
   xmlns:svg="http://www.w3.org/2000/svg"
   xmlns="http://www.w3.org/2000/svg"
   xmlns:sodipodi="http://sodipodi.sourceforge.net/DTD/sodipodi-0.dtd"
   xmlns:inkscape="http://www.inkscape.org/namespaces/inkscape"
   id="svg2"
   version="1.1"
   inkscape:version="0.48.3.1 r9886"
   width="333.96024"
   height="333.34787"
   sodipodi:docname="1551.svg">
  <metadata
     id="metadata8">
    <rdf:RDF>
      <cc:Work
         rdf:about="">
        <dc:format>image/svg+xml</dc:format>
        <dc:type
           rdf:resource="http://purl.org/dc/dcmitype/StillImage" />
        <dc:title />
      </cc:Work>
    </rdf:RDF>
  </metadata>
  <defs
     id="defs6">
    <inkscape:path-effect
       effect="spiro"
       id="path-effect3810"
       is_visible="true" />
    <inkscape:path-effect
       effect="spiro"
       id="path-effect3800"
       is_visible="true" />
    <inkscape:path-effect
       effect="spiro"
       id="path-effect3796"
       is_visible="true" />
    <inkscape:path-effect
       effect="spiro"
       id="path-effect3792"
       is_visible="true" />
    <inkscape:path-effect
       effect="spiro"
       id="path-effect3786"
       is_visible="true" />
    <inkscape:path-effect
       effect="spiro"
       id="path-effect3782"
       is_visible="true" />
    <inkscape:path-effect
       effect="spiro"
       id="path-effect3006"
       is_visible="true" />
  </defs>
  <sodipodi:namedview
     pagecolor="#ffffff"
     bordercolor="#666666"
     borderopacity="1"
     objecttolerance="10"
     gridtolerance="10"
     guidetolerance="10"
     inkscape:pageopacity="0"
     inkscape:pageshadow="2"
     inkscape:window-width="1366"
     inkscape:window-height="721"
     id="namedview4"
     showgrid="false"
     inkscape:zoom="1.0513458"
     inkscape:cx="160.44776"
     inkscape:cy="95.477868"
     inkscape:window-x="-2"
     inkscape:window-y="-3"
     inkscape:window-maximized="1"
     inkscape:current-layer="layer2"
     fit-margin-top="0"
     fit-margin-left="0"
     fit-margin-right="0"
     fit-margin-bottom="0"
     showguides="true"
     inkscape:guide-bbox="true" />
  <g
     inkscape:groupmode="layer"
     id="layer2"
     inkscape:label="drawing"
     style="display:inline"
     transform="translate(-8.574019,-7.8402602)">
    <ellipse
       style="fill:#ffffff;fill-opacity:1;stroke:#000000;stroke-width:7.08822298;stroke-miterlimit:4;stroke-opacity:1;stroke-dasharray:none"
       id="path2989"
       transform="matrix(0.98248404,0.00326816,0,0.95945734,3.3271964,-13.677604)"
       cx="175.29744"
       cy="195.54689"
       rx="166.41296"
       ry="170.17178"
       d="m 341.7104,195.54689 c 0,93.98328 -74.50562,170.17178 -166.41296,170.17178 -91.907343,0 -166.4129643,-76.1885 -166.4129643,-170.17178 0,-93.98328 74.5056213,-170.171783 166.4129643,-170.171783 91.90734,0 166.41296,76.188503 166.41296,170.171783 z"
       sodipodi:cx="175.29744"
       sodipodi:cy="195.54689"
       sodipodi:rx="166.41296"
       sodipodi:ry="170.17178" />
    <ellipse
       style="fill:#000000;fill-opacity:1;stroke:#000000;stroke-width:7;stroke-miterlimit:4;stroke-opacity:1;stroke-dasharray:none"
       id="path3761"
       cx="153.78217"
       cy="161.67256"
       rx="117.00817"
       ry="118.67972"
       transform="matrix(1.077646,0,0,1.0745939,10.839307,0.7355276)"
       d="m 270.79034,161.67256 c 0,65.545 -52.38635,118.67972 -117.00817,118.67972 -64.621833,0 -117.008176,-53.13472 -117.008176,-118.67972 0,-65.544997 52.386343,-118.679716 117.008176,-118.679716 64.62182,0 117.00817,53.134719 117.00817,118.679716 z"
       sodipodi:cx="153.78217"
       sodipodi:cy="161.67256"
       sodipodi:rx="117.00817"
       sodipodi:ry="118.67972" />
    <text
       xml:space="preserve"
       style="font-size:39px;font-style:normal;font-variant:normal;font-weight:normal;font-stretch:normal;text-align:center;line-height:125%;letter-spacing:0px;word-spacing:0px;text-anchor:middle;fill:#ffffff;fill-opacity:1;stroke:none;font-family:Crimson Text;-inkscape-font-specification:Crimson Text"
       x="176.62662"
       y="181.17393"
       id="text3763"
       sodipodi:linespacing="125%"><tspan
         sodipodi:role="line"
         id="tspan3765"
         x="176.62662"
         y="181.17393">regulert</tspan></text>
    <ellipse
       style="fill:#000000;fill-opacity:1;stroke:#000000;stroke-width:1;stroke-miterlimit:4;stroke-opacity:1;stroke-dasharray:none;display:inline"
       id="path3800"
       transform="translate(0.63202707,0.15800677)"
       cx="141.65306"
       cy="293.7496"
       rx="0.39501691"
       ry="0.4740203"
       d="m 142.04808,293.7496 c 0,0.2618 -0.17686,0.47402 -0.39502,0.47402 -0.21816,0 -0.39502,-0.21222 -0.39502,-0.47402 0,-0.26179 0.17686,-0.47402 0.39502,-0.47402 0.21816,0 0.39502,0.21223 0.39502,0.47402 z"
       sodipodi:cx="141.65306"
       sodipodi:cy="293.7496"
       sodipodi:rx="0.39501691"
       sodipodi:ry="0.4740203" />
    <text
       xml:space="preserve"
       style="font-size:40px;font-style:normal;font-variant:normal;font-weight:normal;font-stretch:normal;text-align:center;line-height:125%;letter-spacing:0px;word-spacing:0px;text-anchor:middle;fill:#000000;fill-opacity:1;stroke:none;font-family:Crimson Text;-inkscape-font-specification:Crimson Text"
       x="160.06085"
       y="251.87779"
       id="text3781"
       sodipodi:linespacing="125%"><tspan
         sodipodi:role="line"
         id="tspan3783"
         x="160.06085"
         y="251.87779">!</tspan></text>
    <path
       style="fill:#ffffff;fill-opacity:1;stroke:#898989;stroke-width:2;stroke-linecap:butt;stroke-linejoin:miter;stroke-miterlimit:4;stroke-opacity:1;stroke-dasharray:none"
       d="m 146.15772,276.08156 8.84467,-13.75837 c 6.39888,0.7074 12.97291,-0.23174 18.91776,-2.70253 4.22567,-1.75626 8.15352,-4.29496 11.30151,-7.61625 3.14971,-3.3231 5.51717,-7.50282 6.14213,-12.03857 0.63969,-4.64269 -0.62792,-9.51756 -3.43959,-13.267 -2.74746,-3.66381 -6.80348,-6.16205 -11.05583,-7.86192 -4.75488,-1.90076 -9.86628,-2.90261 -14.9868,-2.94823 -6.01652,-0.0536 -12.06824,1.22796 -17.44365,3.93097 -4.0398,2.0314 -7.68861,4.86387 -10.56446,8.35329 -3.03187,3.67874 -5.22644,8.25468 -5.15939,13.02132 0.0554,3.93716 1.67118,7.77256 4.17665,10.81014 1.783,2.16167 3.99809,3.94183 6.38782,5.40508 2.16082,1.32308 4.47403,2.39707 6.87918,3.19391 l 0,15.47816"
       id="path3004"
       inkscape:path-effect="#path-effect3006"
       inkscape:original-d="m 146.15772,276.08156 8.84467,-13.75837 c 0,0 12.97304,-0.41421 18.91776,-2.70253 4.23953,-1.63193 8.28976,-4.21534 11.30151,-7.61625 2.98668,-3.37261 5.65183,-7.56036 6.14213,-12.03857 0.49722,-4.5414 -0.84808,-9.5046 -3.43959,-13.267 -2.56514,-3.72412 -6.90172,-6.07519 -11.05583,-7.86192 -4.67707,-2.01167 -9.89593,-3.018 -14.9868,-2.94823 -5.9598,0.0817 -12.06465,1.36342 -17.44365,3.93097 -4.05143,1.93386 -7.88526,4.7511 -10.56446,8.35329 -2.78628,3.74617 -5.13943,8.35262 -5.15939,13.02132 -0.0165,3.86294 1.93647,7.66304 4.17665,10.81014 1.61751,2.27235 4.03724,3.90352 6.38782,5.40508 2.13055,1.361 6.87918,3.19391 6.87918,3.19391 z"
       inkscape:connector-curvature="0"
       sodipodi:nodetypes="ccssssssssssscc" />
    <text
       xml:space="preserve"
       style="font-size:40px;font-style:normal;font-variant:normal;font-weight:normal;font-stretch:normal;text-align:center;line-height:125%;letter-spacing:0px;word-spacing:0px;text-anchor:middle;fill:#000000;fill-opacity:1;stroke:none;font-family:Crimson Text;-inkscape-font-specification:Crimson Text"
       x="160.16177"
       y="252.00441"
       id="text3776"
       sodipodi:linespacing="125%"><tspan
         sodipodi:role="line"
         id="tspan3778"
         x="160.16177"
         y="252.00441">!</tspan></text>
    <path
       style="fill:none;stroke:#000000;stroke-width:1.00122666;stroke-linecap:round;stroke-linejoin:miter;stroke-miterlimit:4;stroke-opacity:1;stroke-dasharray:none"
       d="m 141.55449,293.08021 0.97003,1.242"
       id="path3784"
       inkscape:path-effect="#path-effect3786"
       inkscape:original-d="m 141.55449,293.08021 c 0.66444,0.81954 0.97003,1.242 0.97003,1.242"
       inkscape:connector-curvature="0" />
    <path
       style="fill:#ffffff;fill-opacity:1;stroke:#000000;stroke-width:2;stroke-linecap:butt;stroke-linejoin:miter;stroke-opacity:1;stroke-miterlimit:4;stroke-dasharray:none"
       d="m 124.29173,304.08967 c -1.04363,-2.09271 -1.79044,-4.33316 -2.21116,-6.6335 -0.46429,-2.53861 -0.51454,-5.23964 0.49137,-7.61624 0.80332,-1.89795 2.24442,-3.48348 3.93096,-4.66802 2.63016,-1.84729 5.87677,-2.75877 9.09035,-2.70253 2.63953,0.0462 5.33956,0.77034 7.37056,2.45685 1.44395,1.19903 2.47652,2.81138 3.43959,4.42233 0.67763,1.13349 1.33296,2.28032 1.96548,3.43959 l 5.15939,1.96549 -2.94822,2.70253 c 0.90039,1.47139 1.64305,3.03923 2.21116,4.66802 0.71464,2.04892 1.15429,4.22464 0.98275,6.38782 -0.10111,1.275 -0.41686,2.53826 -0.98274,3.68527 -0.80591,1.63353 -2.11615,3.00591 -3.68528,3.93097 -2.33554,1.37689 -5.19975,1.74159 -7.86193,1.22842 -1.4543,-0.28034 -2.85329,-0.80906 -4.17665,-1.47411 -3.24987,-1.63321 -6.07034,-4.1118 -8.10761,-7.12487 0.0641,0.54334 -0.0446,1.10577 -0.30657,1.58608 -0.26198,0.48031 -0.676,0.87621 -1.16754,1.11646 -0.49894,0.24386 -1.06973,0.32614 -1.6223,0.27076 -0.55258,-0.0554 -1.08726,-0.24477 -1.57161,-0.51645 -1.03982,-0.58324 -1.85605,-1.56442 -2.21116,-2.70253 -0.30222,-0.96859 -0.25947,-2.06827 0.24568,-2.94823 0.41915,-0.73015 1.14717,-1.27617 1.96548,-1.47411"
       id="path3780"
       inkscape:path-effect="#path-effect3782"
       inkscape:original-d="m 124.29173,304.08967 c 0,0 -1.91211,-4.32199 -2.21116,-6.6335 -0.32642,-2.523 -0.45736,-5.25574 0.49137,-7.61624 0.75862,-1.88748 2.22933,-3.55332 3.93096,-4.66802 2.64432,-1.73225 5.92958,-2.75433 9.09035,-2.70253 2.5894,0.0424 5.25644,0.96108 7.37056,2.45685 1.52451,1.07861 2.40044,2.87065 3.43959,4.42233 0.73479,1.0972 1.96548,3.43959 1.96548,3.43959 l 5.15939,1.96549 -2.94822,2.70253 c 0,0 1.70644,3.02191 2.21116,4.66802 0.63152,2.05968 1.3164,4.25949 0.98275,6.38782 -0.31197,1.99005 0.14656,2.01725 -0.98274,3.68527 -0.55286,0.8166 -2.81965,3.45855 -3.68528,3.93097 -2.32827,1.27066 -5.23243,1.57651 -7.86193,1.22842 -2.39879,-0.31755 -2.18205,-0.10422 -4.17665,-1.47411 -2.1958,-1.50807 -8.10761,-7.12487 -8.10761,-7.12487 0,0 -0.57228,2.21298 -1.47411,2.70254 -0.93843,0.50943 -2.24725,0.24826 -3.19391,-0.24569 -1.03192,-0.53844 -1.86575,-1.59102 -2.21116,-2.70253 -0.29265,-0.94173 -0.23161,-2.08528 0.24568,-2.94823 0.39637,-0.71664 1.96548,-1.47411 1.96548,-1.47411 z"
       inkscape:connector-curvature="0"
       sodipodi:nodetypes="csssssscccsssssscssssc" />
    <path
       style="fill:#000000;fill-opacity:1;stroke:#000000;stroke-width:1px;stroke-linecap:butt;stroke-linejoin:miter;stroke-opacity:1"
       d="m 141.2671,322.68652 c -0.68646,-0.33146 -1.45121,-0.48383 -2.21326,-0.50294 -0.76206,-0.0191 -1.52297,0.092 -2.26484,0.26725 -1.80594,0.42671 -3.5082,1.23275 -5.06732,2.23905 -1.97146,1.27244 -3.73114,2.87215 -5.18516,4.71378 5.7274,2.20604 11.6504,3.90396 17.6767,5.06732 6.36468,1.22868 12.84438,1.86085 19.32652,1.88552 -0.15864,-1.18786 -0.51885,-2.34854 -1.0606,-3.4175 -0.88886,-1.75387 -2.24191,-3.22684 -3.65318,-4.59594 -1.08033,-1.04804 -2.20704,-2.05151 -3.4175,-2.94611 -0.63706,-0.47082 -1.30254,-0.91417 -2.03592,-1.21364 -0.73338,-0.29947 -1.54314,-0.44974 -2.32433,-0.31834 -0.83518,0.14048 -1.58111,0.58736 -2.32457,0.99298 -0.74346,0.40563 -1.54239,0.78657 -2.38922,0.77468 -0.49654,-0.007 -0.98464,-0.15108 -1.4311,-0.3685 -0.44646,-0.21743 -0.85419,-0.50685 -1.24275,-0.81609 -0.77712,-0.61846 -1.49909,-1.32966 -2.39347,-1.76152"
       id="path3790"
       inkscape:path-effect="#path-effect3792"
       inkscape:original-d="m 141.2671,322.68652 c -1.42427,-0.45362 -3.00795,-0.50586 -4.4781,-0.23569 -1.81624,0.33377 -3.51958,1.23177 -5.06732,2.23905 -1.95776,1.27411 -5.18516,4.71378 -5.18516,4.71378 0,0 11.65539,3.92043 17.6767,5.06732 6.35845,1.2111 19.32652,1.88552 19.32652,1.88552 0,0 -0.50319,-2.36299 -1.0606,-3.4175 -0.91455,-1.73015 -2.29722,-3.18484 -3.65318,-4.59594 -1.04211,-1.08449 -2.11578,-2.1927 -3.4175,-2.94611 -1.3333,-0.77168 -2.82866,-1.69758 -4.36025,-1.53198 -1.56069,0.16875 -3.14403,1.77613 -4.71379,1.76766 -2.27762,-0.0123 -2.89708,-2.25491 -5.06732,-2.94611 z"
       inkscape:connector-curvature="0"
       sodipodi:nodetypes="ssscscssssss" />
    <path
       style="fill:none;stroke:#000000;stroke-width:2;stroke-linecap:butt;stroke-linejoin:miter;stroke-opacity:1;stroke-miterlimit:4;stroke-dasharray:none"
       d="m 141.38495,317.38351 0.35353,5.5387"
       id="path3794"
       inkscape:path-effect="#path-effect3796"
       inkscape:original-d="m 141.38495,317.38351 0.35353,5.5387"
       inkscape:connector-curvature="0" />
    <path
       style="fill:none;stroke:#000000;stroke-width:2;stroke-linecap:butt;stroke-linejoin:miter;stroke-opacity:1;stroke-miterlimit:4;stroke-dasharray:none"
       d="m 148.927,316.20506 c 0.73057,1.12488 1.28897,2.36135 1.64983,3.65319 0.38447,1.37637 0.54434,2.81521 0.47138,4.2424"
       id="path3798"
       inkscape:path-effect="#path-effect3800"
       inkscape:original-d="m 148.927,316.20506 c 0,0 1.29675,2.36453 1.64983,3.65319 0.37598,1.37226 0.47138,4.2424 0.47138,4.2424"
       inkscape:connector-curvature="0"
       sodipodi:nodetypes="csc" />
    <path
       style="fill:none;stroke:#000000;stroke-width:2;stroke-linecap:round;stroke-linejoin:miter;stroke-miterlimit:4;stroke-opacity:1;stroke-dasharray:none"
       d="m 141.77996,293.19088 0.80261,1.08305"
       id="path3808"
       inkscape:path-effect="#path-effect3810"
       inkscape:original-d="m 141.77996,293.19088 0.80261,1.08305"
       inkscape:connector-curvature="0" />
  </g>
</svg>
