<?xml version="1.0" standalone="no"?>
<!DOCTYPE svg PUBLIC "-//W3C//DTD SVG 20010904//EN"
 "http://www.w3.org/TR/2001/REC-SVG-20010904/DTD/svg10.dtd">
<svg version="1.0" xmlns="http://www.w3.org/2000/svg"
 width="350.000000pt" height="350.000000pt" viewBox="0 0 350.000000 350.000000"
 preserveAspectRatio="xMidYMid meet">
<metadata>
Created by potrace 1.11, written by Peter Selinger 2001-2013
</metadata>
<g transform="translate(0.000000,350.000000) scale(0.100000,-0.100000)"
fill="#000000" stroke="none">
<path d="M1620 3409 c-113 -10 -176 -22 -290 -55 -47 -14 -110 -32 -140 -40
-30 -9 -91 -34 -135 -57 -44 -22 -98 -49 -120 -60 -22 -10 -62 -36 -90 -56
-27 -20 -62 -42 -77 -49 -16 -6 -28 -15 -28 -20 0 -4 -22 -25 -49 -45 -82 -62
-264 -256 -290 -309 -8 -15 -22 -37 -33 -47 -10 -11 -36 -55 -59 -98 -23 -43
-51 -96 -64 -118 -34 -60 -114 -307 -136 -418 -28 -143 -27 -455 2 -598 27
-137 100 -349 150 -441 23 -40 45 -83 50 -96 5 -13 29 -52 54 -87 25 -34 45
-65 45 -69 0 -22 325 -346 348 -346 4 0 30 -17 57 -38 28 -21 66 -46 85 -56
19 -11 44 -24 55 -29 11 -6 49 -26 84 -45 77 -41 240 -95 381 -128 95 -21 127
-24 335 -24 256 0 324 11 548 84 120 40 328 144 385 193 20 18 46 36 57 39 43
14 365 336 365 365 0 6 18 33 39 62 45 59 181 325 181 352 0 10 11 50 24 89
14 39 33 112 42 161 10 50 21 92 26 93 10 5 11 442 0 442 -4 0 -14 35 -21 78
-7 42 -26 116 -42 163 -16 48 -29 95 -29 104 0 25 -146 316 -177 351 -14 16
-32 43 -40 59 -37 71 -308 344 -383 385 -16 8 -48 29 -71 46 -58 42 -302 164
-327 164 -11 0 -35 6 -54 14 -52 22 -224 64 -303 75 -117 16 -255 20 -355 10z
m340 -88 c129 -15 189 -27 275 -57 61 -20 119 -43 130 -50 11 -8 28 -14 38
-14 9 0 50 -19 90 -41 40 -23 91 -52 114 -64 23 -13 64 -41 91 -64 26 -22 52
-41 56 -41 9 0 101 -87 155 -145 20 -22 48 -52 64 -66 15 -15 27 -31 27 -35 0
-4 19 -30 41 -57 39 -46 58 -76 110 -172 12 -22 27 -47 34 -55 13 -16 33 -66
96 -248 89 -254 90 -677 3 -937 -20 -61 -43 -119 -50 -130 -8 -11 -14 -27 -14
-37 0 -18 -63 -141 -85 -168 -7 -8 -20 -31 -28 -51 -8 -20 -23 -45 -34 -55
-23 -23 -73 -90 -73 -98 0 -9 -217 -226 -226 -226 -4 0 -30 -20 -59 -45 -29
-24 -71 -55 -93 -67 -23 -13 -73 -42 -112 -65 -40 -24 -78 -43 -86 -43 -8 0
-36 -11 -62 -24 -67 -34 -227 -86 -265 -86 -18 0 -51 -5 -74 -10 -23 -5 -93
-14 -156 -20 -225 -20 -519 27 -706 111 -35 16 -70 29 -77 29 -8 0 -54 25
-103 55 -49 30 -92 55 -95 55 -12 0 -184 138 -242 195 -56 54 -121 129 -196
225 -37 47 -119 202 -183 345 -84 190 -127 558 -90 785 9 58 21 128 25 155 9
58 58 202 89 262 11 23 21 51 21 62 0 11 5 23 10 26 6 4 23 29 38 57 15 27 35
64 44 81 36 65 116 162 230 278 64 65 119 119 123 119 8 0 75 49 99 73 10 10
37 27 60 38 22 11 70 37 106 59 36 21 73 39 83 39 10 1 34 9 55 20 84 42 224
81 339 96 237 29 258 30 463 6z"/>
<path d="M1620 1820 c-37 -37 -17 -86 50 -120 40 -21 50 -34 42 -62 -10 -40
-86 -9 -105 42 -3 8 -6 -10 -6 -40 0 -35 3 -50 8 -41 7 11 15 11 44 2 39 -13
70 -4 94 28 29 38 8 79 -68 126 -44 28 -48 40 -19 55 24 13 60 -3 60 -25 0 -8
5 -15 10 -15 6 0 10 15 10 33 0 31 -1 32 -50 35 -39 2 -54 -2 -70 -18z"/>
<path d="M1880 1819 c-50 -30 -60 -47 -60 -102 0 -42 5 -54 33 -82 19 -19 47
-37 62 -41 38 -9 109 15 113 39 4 17 2 17 -27 3 -16 -9 -39 -16 -50 -16 -32 0
-71 41 -78 83 l-6 37 82 0 81 0 0 30 c0 23 -7 35 -32 50 -42 25 -74 25 -118
-1z m91 -19 c10 -6 19 -17 19 -25 0 -11 -13 -15 -55 -15 -54 0 -62 4 -47 26
15 23 54 29 83 14z"/>
<path d="M2126 1818 c-9 -12 -16 -32 -16 -43 0 -26 44 -73 75 -81 27 -7 45
-48 27 -66 -20 -20 -65 -4 -81 29 -22 46 -31 41 -31 -17 0 -44 13 -67 22 -40
2 7 14 6 35 -2 40 -15 79 1 94 39 18 47 3 77 -53 109 -59 33 -68 48 -39 63 24
13 71 -4 71 -26 0 -7 5 -13 10 -13 6 0 10 15 10 33 0 32 0 32 -54 35 -47 2
-57 -1 -70 -20z"/>
<path d="M1230 1825 c0 -3 11 -10 24 -15 22 -8 24 -15 27 -88 6 -131 55 -158
170 -95 4 2 9 -6 12 -17 4 -17 10 -20 34 -14 52 12 61 21 32 33 -30 11 -39 41
-39 137 l0 64 -45 0 c-49 0 -60 -14 -20 -24 23 -6 25 -10 25 -71 0 -53 -4 -68
-22 -85 -12 -11 -32 -20 -44 -20 -38 0 -54 36 -54 122 l0 78 -50 0 c-27 0 -50
-2 -50 -5z"/>
</g>
</svg>
