<?xml version="1.0" encoding="UTF-8" standalone="no"?>
<svg
   xmlns:dc="http://purl.org/dc/elements/1.1/"
   xmlns:cc="http://creativecommons.org/ns#"
   xmlns:rdf="http://www.w3.org/1999/02/22-rdf-syntax-ns#"
   xmlns:svg="http://www.w3.org/2000/svg"
   xmlns="http://www.w3.org/2000/svg"
   xmlns:sodipodi="http://sodipodi.sourceforge.net/DTD/sodipodi-0.dtd"
   xmlns:inkscape="http://www.inkscape.org/namespaces/inkscape"
   version="1.0"
   width="335.41412pt"
   height="335.4826pt"
   viewBox="0 0 335.41412 335.4826"
   preserveAspectRatio="xMidYMid meet"
   id="svg2"
   inkscape:version="0.91 r13725"
   sodipodi:docname="1541.svg">
  <defs
     id="defs40" />
  <sodipodi:namedview
     pagecolor="#ffffff"
     bordercolor="#666666"
     borderopacity="1"
     objecttolerance="10"
     gridtolerance="10"
     guidetolerance="10"
     inkscape:pageopacity="0"
     inkscape:pageshadow="2"
     inkscape:window-width="699"
     inkscape:window-height="480"
     id="namedview38"
     showgrid="false"
     fit-margin-top="0"
     fit-margin-left="0"
     fit-margin-right="0"
     fit-margin-bottom="0"
     inkscape:zoom="0.53942857"
     inkscape:cx="208.01766"
     inkscape:cy="210"
     inkscape:window-x="0"
     inkscape:window-y="0"
     inkscape:window-maximized="0"
     inkscape:current-layer="svg2" />
  <metadata
     id="metadata4">
Created by potrace 1.11, written by Peter Selinger 2001-2013
<rdf:RDF>
  <cc:Work
     rdf:about="">
    <dc:format>image/svg+xml</dc:format>
    <dc:type
       rdf:resource="http://purl.org/dc/dcmitype/StillImage" />
    <dc:title></dc:title>
  </cc:Work>
</rdf:RDF>
</metadata>
  <g
     transform="matrix(0.1,0,0,-0.1,-8.5858744,342.4826)"
     id="g6"
     style="fill:#000000;stroke:none">
    <path
       d="m 1624,3420 c -49,-5 -124,-16 -165,-25 -41,-9 -99,-20 -129,-25 -65,-11 -83,-17 -225,-78 -38,-17 -85,-36 -102,-42 -18,-7 -33,-15 -33,-19 0,-3 -18,-15 -40,-25 -22,-10 -48,-27 -58,-36 -10,-10 -34,-25 -54,-34 -20,-10 -58,-37 -84,-62 -27,-24 -52,-44 -57,-44 -19,0 -244,-244 -282,-305 -11,-18 -36,-57 -55,-86 -48,-73 -159,-301 -166,-342 -3,-17 -14,-57 -25,-88 -47,-144 -63,-256 -63,-454 -1,-159 3,-208 22,-303 12,-62 27,-124 33,-139 5,-15 19,-60 30,-102 11,-41 42,-118 70,-171 27,-53 49,-101 49,-106 0,-14 116,-183 163,-237 23,-27 46,-56 51,-65 7,-14 70,-73 234,-220 14,-13 40,-30 58,-38 17,-8 42,-25 54,-37 44,-40 329,-176 400,-190 14,-3 61,-14 105,-26 133,-36 253,-51 402,-51 163,0 257,11 392,47 53,14 116,29 140,34 24,5 95,34 157,64 63,30 116,55 119,55 3,0 37,21 77,48 39,26 86,56 104,67 72,45 262,226 308,293 16,24 34,46 40,50 12,8 66,78 66,85 0,3 25,45 55,94 30,50 55,95 55,101 0,6 13,37 29,69 45,91 88,228 107,346 10,59 22,107 26,107 4,0 8,99 8,220 0,121 -3,220 -8,220 -4,0 -15,46 -25,103 -21,119 -56,233 -104,334 -18,39 -33,75 -33,80 0,14 -127,221 -164,268 -65,82 -248,275 -260,275 -5,0 -23,14 -41,31 -35,35 -207,148 -270,178 -149,72 -270,118 -345,131 -25,5 -94,17 -155,28 -136,25 -291,33 -411,22 z m 376,-84 c 83,-14 197,-43 253,-65 16,-6 37,-11 49,-11 44,0 381,-182 401,-216 4,-8 14,-14 21,-14 31,0 316,-283 316,-314 0,-8 7,-19 15,-26 18,-15 105,-138 105,-148 0,-4 24,-56 54,-117 30,-60 59,-128 64,-150 6,-22 22,-80 36,-130 78,-275 71,-600 -19,-864 -14,-41 -25,-81 -25,-89 0,-29 -143,-301 -186,-353 -24,-30 -44,-58 -44,-63 0,-5 -21,-33 -47,-61 -27,-29 -60,-66 -74,-81 -40,-45 -138,-134 -146,-134 -5,0 -34,-22 -66,-49 -32,-27 -71,-55 -85,-62 -15,-8 -61,-34 -102,-58 -41,-24 -97,-51 -125,-61 -27,-9 -81,-29 -120,-43 -132,-49 -234,-69 -379,-77 -171,-9 -389,2 -476,25 -134,35 -322,103 -387,140 -26,16 -71,40 -99,55 -173,93 -455,372 -540,535 -12,22 -39,72 -60,110 -21,39 -47,93 -57,120 -107,296 -111,316 -111,615 0,215 3,255 22,330 22,92 70,239 82,255 5,6 13,29 19,52 10,38 29,74 90,173 8,14 22,39 31,56 9,17 35,53 58,81 23,27 42,53 42,58 0,9 96,111 149,159 19,17 55,50 80,74 25,23 51,42 57,42 6,0 29,16 52,35 45,39 233,142 315,173 138,52 319,97 450,112 92,11 278,4 387,-14 z"
       id="path8"
       inkscape:connector-curvature="0" />
    <path
       d="m 1973,2899 c 14,-8 17,-25 17,-104 0,-79 -3,-96 -17,-104 -14,-8 -8,-10 27,-10 25,1 37,3 28,6 -16,4 -18,18 -18,114 l 0,109 -27,0 c -24,-1 -25,-2 -10,-11 z"
       id="path10"
       inkscape:connector-curvature="0" />
    <path
       d="m 2613,2899 c 12,-7 17,-23 17,-52 l 0,-42 -45,0 c -51,0 -65,-13 -65,-58 0,-40 17,-67 42,-67 20,0 20,1 5,18 -43,48 7,134 51,90 20,-20 15,-75 -8,-91 -19,-13 -17,-14 32,-15 40,-1 49,1 36,9 -15,8 -18,25 -18,114 l 0,105 -32,0 c -27,-1 -30,-2 -15,-11 z"
       id="path12"
       inkscape:connector-curvature="0" />
    <path
       d="m 2245,2817 c -4,-17 -5,-55 -3,-82 3,-50 3,-50 41,-53 20,-2 37,1 37,6 0,5 -11,7 -25,4 l -25,-4 0,81 c 0,82 -14,109 -25,48 z"
       id="path14"
       inkscape:connector-curvature="0" />
    <path
       d="m 1087,2763 c 4,-38 2,-53 -12,-66 -15,-16 -14,-17 22,-16 21,0 32,3 26,6 -17,6 -17,85 -1,101 8,8 9,12 1,12 -6,0 -18,3 -27,6 -13,5 -14,-2 -9,-43 z"
       id="path16"
       inkscape:connector-curvature="0" />
    <path
       d="m 1155,2803 c 27,-7 35,-21 35,-65 0,-25 -6,-40 -17,-47 -14,-8 -8,-10 27,-10 25,1 37,3 28,6 -14,3 -18,15 -18,52 0,53 -13,72 -49,70 -21,-1 -22,-2 -6,-6 z"
       id="path18"
       inkscape:connector-curvature="0" />
    <path
       d="m 1300,2749 c 0,-36 -5,-59 -12,-62 -7,-3 4,-6 25,-6 35,-1 37,0 23,15 -18,18 -21,56 -6,85 11,20 40,27 40,9 0,-5 7,-10 16,-10 9,0 14,6 11,13 -2,7 -23,12 -50,13 l -47,1 0,-58 z"
       id="path20"
       inkscape:connector-curvature="0" />
    <path
       d="m 1453,2800 c -19,-8 -23,-17 -23,-53 0,-24 5,-48 12,-55 13,-13 108,-17 108,-4 0,5 -14,7 -30,4 -36,-5 -60,12 -60,44 0,22 4,24 45,24 37,0 45,3 45,19 0,30 -49,40 -97,21 z m 75,-17 c 2,-9 -8,-13 -32,-13 -28,0 -34,3 -29,16 7,18 54,16 61,-3 z"
       id="path22"
       inkscape:connector-curvature="0" />
    <path
       d="m 1605,2793 c -19,-18 -19,-34 -1,-59 13,-16 13,-21 0,-35 -14,-15 -13,-19 8,-33 12,-9 32,-16 44,-16 12,0 28,-7 35,-16 11,-14 10,-18 -6,-30 -37,-27 -90,-8 -79,29 6,20 5,21 -11,6 -14,-13 -15,-21 -6,-38 24,-44 131,-21 131,29 0,26 -33,50 -68,50 -42,0 -41,13 3,29 40,14 59,42 50,72 -6,18 -4,20 14,14 12,-3 21,-2 21,3 0,15 -119,12 -135,-5 z m 63,-30 c -3,-42 -22,-54 -38,-23 -15,28 -4,60 21,60 17,0 20,-6 17,-37 z"
       id="path24"
       inkscape:connector-curvature="0" />
    <path
       d="m 2093,2803 c -18,-7 -16,-23 2,-23 8,0 15,5 15,10 0,6 9,10 20,10 34,0 22,-28 -21,-50 -31,-16 -40,-26 -37,-43 3,-20 9,-22 68,-24 36,0 59,1 53,4 -8,3 -13,23 -13,52 0,26 -5,52 -12,59 -12,12 -52,15 -75,5 z m 57,-72 c 0,-26 -27,-48 -42,-33 -9,9 -7,17 7,32 23,25 35,26 35,1 z"
       id="path26"
       inkscape:connector-curvature="0" />
    <path
       d="m 2380,2803 c -21,-8 -30,-24 -30,-56 0,-52 15,-67 70,-67 28,0 50,4 50,8 0,5 -14,7 -30,4 -36,-5 -60,12 -60,44 0,22 4,24 45,24 37,0 45,3 45,19 0,28 -47,40 -90,24 z m 68,-20 c 2,-9 -7,-13 -27,-13 -30,0 -39,9 -24,24 11,10 46,3 51,-11 z"
       id="path28"
       inkscape:connector-curvature="0" />
    <path
       d="m 867,2753 c 7,-74 5,-73 82,-72 62,1 69,3 56,16 -9,8 -15,33 -15,59 0,59 -18,57 -22,-2 -3,-50 -22,-72 -52,-61 -12,5 -16,19 -16,57 0,42 -3,50 -19,50 -16,0 -18,-6 -14,-47 z"
       id="path30"
       inkscape:connector-curvature="0" />
    <path
       d="m 1782,2743 3,-58 73,-2 c 65,-2 71,0 57,13 -9,9 -15,33 -15,60 0,59 -18,57 -22,-2 -3,-50 -22,-72 -52,-61 -12,5 -16,19 -16,57 0,38 -4,50 -15,50 -13,0 -15,-11 -13,-57 z"
       id="path32"
       inkscape:connector-curvature="0" />
    <path
       d="m 1645,2383 c -22,-5 -138,-41 -172,-54 -61,-23 -273,-222 -273,-257 0,-7 -11,-34 -24,-60 -39,-79 -58,-160 -59,-257 -1,-113 14,-175 69,-293 101,-217 333,-361 579,-362 92,0 198,26 266,64 24,14 50,26 57,26 22,0 146,111 183,163 19,27 40,55 48,64 22,23 70,177 81,257 12,87 1,183 -33,288 -32,96 -38,106 -98,182 -44,54 -156,153 -200,177 -20,10 -83,31 -161,53 -52,15 -212,21 -263,9 z m 184,-264 c 87,-15 131,-39 197,-106 88,-89 98,-116 99,-263 0,-146 -12,-181 -92,-266 -70,-75 -170,-118 -278,-118 -71,0 -89,5 -155,36 -124,58 -198,156 -220,292 -16,101 30,249 95,311 88,82 109,95 190,111 79,16 87,16 164,3 z"
       id="path34"
       inkscape:connector-curvature="0" />
    <path
       d="m 1632,2031 c -68,-33 -108,-71 -149,-141 -22,-36 -28,-61 -31,-128 -4,-76 -2,-87 26,-145 55,-113 165,-187 277,-186 77,1 111,13 188,70 56,42 65,54 91,120 24,63 28,84 24,144 -11,169 -127,285 -293,293 -61,3 -78,-1 -133,-27 z m 228,-61 c 31,-15 66,-57 85,-104 l 15,-36 -34,0 c -26,0 -36,5 -41,20 -9,30 -70,62 -118,62 -79,2 -131,-48 -143,-134 -6,-46 10,-128 26,-128 6,0 10,-7 10,-15 0,-25 60,-55 112,-55 50,0 101,32 113,70 4,14 15,20 36,20 33,0 35,-5 14,-51 -39,-88 -116,-123 -224,-99 -61,13 -98,41 -138,104 -23,35 -25,46 -21,136 3,95 4,98 40,142 54,65 108,90 183,85 33,-3 71,-10 85,-17 z"
       id="path36"
       inkscape:connector-curvature="0" />
  </g>
</svg>
