<?xml version="1.0" standalone="no"?>
<!DOCTYPE svg PUBLIC "-//W3C//DTD SVG 20010904//EN"
 "http://www.w3.org/TR/2001/REC-SVG-20010904/DTD/svg10.dtd">
<svg version="1.0" xmlns="http://www.w3.org/2000/svg"
 width="340.000000pt" height="450.000000pt" viewBox="0 0 340.000000 450.000000"
 preserveAspectRatio="xMidYMid meet">
<metadata>
Created by potrace 1.11, written by Peter Selinger 2001-2013
</metadata>
<g transform="translate(0.000000,450.000000) scale(0.100000,-0.100000)"
fill="#000000" stroke="none">
<path d="M3345 2240 c0 -1207 1 -1701 2 -1098 2 604 2 1592 0 2195 -1 604 -2
110 -2 -1097z"/>
<path d="M3152 4373 c1 -37 1 -37 5 -5 4 30 17 43 25 23 2 -5 9 -3 16 5 11 12
8 14 -18 14 -28 0 -30 -2 -28 -37z"/>
<path d="M3263 4403 c9 -2 25 -2 35 0 9 3 1 5 -18 5 -19 0 -27 -2 -17 -5z"/>
<path d="M1272 4380 c-11 -28 -6 -42 7 -21 6 9 11 10 15 2 9 -15 59 -14 74 1
9 9 12 9 12 1 0 -14 78 -15 86 -1 6 10 -14 38 -27 38 -5 0 -9 -7 -9 -16 0 -12
-3 -14 -12 -6 -19 15 -90 10 -96 -7 -3 -10 -9 -8 -23 10 l-18 24 -9 -25z"/>
<path d="M1630 4390 c0 -6 -10 -8 -24 -4 -16 4 -25 1 -29 -11 -9 -21 18 -31
38 -15 10 9 15 9 15 1 0 -6 9 -11 20 -11 15 0 20 7 20 25 0 18 -5 25 -20 25
-11 0 -20 -5 -20 -10z m25 -10 c3 -5 1 -10 -4 -10 -6 0 -11 5 -11 10 0 6 2 10
4 10 3 0 8 -4 11 -10z"/>
<path d="M1770 4390 c0 -5 -7 -7 -16 -3 -9 3 -20 0 -26 -8 -7 -11 -11 -11 -15
-1 -7 19 -33 14 -33 -6 0 -16 9 -18 64 -19 l65 -1 -11 24 c-11 24 -28 33 -28
14z"/>
<path d="M1830 4377 c0 -21 5 -24 45 -24 29 -1 45 3 45 11 0 23 -13 26 -32 9
-17 -15 -18 -15 -18 5 0 15 -6 22 -20 22 -14 0 -20 -7 -20 -23z"/>
<path d="M1486 4383 c-18 -19 -3 -33 33 -31 31 1 37 5 34 18 -4 17 -54 26 -67
13z"/>
<path d="M1934 4379 c-13 -21 12 -30 79 -28 69 2 97 11 97 30 0 5 -7 9 -15 9
-8 0 -15 -5 -15 -11 0 -8 -5 -8 -15 1 -12 10 -18 10 -30 0 -8 -7 -15 -8 -15
-3 0 13 -78 14 -86 2z"/>
<path d="M3251 4360 c0 -17 3 -20 7 -10 10 22 40 24 45 3 3 -13 5 -10 6 7 1
21 -3 25 -29 25 -26 0 -30 -4 -29 -25z"/>
<path d="M74 4311 c-2 -2 -4 -8 -4 -13 0 -4 623 -8 1385 -8 l1385 0 0 -2110 0
-2110 -1387 -3 -1388 -2 1578 -3 1577 -2 0 45 0 45 45 0 45 0 0 2083 0 2082
-1616 0 c-889 0 -1618 -2 -1620 -4z m3001 -234 c11 0 32 3 48 7 26 8 27 7 27
-33 0 -37 -3 -43 -35 -58 -33 -16 -37 -16 -70 0 -30 14 -35 22 -35 50 0 39 8
50 29 41 9 -4 25 -7 36 -7z m-189 -185 c-4 -3 -11 -1 -17 5 -8 8 -7 18 3 34
l13 24 3 -28 c2 -16 1 -31 -2 -35z m223 -45 c36 13 41 9 41 -36 0 -29 -5 -38
-27 -48 -59 -28 -113 -4 -113 51 0 42 5 46 41 33 21 -8 37 -8 58 0z m30 -233
c26 -33 27 -57 4 -52 -10 2 -17 11 -15 20 1 9 -7 22 -18 28 -23 12 -27 30 -6
30 8 0 24 -12 35 -26z m-89 -24 c0 -7 13 -8 33 -5 33 6 34 6 29 -23 -4 -32
-35 -48 -66 -36 -18 7 -23 74 -6 74 6 0 10 -5 10 -10z m96 -1648 c13 2 20 -3
22 -18 3 -20 -1 -21 -93 -20 -99 0 -111 6 -85 46 9 13 11 13 19 1 8 -12 12
-12 25 -2 10 8 16 9 16 3 0 -16 39 -10 45 7 5 12 8 11 18 -3 7 -10 22 -16 33
-14z m-88 -1218 c33 -9 28 -34 -8 -34 -23 0 -30 4 -30 20 0 22 3 23 38 14z
m92 -17 c0 -20 -5 -24 -30 -24 -22 0 -30 5 -28 15 2 8 11 16 21 18 11 1 21 5
25 8 10 10 12 7 12 -17z m-128 -120 c6 -9 8 -9 8 1 0 6 11 12 25 12 17 0 25
-5 25 -18 0 -15 -10 -18 -59 -20 -61 -2 -78 7 -67 35 7 17 55 10 68 -10z m124
12 c5 -8 8 -8 13 0 5 8 13 7 26 -2 23 -17 12 -37 -21 -37 -17 0 -24 5 -24 20
0 11 -4 20 -10 20 -5 0 -10 -9 -10 -20 0 -11 -4 -20 -10 -20 -5 0 -10 11 -10
25 0 18 5 25 19 25 11 0 23 -5 27 -11z m-230 -21 c10 -13 12 -17 4 -10 -21 18
-30 15 -30 -13 0 -14 6 -25 13 -25 7 0 18 -10 26 -22 13 -22 13 -22 -5 -7 -10
9 -25 14 -31 12 -9 -3 -13 9 -13 41 0 51 8 57 36 24z m26 -50 c-7 -7 -12 -8
-12 -2 0 14 12 26 19 19 2 -3 -1 -11 -7 -17z m48 -52 c0 3 7 1 15 -6 8 -7 15
-9 15 -4 0 10 188 9 198 0 3 -4 0 -12 -7 -19 -9 -9 -14 -9 -22 3 -8 11 -12 12
-16 3 -2 -7 -18 -13 -34 -13 -16 0 -29 6 -30 13 0 10 -2 10 -6 0 -3 -9 -30
-13 -84 -13 -70 0 -79 2 -79 18 0 26 10 33 31 21 11 -5 19 -7 19 -3z m55 -128
c-5 -18 -4 -20 4 -8 10 13 12 13 21 0 9 -13 10 -13 10 0 0 13 1 13 10 0 8 -13
10 -13 10 1 0 9 7 16 15 16 8 0 15 -8 15 -17 0 -13 -11 -17 -49 -19 -52 -2
-71 10 -51 34 18 21 22 19 15 -7z m15 -121 c0 -5 10 -8 23 -7 45 4 77 0 77
-10 0 -11 -99 -8 -118 4 -6 4 -12 2 -12 -3 0 -6 -4 -11 -10 -11 -5 0 -10 9
-10 19 0 14 7 19 25 17 14 0 25 -5 25 -9z"/>
<path d="M3110 4060 c-13 -8 -13 -11 -1 -19 8 -5 10 -14 6 -22 -6 -11 -5 -11
4 -3 7 7 11 21 9 33 -2 16 -7 18 -18 11z"/>
<path d="M3080 4023 c0 -13 5 -23 10 -23 13 0 13 11 0 30 -8 12 -10 11 -10 -7z"/>
<path d="M3030 3814 c0 -8 5 -12 10 -9 6 3 10 10 10 16 0 5 -4 9 -10 9 -5 0
-10 -7 -10 -16z"/>
<path d="M3061 3803 c0 -7 -9 -13 -18 -13 -17 -1 -17 -1 0 -11 22 -13 30 -7
24 18 -3 10 -5 12 -6 6z"/>
<path d="M3040 3561 c0 -6 5 -13 10 -16 6 -3 10 1 10 9 0 9 -4 16 -10 16 -5 0
-10 -4 -10 -9z"/>
<path d="M2971 584 c0 -11 3 -14 6 -6 3 7 2 16 -1 19 -3 4 -6 -2 -5 -13z"/>
<path d="M170 4130 c0 -113 1 -120 20 -120 11 0 20 -3 20 -7 0 -5 574 -8 1275
-8 l1275 0 0 51 c0 28 -3 85 -6 127 l-7 77 -1288 0 -1289 0 0 -120z m358 3
l-3 -48 -152 -3 -153 -3 0 51 0 50 156 0 155 0 -3 -47z m864 24 c38 -1 68 -4
68 -7 -2 -31 -69 -52 -71 -22 -1 15 -2 15 -6 -1 -5 -20 -50 -20 -46 0 2 7 -4
10 -12 7 -8 -4 -15 -10 -15 -15 0 -5 -13 -9 -28 -9 -24 0 -28 4 -26 28 1 15 2
29 3 31 0 2 16 0 34 -3 17 -4 62 -8 99 -9z m138 -17 c0 -3 -9 -11 -20 -18 -18
-11 -20 -10 -20 18 0 28 2 29 20 18 11 -7 20 -15 20 -18z m85 8 c7 -22 7 -22
13 -3 4 11 13 21 20 23 16 3 26 -23 17 -45 -7 -17 -8 -16 -15 2 -6 14 -9 15
-9 5 -1 -11 -11 -16 -36 -15 -19 0 -35 1 -35 2 0 1 4 13 10 27 12 32 25 33 35
4z m158 5 c-6 -15 -4 -16 9 -6 17 15 28 8 28 -17 0 -14 -9 -18 -37 -18 -35 -1
-38 2 -39 29 -1 24 3 29 22 29 18 0 22 -4 17 -17z m103 -18 c1 -14 -2 -25 -7
-25 -5 0 -9 7 -9 15 0 8 -4 15 -10 15 -5 0 -10 -7 -10 -15 0 -8 -4 -15 -10
-15 -20 0 -10 41 13 49 27 10 30 8 33 -24z m80 24 c3 -6 19 -9 35 -5 16 3 29
1 29 -4 0 -6 -5 -10 -12 -10 -7 0 -23 -12 -36 -27 l-23 -28 5 25 c3 14 3 19 0
13 -3 -7 -14 -13 -25 -13 -14 0 -19 7 -19 30 0 23 5 30 19 30 11 0 23 -5 27
-11z m111 -4 c8 -9 14 -17 12 -18 -2 -2 -12 -9 -21 -16 -16 -12 -18 -10 -18
18 0 35 5 38 27 16z m88 -26 c5 0 12 5 15 13 3 7 16 13 30 14 14 0 34 3 45 5
15 3 20 -2 21 -23 2 -24 -1 -28 -22 -28 -13 0 -24 6 -24 13 0 9 -2 9 -8 0 -4
-6 -24 -11 -44 -11 -36 0 -38 2 -37 32 1 27 2 28 7 8 4 -13 11 -23 17 -23z
m195 2 c0 -10 -9 -16 -25 -16 -14 0 -25 1 -25 2 0 1 5 14 10 28 9 23 13 25 25
15 8 -7 15 -20 15 -29z m280 9 c0 -20 -5 -30 -15 -30 -8 0 -15 5 -15 10 0 6 6
10 13 10 8 0 7 4 -3 10 -13 9 -13 11 0 20 20 13 20 14 20 -20z m-200 9 c0 -5
-6 -9 -12 -10 -10 0 -10 -2 0 -6 24 -10 11 -22 -23 -21 -26 1 -35 6 -35 18 0
9 2 19 4 21 8 8 66 6 66 -2z m162 -3 c16 -23 -6 -34 -78 -35 -67 -1 -74 0 -74
18 0 11 5 21 10 23 23 7 135 3 142 -6z m-572 -26 c0 -5 -4 -10 -10 -10 -5 0
-10 5 -10 10 0 6 5 10 10 10 6 0 10 -4 10 -10z"/>
<path d="M340 3380 l0 -470 168 0 c92 0 236 -1 320 -3 l152 -2 0 473 0 472
-320 0 -320 0 0 -470z m17 -228 c-1 -125 -2 -22 -2 228 0 250 1 353 2 227 2
-125 2 -329 0 -455z m610 -4 c-1 -128 -2 -26 -2 227 0 253 1 358 2 233 2 -125
2 -332 0 -460z m-509 557 c0 -14 -4 -25 -9 -25 -5 0 -9 11 -9 25 0 14 4 25 9
25 5 0 9 -11 9 -25z m62 -6 c0 -22 -4 -26 -20 -22 -18 5 -27 32 -15 45 15 15
35 2 35 -23z m32 6 c6 -27 0 -38 -13 -29 -12 7 -12 54 0 54 5 0 11 -11 13 -25z
m78 0 c0 -14 -4 -25 -10 -25 -5 0 -10 11 -10 25 0 14 5 25 10 25 6 0 10 -11
10 -25z m58 -3 c-4 -35 -32 -36 -36 -2 -2 20 2 26 18 27 17 2 21 -3 18 -25z
m42 -3 c0 -17 -4 -28 -10 -24 -5 3 -10 17 -10 31 0 13 5 24 10 24 6 0 10 -14
10 -31z m39 -23 c-9 -8 -10 -7 -5 7 3 10 7 26 7 35 1 9 4 6 6 -7 3 -13 -1 -28
-8 -35z m66 29 c1 -21 -14 -37 -27 -29 -4 3 -8 16 -8 30 0 19 5 25 18 22 9 -2
17 -12 17 -23z m45 -5 c0 -16 -4 -30 -10 -30 -5 0 -10 14 -10 30 0 17 5 30 10
30 6 0 10 -13 10 -30z m-352 -74 c2 -10 -1 -23 -7 -29 -16 -16 -34 6 -26 33 8
24 28 22 33 -4z m38 -3 c-4 -24 -26 -29 -26 -5 0 10 3 22 6 25 11 10 22 -2 20
-20z m74 -9 c0 -13 -4 -24 -10 -24 -5 0 -10 14 -10 31 0 17 4 28 10 24 6 -3
10 -17 10 -31z m40 21 c15 -18 6 -45 -15 -45 -10 0 -15 10 -15 30 0 33 11 38
30 15z m50 -15 c0 -16 -4 -30 -10 -30 -5 0 -10 14 -10 30 0 17 5 30 10 30 6 0
10 -13 10 -30z m50 -13 c0 -10 -4 -15 -10 -12 -5 3 -10 18 -10 33 0 21 2 24
10 12 5 -8 10 -23 10 -33z m43 -10 c-4 -6 -10 -1 -15 12 -4 13 -5 28 -1 34 4
6 10 1 15 -12 4 -13 5 -28 1 -34z m-88 -137 c3 -5 1 -10 -4 -10 -6 0 -11 5
-11 10 0 6 2 10 4 10 3 0 8 -4 11 -10z m-175 -210 c0 -5 -4 -10 -10 -10 -5 0
-10 5 -10 10 0 6 5 10 10 10 6 0 10 -4 10 -10z m50 1 c0 -5 -9 -7 -20 -4 -11
3 -20 7 -20 9 0 2 9 4 20 4 11 0 20 -4 20 -9z m30 -1 c0 -5 -4 -10 -10 -10 -5
0 -10 5 -10 10 0 6 5 10 10 10 6 0 10 -4 10 -10z m30 0 c0 -5 -2 -10 -4 -10
-3 0 -8 5 -11 10 -3 6 -1 10 4 10 6 0 11 -4 11 -10z m150 -8 c0 -12 -3 -12
-15 -2 -8 6 -19 9 -25 5 -5 -3 -10 -1 -10 4 0 6 11 10 25 9 14 -1 25 -9 25
-16z m-132 -249 c-10 -2 -28 -2 -40 0 -13 2 -5 4 17 4 22 1 32 -1 23 -4z"/>
<path d="M1120 3375 c0 -468 0 -475 20 -475 11 0 19 -5 17 -12 -6 -29 42 -33
336 -30 l296 3 -3 467 c-2 257 -5 479 -7 495 l-4 27 -327 0 -328 0 0 -475z
m247 439 c-3 -3 -12 -4 -19 -1 -8 3 -5 6 6 6 11 1 17 -2 13 -5z m371 -149 c-2
-3 -122 -5 -266 -6 -153 0 -260 -4 -257 -10 4 -5 -1 -6 -9 -3 -12 5 -16 -1
-16 -25 0 -17 -4 -31 -10 -31 -5 0 -10 15 -10 34 0 19 -6 37 -12 39 -7 3 122
6 286 6 165 1 297 -1 294 -4z m-488 -45 c0 -16 -4 -30 -9 -30 -12 0 -19 21
-13 43 7 28 22 20 22 -13z m50 19 c0 -5 -4 -8 -9 -4 -5 3 -12 1 -16 -5 -3 -5
-2 -10 3 -10 6 0 12 -7 16 -15 4 -10 -1 -15 -14 -15 -16 0 -20 7 -20 30 0 23
4 30 20 30 11 0 20 -5 20 -11z m150 -6 c0 -15 -2 -16 -10 -3 -8 12 -10 10 -10
-8 0 -13 4 -20 10 -17 6 3 10 1 10 -4 0 -6 -18 -11 -40 -11 -38 0 -40 2 -40
30 0 28 2 30 40 30 31 0 40 -4 40 -17z m40 7 c0 -5 -6 -10 -12 -11 -10 0 -10
-2 0 -6 6 -2 10 -9 6 -14 -3 -5 0 -9 5 -9 6 0 11 11 11 25 0 19 5 25 21 25 15
0 19 -5 17 -22 -2 -11 3 -23 10 -25 8 -3 12 6 12 24 l1 28 15 -27 c18 -35 28
-36 22 -3 -3 14 -1 25 3 25 5 0 9 -11 9 -24 0 -13 6 -26 13 -29 6 -3 -27 -5
-75 -5 l-88 0 0 29 c0 19 5 29 15 29 8 0 15 -4 15 -10z m242 -2 c-5 -7 -12
-22 -15 -33 -4 -18 -5 -18 -6 3 -1 27 -21 30 -21 2 0 -15 -7 -20 -25 -20 -21
0 -25 5 -25 28 0 28 2 29 51 31 41 1 50 -1 41 -11z m-374 -100 c-2 -12 -10
-24 -18 -26 -13 -4 -13 -3 -2 11 11 13 10 17 -5 26 -16 9 -16 10 5 11 18 0 23
-5 20 -22z m52 -39 c0 -3 -11 -6 -25 -6 -13 0 -23 2 -21 6 1 3 6 15 10 26 7
20 8 20 22 1 8 -11 14 -23 14 -27z m66 24 c-2 -10 2 -21 8 -25 6 -5 2 -8 -11
-8 -13 0 -23 6 -24 13 0 10 -2 10 -6 0 -8 -22 -23 -14 -23 12 0 21 5 25 29 25
22 0 29 -4 27 -17z m90 -10 c2 -20 -3 -23 -32 -23 -29 0 -34 3 -34 24 0 21 5
24 33 23 26 -1 32 -5 33 -24z m171 -57 c3 -3 -125 -6 -285 -6 -161 0 -292 4
-292 8 0 10 567 8 577 -2z m-297 -386 c0 -5 -9 -10 -20 -10 -11 0 -20 5 -20
10 0 6 9 10 20 10 11 0 20 -4 20 -10z m130 -1 c0 -5 -27 -9 -60 -9 -35 0 -60
4 -60 10 0 6 24 10 60 9 33 -1 60 -6 60 -10z m40 1 c0 -5 -7 -10 -15 -10 -8 0
-15 5 -15 10 0 6 7 10 15 10 8 0 15 -4 15 -10z"/>
<path d="M1387 3634 c-6 -6 16 -34 27 -34 3 0 6 9 6 20 0 19 -20 27 -33 14z"/>
<path d="M1660 3610 c0 -5 5 -10 11 -10 5 0 7 5 4 10 -3 6 -8 10 -11 10 -2 0
-4 -4 -4 -10z"/>
<path d="M1530 3510 c0 -6 7 -10 15 -10 8 0 15 2 15 4 0 2 -7 6 -15 10 -8 3
-15 1 -15 -4z"/>
<path d="M1910 3375 c0 -424 2 -475 16 -475 8 0 13 -4 10 -8 -17 -28 16 -32
319 -32 255 -1 311 1 323 13 11 12 12 19 2 37 -11 20 -10 22 4 17 10 -4 16 -1
16 7 0 8 -6 17 -12 19 -7 3 -8 6 -3 6 7 1 9 145 7 416 -2 321 -5 414 -15 412
-7 -1 -12 10 -12 31 l0 32 -327 0 -328 0 0 -475z m340 286 c8 -6 14 -24 13
-46 -1 -46 -14 -61 -40 -47 -26 14 -59 52 -45 52 7 0 12 6 12 13 0 16 20 37
35 37 5 0 17 -4 25 -9z m196 -404 c19 -11 14 -57 -7 -57 -18 0 -27 30 -20 70
2 16 5 20 9 10 3 -8 11 -19 18 -23z m-386 -17 c0 -22 -4 -40 -10 -40 -5 0 -10
18 -10 40 0 22 5 40 10 40 6 0 10 -18 10 -40z m74 25 c-4 -8 -1 -15 5 -15 6 0
11 7 11 15 0 8 5 15 10 15 6 0 10 -18 10 -40 0 -39 -1 -40 -35 -40 -28 0 -35
4 -35 20 0 22 20 60 32 60 4 0 5 -7 2 -15z m66 -25 c0 -22 -4 -40 -10 -40 -5
0 -10 18 -10 40 0 22 5 40 10 40 6 0 10 -18 10 -40z m-173 -27 c-3 -10 -5 -2
-5 17 0 19 2 27 5 18 2 -10 2 -26 0 -35z m273 21 c6 -22 30 -30 30 -10 0 8 -6
17 -12 19 -8 3 -6 6 5 6 12 1 17 -7 17 -23 0 -28 -10 -33 -56 -28 -29 4 -34 8
-34 31 0 22 4 27 22 26 13 -1 25 -10 28 -21z m100 -10 c0 -30 -20 -32 -21 -1
l-2 22 -4 -22 c-6 -34 -20 -28 -15 6 3 22 8 28 23 24 12 -3 19 -14 19 -29z
m-310 1 c0 -14 -4 -25 -10 -25 -5 0 -10 11 -10 25 0 14 5 25 10 25 6 0 10 -11
10 -25z m127 -12 c-3 -10 -5 -4 -5 12 0 17 2 24 5 18 2 -7 2 -21 0 -30z m20
15 c-3 -8 -6 -5 -6 6 -1 11 2 17 5 13 3 -3 4 -12 1 -19z m280 -214 c-3 -3 -12
-4 -19 -1 -8 3 -5 6 6 6 11 1 17 -2 13 -5z"/>
<path d="M2112 3230 c0 -14 2 -19 5 -12 2 6 2 18 0 25 -3 6 -5 1 -5 -13z"/>
<path d="M2281 3224 c0 -11 3 -14 6 -6 3 7 2 16 -1 19 -3 4 -6 -2 -5 -13z"/>
<path d="M366 2870 c14 -14 613 -15 627 -1 8 8 -77 11 -313 11 -206 0 -321 -3
-314 -10z"/>
<path d="M330 2280 c0 -463 0 -470 20 -470 13 0 20 -7 20 -20 0 -10 9 -24 19
-30 12 -6 129 -10 309 -10 255 0 291 2 296 16 8 21 8 830 -1 917 l-6 67 -328
0 -329 0 0 -470z m258 433 c-15 -2 -42 -2 -60 0 -18 2 -6 4 27 4 33 0 48 -2
33 -4z m89 1 c-3 -3 -12 -4 -19 -1 -8 3 -5 6 6 6 11 1 17 -2 13 -5z m126 -1
c-13 -2 -35 -2 -50 0 -16 2 -5 4 22 4 28 0 40 -2 28 -4z m-248 -185 c4 -14 8
-18 12 -10 2 6 16 12 29 12 17 0 24 -6 24 -20 0 -25 -20 -27 -21 -2 -1 16 -2
16 -6 0 -9 -37 -63 -10 -63 31 0 20 18 11 25 -11z m195 -3 c1 17 4 23 7 14 3
-11 11 -15 26 -12 18 4 19 3 7 -6 -10 -7 -11 -11 -2 -11 6 0 12 -4 12 -9 0 -5
-26 -9 -57 -8 -44 2 -58 6 -58 17 0 8 10 16 23 18 12 2 23 9 23 15 1 7 5 -1 9
-18 l8 -30 2 30z m-80 -10 c0 -18 -5 -25 -20 -25 -35 0 -24 45 13 49 4 1 7
-10 7 -24z m-140 -15 c0 -5 -5 -10 -11 -10 -5 0 -7 5 -4 10 3 6 8 10 11 10 2
0 4 -4 4 -10z m276 -37 c-11 -11 -296 -12 -296 -2 0 5 68 9 152 9 83 0 148 -3
144 -7z m-272 -35 c5 4 6 -2 4 -12 -1 -10 3 -21 10 -23 7 -3 12 4 12 18 0 17
3 20 11 12 16 -16 3 -43 -21 -43 -11 0 -20 5 -20 10 0 6 -9 10 -21 10 -11 0
-17 -4 -14 -10 3 -5 1 -10 -4 -10 -15 0 -14 47 2 53 6 2 17 0 23 -4 6 -5 14
-5 18 -1z m69 -17 c-4 -15 1 -20 24 -24 27 -4 27 -4 -4 -6 -29 -1 -33 2 -33
24 0 14 4 25 9 25 5 0 7 -9 4 -19z m93 -6 c1 -15 -4 -25 -11 -25 -8 0 -11 8
-8 19 4 14 -1 21 -19 24 -19 4 -18 4 7 6 25 1 30 -3 31 -24z m44 0 c0 -14 -4
-25 -9 -25 -5 0 -8 11 -7 25 1 33 16 33 16 0z m89 8 c24 -20 18 -33 -12 -32
-21 0 -21 1 -2 9 11 5 15 9 9 9 -5 1 -19 8 -30 16 -17 13 -17 14 -2 15 10 0
27 -8 37 -17z m-51 -27 c12 -3 12 -4 -3 -3 -11 1 -20 9 -21 17 0 8 1 10 3 3 2
-6 12 -14 21 -17z m-1 -423 c4 -10 -16 -12 -76 -11 -59 1 -81 5 -81 14 0 18
151 15 157 -3z m37 -4 c-3 -5 -10 -7 -15 -3 -5 3 -7 10 -3 15 3 5 10 7 15 3 5
-3 7 -10 3 -15z"/>
<path d="M495 2420 c-3 -5 -1 -10 4 -10 6 0 11 5 11 10 0 6 -2 10 -4 10 -3 0
-8 -4 -11 -10z"/>
<path d="M1120 2275 c0 -399 2 -474 14 -469 9 3 17 -6 24 -25 l11 -31 299 0
c240 0 302 3 311 14 8 9 10 143 7 482 -2 258 -6 477 -7 487 -3 16 -27 17 -331
17 l-328 0 0 -475z m417 438 c10 -25 11 -26 12 -6 2 34 18 36 25 3 7 -36 21
-39 31 -7 l7 22 7 -25 c4 -14 7 -27 5 -28 -1 -2 -31 -4 -66 -4 -66 0 -98 -15
-98 -47 0 -14 -2 -14 -11 -1 -9 13 -10 13 -6 0 6 -23 61 -19 69 5 5 18 6 18 7
-4 1 -21 4 -23 37 -17 l35 7 -21 -21 c-12 -12 -31 -20 -43 -18 -16 2 -21 -2
-19 -14 2 -10 -2 -18 -8 -18 -5 0 -10 5 -10 10 0 6 -9 10 -20 10 -12 0 -20 7
-20 18 0 13 -2 14 -9 3 -6 -9 -18 -11 -35 -7 -22 5 -26 3 -26 -14 0 -14 7 -20
23 -20 13 0 32 -9 42 -20 11 -13 25 -18 37 -14 17 5 23 -4 19 -33 -1 -7 3 -13
9 -13 5 0 10 -9 10 -19 0 -17 -5 -19 -35 -14 -27 4 -35 2 -35 -9 0 -16 -54
-33 -71 -23 -11 7 -49 -26 -49 -42 0 -7 5 -13 12 -13 9 0 8 -3 -1 -12 -11 -10
-14 -10 -18 0 -3 6 -16 12 -29 12 -24 0 -30 -17 -26 -71 2 -22 -42 -41 -57
-26 -9 9 -17 8 -32 -2 -13 -7 -25 -9 -30 -4 -5 5 -8 81 -7 169 l3 159 37 0
c20 0 40 3 44 8 4 4 -11 7 -34 7 -23 0 -42 5 -42 11 0 5 4 8 9 5 5 -3 11 6 14
20 3 15 -1 28 -8 30 -7 3 -11 17 -9 34 2 16 -1 32 -6 35 -32 20 7 25 183 25
l193 0 11 -27z m193 -1 c0 -15 4 -43 10 -61 6 -20 6 -39 1 -45 -11 -13 -11 -8
-13 -103 0 -43 -3 -62 -5 -43 -6 45 -16 55 -36 36 -9 -9 -18 -12 -21 -8 -3 5
-8 64 -12 130 l-6 122 41 0 c38 0 41 -2 41 -28z m-107 -156 c7 -50 -2 -118
-14 -110 -12 7 -12 154 0 154 4 0 11 -20 14 -44z m-153 -26 c0 -5 -4 -10 -10
-10 -5 0 -10 5 -10 10 0 6 5 10 10 10 6 0 10 -4 10 -10z m119 -5 c2 -3 -3 -5
-11 -5 -9 0 -16 -6 -15 -12 1 -37 -4 -59 -13 -53 -5 3 -7 11 -4 18 2 7 -5 22
-16 34 -11 12 -20 25 -20 28 0 7 71 -3 79 -10z m-51 -140 c19 -10 29 -21 26
-30 -5 -12 0 -12 28 -5 18 6 34 10 35 10 2 0 3 -11 3 -25 0 -21 -5 -25 -30
-25 -16 0 -30 -4 -30 -10 0 -5 -7 -10 -15 -10 -8 0 -15 5 -15 10 0 13 -51 13
-70 -1 -12 -9 -11 -10 5 -4 16 5 18 4 7 -6 -10 -11 -15 -10 -26 1 -12 13 -12
22 1 63 18 52 30 57 81 32z m179 -17 c-3 -7 -5 -2 -5 12 0 14 2 19 5 13 2 -7
2 -19 0 -25z m-267 12 c0 -5 -5 -10 -11 -10 -5 0 -7 5 -4 10 3 6 8 10 11 10 2
0 4 -4 4 -10z m255 -60 c-3 -5 -10 -10 -16 -10 -5 0 -9 5 -9 10 0 6 7 10 16
10 8 0 12 -4 9 -10z m7 -52 c1 -12 2 -32 7 -105 0 -13 7 -23 16 -23 22 0 21
-86 -1 -94 -9 -3 -19 -4 -23 -1 -10 6 -7 -26 4 -45 4 -8 5 -12 0 -8 -4 4 -14
3 -22 -3 -10 -9 -13 -8 -13 1 0 7 -7 10 -16 6 -10 -4 -18 0 -21 13 -3 12 -11
17 -19 14 -8 -3 -11 -9 -8 -14 3 -5 0 -9 -5 -9 -6 0 -11 14 -11 30 0 31 17 39
38 18 7 -7 12 -8 12 -4 0 5 -19 25 -42 46 l-43 38 55 7 55 7 -3 54 c-2 30 -1
61 2 69 7 18 35 20 38 3z m-415 -40 c-3 -7 -5 -2 -5 12 0 14 2 19 5 13 2 -7 2
-19 0 -25z m-87 -17 c0 -9 5 -22 12 -29 9 -9 7 -12 -10 -12 -19 0 -22 6 -22
36 0 21 4 33 10 29 6 -3 10 -14 10 -24z m180 0 c0 -5 -8 -17 -17 -27 -20 -20
-32 -1 -13 21 14 17 30 20 30 6z m-155 -81 c0 -23 -49 -20 -53 3 -3 15 2 18
25 15 17 -2 28 -9 28 -18z m85 -1 c0 -14 -7 -19 -29 -19 -16 0 -31 6 -34 14
-7 19 -4 21 32 22 24 1 31 -3 31 -17z m181 -68 c-16 -30 -13 -45 5 -27 8 9 26
16 40 16 20 0 24 -5 24 -28 0 -28 -1 -28 -58 -27 -32 1 -63 5 -70 9 -7 4 -12
2 -12 -5 0 -9 -3 -10 -10 -3 -8 8 -7 19 0 39 11 29 24 25 33 -10 3 -14 5 -10
6 11 0 16 7 36 14 43 10 11 9 13 -3 9 -17 -5 -40 14 -40 35 0 27 13 25 47 -8
29 -28 33 -37 24 -54z m-258 -15 c5 -8 10 -7 17 4 7 10 12 12 18 4 4 -6 29
-11 55 -11 27 -1 50 -3 53 -6 7 -6 -7 -37 -17 -37 -4 0 -6 7 -3 15 4 8 1 15
-5 15 -6 0 -11 -7 -11 -15 0 -8 -7 -15 -15 -15 -8 0 -15 -7 -15 -15 0 -8 -9
-15 -19 -15 -11 0 -23 -5 -27 -11 -8 -13 106 -2 121 12 26 24 40 -11 23 -57
l-12 -34 -133 0 -133 0 0 88 c0 49 2 91 4 93 9 9 91 -4 99 -15z m292 -126 c4
-6 -8 -10 -29 -10 -37 0 -51 12 -42 36 5 13 9 13 35 -1 16 -8 33 -19 36 -25z
m185 -12 c0 -5 7 -8 15 -8 8 0 15 -3 15 -7 0 -5 -16 -8 -35 -8 -32 0 -35 3
-35 28 0 25 2 26 20 15 11 -7 20 -16 20 -20z m-130 8 c0 -11 -19 -15 -25 -6
-3 5 1 10 9 10 9 0 16 -2 16 -4z"/>
<path d="M1485 2720 c-3 -5 -1 -10 4 -10 6 0 11 5 11 10 0 6 -2 10 -4 10 -3 0
-8 -4 -11 -10z"/>
<path d="M1278 2698 c-3 -20 -8 -23 -40 -20 -23 2 -38 -1 -38 -7 0 -6 5 -11
11 -11 7 0 10 -12 7 -30 -4 -27 -2 -30 21 -29 14 0 20 3 14 6 -19 7 -16 53 2
53 10 0 15 -10 15 -27 1 -24 2 -25 11 -10 5 9 15 17 21 17 6 0 3 -12 -6 -27
-17 -27 -17 -27 1 -8 10 11 27 22 37 23 17 3 18 2 7 -12 -12 -14 -11 -16 3
-10 10 4 15 13 12 21 -3 8 -6 19 -6 24 0 5 -5 9 -11 9 -5 0 -7 -4 -4 -10 3 -5
1 -10 -4 -10 -6 0 -11 5 -11 11 0 6 -9 8 -20 4 -23 -7 -23 -9 -11 33 5 17 6
32 1 32 -5 0 -10 -10 -12 -22z"/>
<path d="M1404 2640 c-1 -29 3 -40 13 -40 9 0 13 6 10 14 -3 8 1 17 9 20 19 7
18 32 -2 40 -27 10 -29 7 -30 -34z"/>
<path d="M1310 2550 c-9 -6 -10 -10 -3 -10 6 0 15 5 18 10 8 12 4 12 -15 0z"/>
<path d="M1220 2259 c0 -5 5 -7 10 -4 6 3 10 8 10 11 0 2 -4 4 -10 4 -5 0 -10
-5 -10 -11z"/>
<path d="M1672 2630 c0 -19 2 -27 5 -17 2 9 2 25 0 35 -3 9 -5 1 -5 -18z"/>
<path d="M1705 2590 c3 -5 8 -10 11 -10 2 0 4 5 4 10 0 6 -5 10 -11 10 -5 0
-7 -4 -4 -10z"/>
<path d="M1472 2035 c0 -16 2 -22 5 -12 2 9 2 23 0 30 -3 6 -5 -1 -5 -18z"/>
<path d="M1190 2041 c0 -6 5 -13 10 -16 6 -3 10 1 10 9 0 9 -4 16 -10 16 -5 0
-10 -4 -10 -9z"/>
<path d="M1910 2281 l0 -469 28 -7 c15 -4 21 -10 14 -12 -10 -4 -9 -9 4 -24
16 -18 35 -19 309 -19 328 0 318 -2 322 74 1 22 4 179 7 347 5 330 -3 506 -24
519 -7 5 -11 19 -8 34 l5 26 -328 0 -329 0 0 -469z m630 -1 l0 -460 -305 0
-305 0 0 460 0 460 305 0 305 0 0 -460z"/>
<path d="M2203 2465 c-7 -7 -14 -24 -17 -37 -2 -13 -5 -27 -6 -33 -1 -5 -2
-17 -1 -25 2 -19 40 28 41 51 0 8 5 20 10 25 8 8 7 14 -2 21 -9 8 -16 7 -25
-2z"/>
<path d="M2287 2459 c7 -24 10 -24 22 -1 7 14 6 18 -9 19 -13 1 -16 -4 -13
-18z"/>
<path d="M2461 2444 c0 -11 3 -14 6 -6 3 7 2 16 -1 19 -3 4 -6 -2 -5 -13z"/>
<path d="M2067 2408 c-37 -45 -34 -59 3 -17 26 30 37 49 27 49 -2 0 -15 -15
-30 -32z"/>
<path d="M2465 2410 c-3 -5 -1 -10 4 -10 6 0 11 5 11 10 0 6 -2 10 -4 10 -3 0
-8 -4 -11 -10z"/>
<path d="M2077 2370 c-31 -27 -40 -31 -48 -19 -7 12 -9 12 -9 -1 0 -13 -1 -13
-10 0 -7 11 -10 6 -10 -22 0 -20 4 -39 9 -42 4 -3 11 -19 14 -35 3 -15 13 -31
22 -35 9 -3 13 -2 10 4 -3 6 0 10 7 10 10 0 13 10 10 35 -3 27 2 44 23 70 14
20 25 43 23 52 -2 14 -10 10 -41 -17z"/>
<path d="M2323 2374 c-6 -13 -7 -24 -3 -24 9 0 25 39 18 45 -2 2 -8 -7 -15
-21z"/>
<path d="M2235 2380 c3 -5 8 -10 11 -10 2 0 4 5 4 10 0 6 -5 10 -11 10 -5 0
-7 -4 -4 -10z"/>
<path d="M2294 2352 c2 -23 0 -40 -5 -36 -5 3 -9 -2 -9 -10 0 -9 5 -16 10 -16
6 0 10 -4 10 -10 0 -5 -9 -10 -21 -10 -11 0 -17 -4 -14 -10 3 -5 18 -10 32
-10 27 0 94 -28 105 -44 5 -7 8 -7 8 1 0 7 7 10 16 6 14 -5 14 -2 0 32 -9 21
-16 40 -17 44 0 3 -6 -7 -13 -22 -11 -25 -15 -27 -27 -15 -8 8 -20 13 -27 10
-6 -2 -12 3 -12 12 0 9 5 16 10 16 6 0 10 5 10 12 0 9 -3 9 -12 0 -18 -18 -28
-14 -27 11 0 12 -4 36 -10 52 -10 29 -11 28 -7 -13z"/>
<path d="M2455 2349 c-12 -17 -26 -28 -35 -26 -8 3 -21 6 -29 8 -7 2 -15 -1
-18 -7 -6 -17 60 -15 79 3 22 19 36 10 18 -12 -8 -9 -8 -15 -2 -15 15 0 24 34
15 58 -8 21 -9 20 -28 -9z"/>
<path d="M2210 2329 c0 -3 3 -9 7 -13 12 -12 9 -96 -4 -96 -14 0 -43 55 -43
82 0 34 -29 19 -36 -19 -4 -21 -12 -41 -18 -45 -7 -5 -4 -8 7 -8 9 0 17 -7 17
-15 0 -18 -31 -20 -47 -4 -9 9 -11 7 -9 -6 4 -28 34 -38 94 -32 37 4 62 13 79
29 23 21 23 23 6 35 -15 11 -15 17 -5 33 7 12 8 20 2 20 -17 0 -11 38 8 43 9
2 0 4 -20 3 -21 -1 -38 -4 -38 -7z"/>
<path d="M2466 2275 c-3 -10 -3 -22 3 -28 12 -12 20 4 11 27 -6 19 -7 19 -14
1z"/>
<path d="M2296 2224 c-9 -23 -8 -26 6 -18 7 5 9 2 5 -9 -4 -11 -2 -14 9 -10
17 6 17 13 0 36 -12 16 -14 16 -20 1z"/>
<path d="M2262 2184 c-11 -12 -9 -14 8 -14 11 0 20 4 20 9 0 17 -15 19 -28 5z"/>
<path d="M2480 2191 c0 -5 -8 -11 -17 -13 -15 -3 -14 -5 5 -10 17 -5 22 -2 22
13 0 10 -2 19 -5 19 -3 0 -5 -4 -5 -9z"/>
<path d="M2013 2143 c-7 -15 -13 -36 -13 -47 1 -17 3 -16 13 8 l12 28 13 -35
c7 -19 21 -37 32 -40 11 -3 20 -10 20 -16 0 -9 -5 -9 -21 -1 -28 16 -33 7 -9
-15 11 -10 20 -24 20 -31 0 -7 6 -14 13 -17 6 -2 -7 -3 -30 -1 -30 2 -43 -2
-47 -13 -4 -9 -5 -16 -4 -17 2 -1 14 -7 28 -15 14 -7 22 -10 18 -6 -4 4 -1 13
5 20 10 10 15 9 27 -4 29 -33 47 -32 53 3 7 44 -1 81 -25 106 -19 21 -19 22
-2 35 15 11 22 11 31 2 14 -14 19 -101 8 -137 l-8 -25 27 24 c14 14 26 34 26
45 0 12 5 28 10 36 9 13 11 13 20 0 10 -14 9 -38 -6 -117 -5 -26 -3 -33 10
-33 12 0 16 10 16 45 0 32 4 45 14 45 20 0 27 26 15 57 -8 21 -6 30 9 47 22
25 19 64 -4 45 -10 -8 -14 -8 -14 0 0 6 -17 11 -39 11 -22 0 -43 5 -46 10 -4
6 -15 8 -25 5 -16 -5 -49 0 -120 20 -9 3 -20 -6 -27 -22z"/>
<path d="M2348 2142 c-32 -32 -35 -42 -10 -42 16 -1 72 -43 72 -55 0 -3 -8 -5
-17 -5 -16 -1 -16 -2 1 -15 12 -9 29 -12 40 -9 19 6 19 6 2 -11 -9 -10 -15
-23 -12 -31 3 -7 -2 -18 -9 -24 -8 -7 -13 -16 -10 -20 3 -4 -2 -11 -11 -14 -9
-4 -14 -9 -12 -12 3 -3 22 4 42 15 24 14 36 17 36 8 1 -6 7 2 14 19 8 17 13
64 13 109 0 44 -4 70 -8 59 -6 -17 -8 -17 -14 -2 -3 9 -18 19 -31 22 -14 4
-22 11 -19 16 4 6 11 7 17 4 7 -4 8 -2 4 4 -13 21 -60 12 -88 -16z"/>
<path d="M2016 2064 c-7 -19 -8 -69 -1 -62 3 3 10 19 15 37 9 31 -3 54 -14 25z"/>
<path d="M2307 2020 c-5 -18 -4 -18 19 -3 29 19 30 23 5 23 -10 0 -21 -9 -24
-20z"/>
<path d="M2340 2001 c0 -22 49 -34 62 -16 14 19 8 25 -27 25 -19 0 -35 -4 -35
-9z"/>
<path d="M2182 1940 c-21 -9 -48 -57 -37 -68 3 -3 5 0 5 6 0 7 7 12 15 12 8 0
15 6 16 13 0 6 4 3 8 -8 7 -16 9 -13 13 18 2 20 4 37 3 36 0 0 -10 -4 -23 -9z"/>
<path d="M2364 1938 c3 -10 -1 -18 -12 -21 -16 -4 -16 -5 0 -6 22 -1 29 11 16
29 -8 12 -9 12 -4 -2z"/>
<path d="M2260 1924 c0 -2 4 -14 9 -27 8 -21 15 -25 50 -23 48 3 68 16 23 16
-23 0 -30 4 -26 14 4 11 0 13 -18 9 -18 -4 -20 -2 -8 6 12 8 11 10 -8 8 -12 0
-22 -2 -22 -3z"/>
<path d="M653 1652 l-323 -2 0 -475 0 -475 22 0 c12 0 18 -3 15 -6 -4 -4 3
-16 15 -26 21 -18 39 -19 310 -16 196 2 291 7 298 14 15 15 10 969 -5 981 -5
4 -155 7 -332 5z m317 -477 l0 -455 -310 0 -310 0 0 455 0 455 310 0 310 0 0
-455z"/>
<path d="M532 1230 c0 -19 2 -27 5 -17 2 9 2 25 0 35 -3 9 -5 1 -5 -18z"/>
<path d="M560 1224 c0 -8 5 -12 10 -9 6 4 8 11 5 16 -9 14 -15 11 -15 -7z"/>
<path d="M591 1224 c0 -11 3 -14 6 -6 3 7 2 16 -1 19 -3 4 -6 -2 -5 -13z"/>
<path d="M621 1224 c0 -11 3 -14 6 -6 3 7 2 16 -1 19 -3 4 -6 -2 -5 -13z"/>
<path d="M671 1224 c0 -11 3 -14 6 -6 3 7 2 16 -1 19 -3 4 -6 -2 -5 -13z"/>
<path d="M695 1219 c-4 -6 -5 -12 -2 -15 2 -3 7 2 10 11 7 17 1 20 -8 4z"/>
<path d="M632 1145 c0 -16 2 -22 5 -12 2 9 2 23 0 30 -3 6 -5 -1 -5 -18z"/>
<path d="M650 1160 c0 -5 5 -10 11 -10 5 0 7 5 4 10 -3 6 -8 10 -11 10 -2 0
-4 -4 -4 -10z"/>
<path d="M801 1154 c0 -11 3 -14 6 -6 3 7 2 16 -1 19 -3 4 -6 -2 -5 -13z"/>
<path d="M750 1137 c0 -8 7 -14 15 -14 11 0 12 4 4 14 -6 7 -13 13 -15 13 -2
0 -4 -6 -4 -13z"/>
<path d="M871 1134 c0 -11 3 -14 6 -6 3 7 2 16 -1 19 -3 4 -6 -2 -5 -13z"/>
<path d="M680 1130 c0 -5 5 -10 11 -10 5 0 7 5 4 10 -3 6 -8 10 -11 10 -2 0
-4 -4 -4 -10z"/>
<path d="M820 1130 c0 -5 5 -10 11 -10 5 0 7 5 4 10 -3 6 -8 10 -11 10 -2 0
-4 -4 -4 -10z"/>
</g>
</svg>
