<?xml version="1.0" encoding="UTF-8" standalone="no"?>
<!-- Created with Inkscape (http://www.inkscape.org/) -->

<svg
   xmlns:dc="http://purl.org/dc/elements/1.1/"
   xmlns:cc="http://creativecommons.org/ns#"
   xmlns:rdf="http://www.w3.org/1999/02/22-rdf-syntax-ns#"
   xmlns:svg="http://www.w3.org/2000/svg"
   xmlns="http://www.w3.org/2000/svg"
   xmlns:sodipodi="http://sodipodi.sourceforge.net/DTD/sodipodi-0.dtd"
   xmlns:inkscape="http://www.inkscape.org/namespaces/inkscape"
   width="2502.0769"
   height="750.06519"
   id="svg2"
   version="1.1"
   inkscape:version="0.48.3.1 r9886"
   sodipodi:docname="New document 1">
  <defs
     id="defs4" />
  <sodipodi:namedview
     id="base"
     pagecolor="#ffffff"
     bordercolor="#666666"
     borderopacity="1.0"
     inkscape:pageopacity="0.0"
     inkscape:pageshadow="2"
     inkscape:zoom="0.35"
     inkscape:cx="1159.6483"
     inkscape:cy="305.35091"
     inkscape:document-units="px"
     inkscape:current-layer="layer1"
     showgrid="false"
     fit-margin-top="0"
     fit-margin-left="0"
     fit-margin-right="0"
     fit-margin-bottom="0"
     inkscape:window-width="1239"
     inkscape:window-height="714"
     inkscape:window-x="0"
     inkscape:window-y="0"
     inkscape:window-maximized="0" />
  <metadata
     id="metadata7">
    <rdf:RDF>
      <cc:Work
         rdf:about="">
        <dc:format>image/svg+xml</dc:format>
        <dc:type
           rdf:resource="http://purl.org/dc/dcmitype/StillImage" />
        <dc:title></dc:title>
      </cc:Work>
    </rdf:RDF>
  </metadata>
  <g
     inkscape:label="Layer 1"
     inkscape:groupmode="layer"
     id="layer1"
     transform="translate(756.07683,129.49496)">
    <g
       id="g3050"
       transform="translate(120,-322.85714)">
      <path
         style="fill:#a3d4f9"
         d="m -3.8,942.16218 c -1.7393,-1.7393 -1.7393,-177.8607 0,-179.6 1.7306,-1.7306 105.8694,-1.7306 107.6,0 1.7787,1.7787 1.6569,26.1759 -0.1381,27.6657 -0.9179,0.7618 -13.5579,1.1928 -40.25,1.3724 l -38.9119,0.2619 0,20 0,20 38.9119,0.2619 c 26.6921,0.1796 39.3321,0.6106 40.25,1.3724 0.9895,0.8213 1.3381,4.4335 1.3381,13.8657 0,9.4322 -0.3486,13.0444 -1.3381,13.8657 -0.9179,0.7618 -13.5579,1.1928 -40.25,1.3724 l -38.9119,0.2619 -0.2618,39.4483 c -0.1993,30.0322 -0.5573,39.6359 -1.5,40.2347 -2.0695,1.3144 -25.1743,0.9809 -26.5382,-0.383 z m 179.1887,-0.2884 c -11.8188,-2.571 -19.0875,-8.3082 -24.0864,-19.0116 l -2.8023,-6 0,-64.5 0,-64.5 2.8854,-6.2475 c 3.2766,-7.0943 9.5297,-13.4427 16.1064,-16.3519 7.7193,-3.4146 18.486,-4.1153 56.2385,-3.6597 31.4638,0.3796 36.3716,0.6516 40.7697,2.2595 10.6031,3.8763 16.7921,9.6866 20.7703,19.4996 2.2251,5.4887 2.2297,5.6306 2.2297,69 l 0,63.5 -2.385,5.9188 c -4.5722,11.3467 -13.9573,18.4551 -27.115,20.5374 -9.831,1.5558 -75.0283,1.205 -82.6113,-0.4446 z m 80.3055,-30.925 2.8058,-2.4134 0,-56.1732 0,-56.1732 -2.8058,-2.4134 -2.8057,-2.4134 -34.8885,0 -34.8885,0 -2.8057,2.4134 -2.8058,2.4134 0,56.1732 0,56.1732 2.8058,2.4134 2.8057,2.4134 34.8885,0 34.8885,0 2.8057,-2.4134 z m 102.6744,30.9209 c -3.3723,-0.7334 -7.5863,-2.0858 -9.3644,-3.0053 -5.7882,-2.9932 -11.635,-9.2944 -14.6188,-15.7547 l -2.8854,-6.2475 -0.28,-76.3614 c -0.2073,-56.5345 0.019,-76.7219 0.8724,-77.75 1.6162,-1.9473 25.1555,-1.9998 26.7657,-0.06 0.7759,0.9349 1.1828,22.7553 1.3724,73.5869 l 0.2695,72.2579 2.8058,2.4131 2.8057,2.4131 34.8885,0 34.8885,0 2.8057,-2.4131 2.8058,-2.4131 0.2694,-72.7899 c 0.2083,-56.2886 0.5483,-72.967 1.5,-73.5715 2.0639,-1.3111 25.1695,-0.9735 26.5306,0.3876 1.656,1.656 1.727,145.218 0.076,153.0008 -3.2051,15.1059 -12.9773,24.1502 -28.8816,26.7305 -9.7666,1.5845 -74.928,1.2503 -82.6254,-0.4238 z m 156.8814,0.8302 c -1.7865,-0.7209 -1.8358,-178.3519 -0.05,-180.1377 1.6689,-1.6689 20.8511,-1.6273 23.0751,0.05 0.9115,0.6875 20.2768,28.4514 43.034,61.6976 22.7572,33.2462 41.8974,60.6212 42.5338,60.8334 0.8678,0.2892 1.1571,-14.9858 1.1571,-61.0907 0,-55.1359 0.1631,-61.5389 1.5818,-62.0833 3.0335,-1.1641 24.957,-0.6682 26.2182,0.593 1.7393,1.7393 1.7393,177.8607 0,179.6 -0.7763,0.7763 -4.7976,1.2 -11.3892,1.2 -8.2739,0 -10.566,-0.329 -12.1933,-1.75 -1.1023,-0.9625 -20.3233,-28.3 -42.7133,-60.75 -22.3901,-32.45 -41.3381,-59.6589 -42.1067,-60.4643 -1.1974,-1.2546 -1.3975,7.3574 -1.3975,60.143 0,55.2553 -0.1631,61.6699 -1.5818,62.2143 -1.8774,0.7204 -24.3635,0.6729 -26.1682,-0.055 z m 183,0 c -0.987,-0.3982 -1.25,-19.402 -1.25,-90.314 0,-80.9722 0.1557,-89.8695 1.5818,-90.4167 2.6505,-1.0171 100.4412,-0.6364 107.7443,0.4195 13.6016,1.9665 23.1467,9.094 27.8906,20.8264 2.2764,5.6301 2.2842,5.8278 2.5922,65.6471 0.218,42.3362 -0.03,61.7566 -0.843,65.9667 -3.0104,15.5945 -12.7569,24.8339 -28.9719,27.4646 -9.4533,1.5337 -73.241,1.4217 -74.794,-0.1313 -0.8063,-0.8063 -1.2,-5.3333 -1.2,-13.8 0,-8.4667 0.3937,-12.9937 1.2,-13.8 0.8866,-0.8866 10.1432,-1.2 35.4442,-1.2 l 34.2443,0 2.8057,-2.4134 2.8058,-2.4134 0,-56.1732 0,-56.1732 -2.8058,-2.4134 -2.8057,-2.4134 -37.9443,0 -37.9442,0 0,74.8 c 0,56.8444 -0.2881,75.0881 -1.2,76 -1.1927,1.1927 -23.7926,1.6504 -26.55,0.5377 z m 183.4167,0 C 881.3,942.33328 881,941.24248 881,940.27598 c 0,-3.0086 69.0268,-176.3377 70.7513,-177.6594 1.0611,-0.8133 5.2246,-1.25 11.9168,-1.25 9.5686,0 10.3873,0.1569 11.7421,2.25 0.801,1.2375 5.2682,11.925 9.9272,23.75 4.6589,11.825 20.2139,50.8939 34.5667,86.8197 14.3527,35.9258 26.0959,65.9152 26.0959,66.643 0,2.1469 -2.4634,2.5373 -16.0104,2.5373 -10.0715,0 -13.17,-0.3232 -14.3429,-1.4962 -0.823,-0.8229 -4.7857,-9.8229 -8.8062,-20 l -7.3099,-18.5038 -30.1835,0 c -16.6009,0 -30.8953,-0.2731 -31.7653,-0.607 -0.87,-0.3338 -1.5818,-1.5628 -1.5818,-2.7311 0,-2.6812 7.8468,-22.5679 9.8296,-24.9119 1.3181,-1.5581 3.656,-1.75 21.3254,-1.75 15.2089,0 19.8452,-0.292 19.8458,-1.25 0,-2.0248 -23.275,-61.75 -24.0653,-61.75 -0.3968,0 -0.9469,0.5625 -1.2224,1.25 -1.6163,4.0337 -44.4293,114.6374 -46.934,121.25 -1.6666,4.4 -3.7347,8.5625 -4.5958,9.25 -1.6677,1.3316 -27.2452,1.8548 -28.5166,0.5833 z m 234.3685,-1.2676 c -0.6869,-1.2834 -1.0352,-26.8569 -1.0352,-76 l 0,-74.0657 -23.8,0 c -17.1778,0 -24.1339,-0.3339 -25,-1.2 -1.6626,-1.6626 -1.6626,-25.9374 0,-27.6 0.9076,-0.9076 16.37,-1.2 63.4648,-1.2 60.536,0 62.2936,0.054 63.3,1.9343 0.5694,1.0638 1.0352,6.9434 1.0352,13.0657 0,6.1223 -0.4658,12.0019 -1.0352,13.0657 -0.9783,1.828 -2.3245,1.9343 -24.5,1.9343 l -23.4648,0 0,74.8 c 0,56.8444 -0.2881,75.0881 -1.2,76 -0.808,0.808 -5.37,1.2 -13.9648,1.2 -11.5968,0 -12.8596,-0.177 -13.8,-1.9343 z m 116.2148,1.272 c -0.987,-0.3982 -1.25,-19.402 -1.25,-90.314 0,-80.9722 0.1557,-89.8695 1.5818,-90.4167 3.0335,-1.1641 24.957,-0.6682 26.2182,0.593 1.7393,1.7393 1.7393,177.8607 0,179.6 -1.1927,1.1927 -23.7926,1.6504 -26.55,0.5377 z m 99.3443,-0.3591 c -6.685,-1.1683 -16.8865,-6.3522 -20.1924,-10.2609 -4.2666,-5.0444 -7.3078,-12.6997 -8.4647,-21.3071 -0.6835,-5.0853 -0.9347,-27.9111 -0.7035,-63.9106 0.3158,-49.1585 0.5652,-56.6164 2.041,-61.0452 3.7535,-11.2644 11.3761,-18.7319 22.7057,-22.2438 4.82,-1.4941 10.5894,-1.711 45.5196,-1.711 34.9255,0 40.6977,0.2169 45.5,1.7098 11.7226,3.6442 18.8451,10.626 22.7393,22.2902 1.4622,4.3795 1.7135,12.036 2.0247,61.6945 0.2185,34.8509 -0.035,59.5086 -0.6568,63.9986 -2.0149,14.5396 -9.0305,23.8437 -21.8249,28.9441 -5.6562,2.2548 -6.6329,2.3094 -44.7823,2.502 -21.45,0.1082 -41.2076,-0.189 -43.9057,-0.6606 z m 78.9512,-31.4331 2.4545,-2.4546 0,-55.9347 c 0,-53.5829 -0.08,-56.0339 -1.9116,-58.2954 l -1.9117,-2.3608 -36.6455,0 -36.6454,0 -1.9207,2.5 c -1.8407,2.396 -1.9216,4.8215 -1.9429,58.2955 l -0.022,55.7954 2.4545,2.4546 2.4546,2.4545 35.5909,0 35.5909,0 2.4546,-2.4545 z m 75.4897,30.5202 c -0.691,-1.291 -1.0352,-31.0288 -1.0352,-89.4285 0,-78.207 0.1668,-87.6611 1.5714,-89.0658 2.2367,-2.2366 21.5789,-2.2782 23.806,-0.051 0.8361,0.8362 20.3307,28.9918 43.3214,62.5681 l 41.8012,61.0478 0.5,-61.6049 c 0.4326,-53.3019 0.7022,-61.7327 2,-62.5528 1.6418,-1.0374 23.8683,-1.3499 26.4182,-0.3714 1.4261,0.5472 1.5818,9.4424 1.5818,90.393 0,80.9506 -0.1557,89.8458 -1.5818,90.393 -0.87,0.3339 -6.1915,0.607 -11.8257,0.607 -9.3505,0 -10.4223,-0.1962 -12.2897,-2.25 -1.1251,-1.2375 -20.6661,-29.1909 -43.4243,-62.1187 l -41.3785,-59.8686 -0.2578,60.7756 c -0.1818,42.8649 -0.5863,61.1714 -1.3725,62.1186 -0.827,0.9965 -4.4284,1.3431 -13.957,1.3431 -11.6734,0 -12.9366,-0.1761 -13.8775,-1.9343 z M -518.5,939.68208 c -20.68514,-4.6344 -37.24939,-17.2072 -46.70037,-35.4469 -9.7674,-18.8503 -9.12465,-43.0824 1.65399,-62.3565 12.57111,-22.4792 40.15607,-36.287 65.24639,-32.6593 16.26288,2.3514 29.68545,9.3002 40.2635,20.8443 6.75292,7.3696 13.10435,18.9109 15.57328,28.2985 2.23212,8.4872 2.26345,23.4572 0.067,32 -6.1841,24.052 -25.0998,42.8989 -48.61894,48.442 -6.00265,1.4148 -22.70713,1.9483 -27.48483,0.8779 z m 222.82234,-94.4182 c -34.036,-5.6826 -58.94092,-39.1695 -54.30621,-73.0195 3.5442,-25.8854 20.51745,-46.6237 44.98387,-54.9623 8.92454,-3.0416 26.00202,-3.7886 35.01902,-1.5318 24.44772,6.1189 43.70561,25.3148 49.4976,49.3381 1.32867,5.5109 1.6209,9.7838 1.23106,18 -0.86457,18.2223 -6.43703,30.8801 -19.31517,43.8743 -14.56638,14.6978 -36.53248,21.7369 -57.11017,18.3012 z m -435.83615,-4.295 c -32.97203,-6.2824 -56.45803,-36.2434 -54.17187,-69.1067 1.62148,-23.3086 15.69886,-44.5358 36.18568,-54.5641 10.64983,-5.2131 17.97724,-6.9359 29.5,-6.9359 11.65201,0 18.85112,1.7228 29.9876,7.1761 16.89324,8.2723 30.58489,25.9967 34.48284,44.6393 5.08287,24.3096 -3.40919,48.3737 -22.94461,65.0184 -13.47646,11.4823 -35.30815,17.1514 -53.03964,13.7729 z M -4.25,676.67288 c -1.6605,-0.434 -1.75,-12.623 -1.75,-238.277 0,-215.938 0.1455,-237.8756 1.5818,-238.4267 0.87,-0.3339 14.7415,-0.607 30.8257,-0.607 29.055,0 29.2571,0.014 31.2868,2.25 1.1236,1.2375 52.7953,76.5 114.8261,167.25 62.0307,90.75 113.6149,165.8875 114.6314,166.9722 1.7981,1.9188 1.8482,-2.5825 1.8482,-166.05 0,-129.3506 0.2762,-168.2984 1.2,-169.2222 1.7196,-1.7196 69.8804,-1.7196 71.6,0 0.9266,0.9266 1.2,55.1611 1.2,238.0248 l 0,236.8247 -2.5651,0.9753 c -2.7217,1.0347 -53.3965,1.3605 -57.1002,0.3671 -1.4879,-0.3992 -38.2417,-52.6884 -117.5,-167.166 -63.4341,-91.6218 -116.1072,-167.5168 -117.0514,-168.6555 -1.6238,-1.9582 -1.7186,7.0417 -1.75,166.1444 -0.033,165.2679 -0.067,168.233 -1.9676,169.25 -1.9011,1.0175 -65.5308,1.335 -69.3157,0.3459 z m 509.6579,-0.3132 c -44.3269,-3.1406 -72.6141,-22.4376 -84.314,-57.5174 -6.926,-20.766 -6.4401,-4.9775 -6.8116,-221.3456 -0.2509,-146.0971 -0.046,-195.7147 0.8136,-196.75 1.5673,-1.8885 69.8244,-2.0642 71.7041,-0.1845 0.9249,0.9249 1.2,44.6708 1.2,190.8185 0,209.5843 -0.4418,195.6005 6.434,203.6333 1.9616,2.2917 5.7878,5.1077 8.7725,6.4563 l 5.2935,2.3919 86,0.2955 c 59.3087,0.2037 87.9856,-0.046 92.3976,-0.805 11.0867,-1.907 16.1722,-5.5396 20.3036,-14.503 l 2.2988,-4.9875 0.2627,-190.9128 c 0.1899,-138.0454 0.5699,-191.2831 1.3724,-192.25 0.8864,-1.068 7.9133,-1.3372 34.9056,-1.3372 18.5876,0 34.5075,0.2731 35.3775,0.607 1.4349,0.5506 1.5814,18.6812 1.5778,195.25 0,209.5769 0.1519,202.7788 -5.0644,220.3509 -2.823,9.5101 -10.0012,23.2651 -15.8082,30.2921 -9.3984,11.373 -25.996,21.6121 -42.1124,25.9792 -17.5252,4.7489 -17.4068,4.7437 -113.011,5.0316 -49.775,0.1499 -95.4914,-0.081 -101.5921,-0.5133 z m 420.467,-0.051 c -52.5733,-3.7801 -81.9887,-29.8575 -89.3119,-79.1772 -1.3756,-9.2638 -1.563,-33.6726 -1.563,-203.5407 0,-175.0817 0.147,-193.0711 1.5818,-193.6217 2.3488,-0.9013 68.7141,-0.706 70.1506,0.2065 0.968,0.6148 1.2898,41.7547 1.5,191.7346 0.2556,182.3664 0.35,191.1639 2.0994,195.666 2.4693,6.355 8.5511,12.2336 14.974,14.4741 4.8648,1.6969 10.8705,1.8118 94.6942,1.8118 83.28,0 89.808,-0.123 93.9313,-1.7696 6.5663,-2.6222 10.5809,-6.1013 13.2163,-11.4532 l 2.3524,-4.7772 0.5,-192.2865 c 0.4407,-169.4683 0.678,-192.3991 2,-193.2347 0.8684,-0.5489 15.8707,-0.9546 35.6276,-0.9635 27.8283,-0.013 34.3391,0.2397 35.274,1.3662 0.8558,1.0311 1.0684,51.3038 0.8385,198.25 l -0.3081,196.8685 -2.2473,9.8029 c -4.2858,18.6942 -10.8915,32.0344 -21.4533,43.3251 -15.519,16.5899 -36.7372,25.0741 -68.421,27.3587 -15.8972,1.1462 -169.3974,1.113 -185.4355,-0.04 z m 419.7933,0 c -16.159,-1.1451 -30.7519,-4.8866 -43.6682,-11.1961 -9.263,-4.525 -11.6265,-6.2558 -20.0622,-14.6914 -8.4002,-8.4002 -10.1901,-10.8381 -14.7293,-20.0622 -6.7544,-13.7251 -9.86,-26.6684 -11.2725,-46.9793 -1.5904,-22.8696 -0.7452,-293.8921 0.9476,-303.8653 3.286,-19.3598 9.4005,-34.7937 18.6081,-46.97 4.981,-6.5871 14.7132,-14.9977 22.6445,-19.5696 6.5878,-3.7974 19.7833,-8.4535 30.8638,-10.8905 9.3103,-2.0476 12.0628,-2.0965 137.8463,-2.4499 96.6711,-0.2715 128.6927,-0.073 129.75,0.8045 1.9055,1.5814 2.0992,68.8246 0.2037,70.7201 -0.9201,0.9201 -29.4188,1.2 -122.1844,1.2 -137.7741,0 -129.2145,-0.4963 -137.695,7.9842 -8.5843,8.5842 -8.0538,-2.4512 -7.7165,160.5158 l 0.2959,143 3,6 c 3.9016,7.8031 9.6833,11.8475 19.2202,13.4447 4.7917,0.8025 31.9981,1.0504 92.7798,0.8454 l 86,-0.2901 5.2416,-2.3695 c 2.8829,-1.3033 6.7951,-4.089 8.6936,-6.1905 6.5388,-7.2377 6.5648,-7.5308 6.5648,-74.1215 l 0,-59.8185 -19.25,-0.015 c -10.5875,-0.01 -19.8183,-0.3761 -20.513,-0.8171 -0.9867,-0.6263 -1.2055,-8.5527 -1,-36.2346 l 0.263,-35.433 57,0 57,0 0,100.5 c 0,93.4033 -0.1309,101.2413 -1.8532,110.998 -3.6625,20.7473 -11.6213,37.8632 -22.9973,49.4574 -13.1613,13.4138 -30.3658,21.4849 -54.6495,25.6374 -7.9743,1.3636 -181.6458,2.1102 -199.3318,0.8569 z m -2170.4998,-45.483 c -23.20019,-5.0359 -43.18288,-24.5635 -49.1964,-48.0762 -8.5682,-33.5013 10.47203,-68.19 43.39748,-79.0642 6.95909,-2.2984 9.85945,-2.6908 20.13052,-2.7233 19.95841,-0.063 32.28783,5.0632 46.58849,19.3714 13.43254,13.4397 19.27623,27.3926 19.27623,46.0256 0,11.1746 -1.94687,19.5799 -6.83291,29.5 -13.16782,26.7344 -43.87103,41.3683 -73.36341,34.9667 z m 619.93912,-0.066 c -13.3231,-2.9144 -27.88926,-12.1198 -36.64553,-23.159 -10.32577,-13.0179 -14.99416,-27.7479 -14.18111,-44.7453 1.29803,-27.1359 18.43242,-49.7763 44.4608,-58.7479 37.40456,-12.8928 77.59963,10.3129 85.6694,49.4592 1.97952,9.6027 2.00132,15.4607 0.0947,25.4258 -2.74392,14.3412 -12.09466,29.9088 -23.31489,38.8158 -15.54811,12.3426 -36.62061,17.2089 -56.08337,12.9514 z M -734.5,408.95448 c -22.47259,-5.1667 -40.26807,-21.4734 -48.12827,-44.1019 -2.43031,-6.9965 -2.77749,-9.483 -2.79119,-19.9904 -0.0173,-13.2755 1.35363,-19.458 6.64087,-29.9477 8.21543,-16.2993 23.21029,-28.6999 41.33087,-34.1803 8.22957,-2.489 26.66232,-2.4861 34.94772,0.01 21.65828,6.513 37.78173,22.0195 45.25795,43.5262 2.30542,6.632 2.64174,9.1833 2.64915,20.0964 0.007,10.9738 -0.32608,13.503 -2.7316,20.7145 -6.51625,19.5351 -21.9767,35.0503 -41.8409,41.9892 -9.0626,3.1657 -25.87218,4.0641 -35.3346,1.8886 z m 438.57519,-10.611 c -41.08464,-8.6972 -64.54561,-49.2897 -50.63582,-87.6107 9.05377,-24.9429 31.66903,-41.7074 58.15257,-43.108 19.83627,-1.049 35.96913,5.129 50.00527,19.1493 8.98765,8.9775 14.99197,19.5015 18.02218,31.5881 2.20663,8.8016 1.44185,27.0527 -1.47815,35.2753 -9.49221,26.7296 -32.41829,44.0483 -59.86614,45.224 -5.37631,0.2303 -11.76627,0 -14.19991,-0.518 z m -225.0065,-74.0032 c -21.08541,-4.4525 -38.28198,-17.3968 -47.1328,-35.4781 -5.2551,-10.7356 -6.93589,-17.9609 -6.93589,-29.8158 0,-18.9106 5.53289,-32.2494 18.97419,-45.7435 13.39341,-13.446 28.54688,-19.9407 46.52581,-19.9407 17.97893,0 33.1324,6.4947 46.52581,19.9407 13.44335,13.4962 18.98767,26.8613 18.95941,45.7036 -0.0284,18.9109 -5.87289,33.2249 -18.96624,46.4508 -12.45663,12.5827 -26.39042,18.7362 -44.01898,19.4396 -5.225,0.2086 -11.49409,-0.042 -13.93131,-0.5566 z"
         id="path3064"
         inkscape:connector-curvature="0" />
      <path
         style="fill:#78c1f7"
         d="m -4.3825,940.80788 c -0.8002,-2.0855 -0.8105,-174.7791 -0.011,-176.8639 0.5431,-1.4153 6.2688,-1.5818 54.3834,-1.5818 l 53.7763,0 0.603,2.25 c 0.7808,2.9135 0.783,20.5782 0,23.4886 l -0.6,2.2387 -39.6364,0.2613 -39.6363,0.2614 0,21 0,21 39.6363,0.2614 39.6364,0.2613 0.6,2.2387 c 0.7785,2.9046 0.7785,20.5726 0,23.4772 l -0.6,2.2387 -39.6364,0.2613 -39.6363,0.2614 -0.5,40 -0.5,40 -13.6325,0.2775 c -11.7715,0.2395 -13.7167,0.058 -14.25,-1.3318 z m 177.1585,0.096 c -10.8125,-3.0236 -18.5563,-10.2802 -22.4319,-21.0203 -1.6562,-4.5898 -1.8392,-10.0469 -2.1303,-63.5212 -0.2186,-40.17 0.034,-60.5351 0.8058,-64.995 2.4186,-13.9725 10.2681,-23.2124 23.0066,-27.0816 6.328,-1.922 8.8187,-2.0098 48.0738,-1.6939 47.3028,0.3807 46.9732,0.3289 56.3037,8.8565 6.3308,5.786 9.2622,11.9192 10.5927,22.1628 1.2722,9.7949 1.2359,109.3696 -0.043,118.2202 -1.9806,13.7052 -8.8313,23.3125 -19.779,27.7375 -5.575,2.2534 -6.4087,2.2967 -47.6742,2.4748 -32.2128,0.139 -43.1008,-0.1266 -46.724,-1.1398 z m 80.7625,-27.9931 c 2.0446,-0.8543 3.8831,-2.5271 4.4679,-4.0651 0.6136,-1.614 0.9936,-23.2589 0.9936,-56.5981 0,-60.4723 0.1734,-58.9099 -6.7516,-60.8331 -4.9676,-1.3795 -63.5056,-1.3861 -68.4689,-0.01 -7.0903,1.9692 -6.7795,-0.816 -6.7795,60.7438 0,37.6762 0.3444,55.9867 1.0787,57.3589 2.3498,4.3906 5.4982,4.7723 39.7034,4.8138 26.0223,0.032 32.9558,-0.2424 35.7564,-1.4125 z m 102.2375,27.9931 c -10.8075,-3.0222 -18.5398,-10.2649 -22.4415,-21.0203 -1.6895,-4.6573 -1.8431,-10.3846 -2.1192,-79.0212 -0.1637,-40.7 -0.046,-75.0125 0.2626,-76.25 0.5461,-2.1932 0.8975,-2.25 13.9342,-2.25 11.2728,0 13.4693,0.2485 13.9809,1.5818 0.3339,0.87 0.607,33.5246 0.607,72.5657 0,48.9356 0.3356,71.6111 1.0805,73.0029 2.3693,4.4271 5.8473,4.8496 39.9195,4.8496 32.9068,0 37.2454,-0.4541 39.6279,-4.148 0.4797,-0.7436 1.0971,-34.202 1.3721,-74.352 l 0.5,-73 13.4223,-0.2802 c 10.0668,-0.2102 13.6254,0.04 14.2347,1 1.2328,1.9427 1.0299,141.0237 -0.217,148.7802 -2.1575,13.4208 -9.0164,22.8616 -19.7658,27.2065 -5.575,2.2534 -6.4087,2.2967 -47.6742,2.4748 -32.2128,0.139 -43.1008,-0.1266 -46.724,-1.1398 z m 158.8907,0.7918 c -0.8329,-0.8329 -0.8916,-175.5837 -0.06,-177.7515 0.945,-2.4628 22.4362,-2.316 24.6249,0.1682 0.848,0.9625 18.309,26.275 38.8021,56.25 20.4932,29.975 39.3316,57.425 41.8631,61 l 4.6029,6.5 0.5,-62.5 0.5,-62.5 13.4223,-0.2802 c 10.0668,-0.2102 13.6254,0.04 14.2347,1 0.9298,1.4653 1.1607,174.7888 0.236,177.1984 -0.504,1.3134 -2.5261,1.5818 -11.916,1.5818 l -11.3089,0 -2.9101,-3.75 c -1.6005,-2.0625 -21.1008,-30.067 -43.334,-62.2321 l -40.424,-58.4822 -0.5191,61.9822 c -0.2855,34.0901 -0.623,62.0946 -0.75,62.2321 -0.5427,0.5875 -26.9593,0.1882 -27.5642,-0.4167 z m 183,0 c -0.8329,-0.8329 -0.8916,-175.5837 -0.06,-177.7515 0.5431,-1.4152 6.2606,-1.5818 54.2899,-1.5818 45.1571,0 54.6295,0.2452 59.643,1.5439 13.7417,3.5598 21.9336,13.1134 24.4001,28.4561 0.6352,3.9516 1.041,27.8676 1.0351,61 -0.011,59.474 -0.309,63.3309 -5.6585,73.1597 -3.5165,6.461 -9.8366,11.3028 -18.0751,13.8474 -5.9574,1.8401 -9.3218,1.9929 -43.8751,1.9929 l -37.4228,0 0.2782,-13.75 0.2782,-13.75 34.5,-0.5 c 35.9155,-0.5205 37.7226,-0.7446 39.9771,-4.9572 1.6106,-3.0094 1.3557,-110.8258 -0.2696,-114.0428 -2.3572,-4.6656 -5.9287,-5.0472 -44.5745,-4.7625 l -35.633,0.2625 -0.5158,75.5 c -0.2837,41.525 -0.6212,75.6125 -0.75,75.75 -0.5503,0.5875 -26.9626,0.1883 -27.5675,-0.4167 z m 183.7824,-0.6053 c -0.4888,-1.2738 67.8635,-175.1232 69.779,-177.478 0.7043,-0.8659 4.4788,-1.25 12.2818,-1.25 l 11.2651,0 2.601,6.25 c 7.6799,18.4543 67.4816,169.5549 67.7763,171.25 0.3349,1.9266 -0.2031,2 -14.6523,2 l -15,0 -7.5,-18.5 c -4.125,-10.175 -7.8641,-19.0625 -8.309,-19.75 -0.6185,-0.9557 -8.1016,-1.25 -31.7814,-1.25 -25.2018,0 -31.0697,-0.2536 -31.4946,-1.3609 -0.6798,-1.7715 8.3939,-24.7593 10.4162,-26.3891 1.1239,-0.9057 7.0067,-1.25 21.3599,-1.25 10.8949,0 19.8089,-0.2497 19.8089,-0.555 0,-1.6387 -24.4165,-63.445 -25.0639,-63.445 -0.8283,0 -1.0723,0.6146 -31.1644,78.5 -11.05,28.6 -20.5242,52.5625 -21.0537,53.25 -1.3837,1.7963 -28.579,1.7759 -29.2689,-0.022 z m 235.2452,0.633 c -0.3818,-0.3819 -0.6943,-34.3212 -0.6943,-75.4207 0,-67.2181 -0.1589,-74.7873 -1.5818,-75.3333 -0.87,-0.3339 -12.0718,-0.607 -24.893,-0.607 -20.3343,0 -23.3887,-0.202 -23.9182,-1.5818 -0.8966,-2.3366 -0.7081,-23.7107 0.222,-25.1758 0.6303,-0.9928 14.0477,-1.2033 63.7347,-1 l 62.9363,0.2576 0,13.5 0,13.5 -24,0.5457 c -13.2,0.3001 -24.1097,0.6376 -24.2437,0.75 -0.134,0.1123 -0.359,34.0668 -0.5,75.4543 l -0.2563,75.25 -13.0557,0.2777 c -7.1806,0.1527 -13.3681,-0.035 -13.75,-0.4167 z m 114.7662,-0.611 c -0.2621,-0.6875 -0.3605,-41.075 -0.2186,-89.75 l 0.2581,-88.5 13.5,0 13.5,0 0.2553,89.75 0.2554,89.75 -13.5367,0 c -9.9085,0 -13.6645,-0.335 -14.0135,-1.25 z m 97.2854,0.1895 c -12.9543,-3.14 -21.7905,-12.3767 -24.6227,-25.7387 -1.7258,-8.1425 -1.5176,-119.8923 0.2373,-127.3482 2.5748,-10.9393 8.2498,-17.8695 18.6395,-22.7624 l 5.5,-2.5902 44,0 44,0 6.1261,2.831 c 7.5908,3.5078 12.434,8.3803 16.0716,16.169 l 2.8023,6 0,64 c 0,74.3198 0.4103,70.8102 -9.4101,80.4901 -9.7125,9.5735 -8.9247,9.4413 -57.5899,9.6657 -23.1,0.1065 -43.6893,-0.2158 -45.7541,-0.7163 z m 79.846,-28.5501 c 2.4604,-1.1676 3.687,-2.6118 4.4587,-5.25 0.712,-2.4343 0.9627,-21.4308 0.757,-57.3674 l -0.3076,-53.7279 -2.7727,-2.7721 -2.7728,-2.772 -35.4545,0 -35.4545,0 -2.7728,2.7727 -2.7727,2.7728 0,55.8967 0,55.8967 2.3743,2.5273 c 1.3058,1.39 3.3308,2.715 4.5,2.9444 1.1691,0.2293 16.6827,0.4783 34.4746,0.5532 27.8622,0.1173 32.8196,-0.087 35.743,-1.4744 z m 77.8798,28.3898 c -0.2683,-0.7036 -0.3717,-41.1042 -0.2298,-89.7792 l 0.2581,-88.5 11.8945,0 11.8946,0 42.6054,62.2288 c 23.433,34.2258 42.9396,62.2383 43.3479,62.25 0.4084,0.012 0.8584,-27.9913 1,-62.2288 l 0.2576,-62.25 14,0 14,0 0,89.5 0,89.5 -12.0981,0.2796 -12.0981,0.2795 -42.9019,-61.9796 c -23.596,-34.0888 -43.2358,-61.6456 -43.644,-61.2374 -0.4082,0.4082 -0.8583,28.1733 -1.0001,61.7001 l -0.2578,60.9578 -13.2702,0.2792 c -10.0633,0.2117 -13.3881,-0.03 -13.7581,-1 z M -522,937.79118 c -18.42819,-4.8227 -34.26318,-17.7398 -42.31495,-34.5176 -5.33493,-11.1166 -6.68505,-16.9332 -6.68505,-28.8007 0,-40.5019 36.22825,-70.8786 76,-63.7245 20.21712,3.6367 37.74084,16.806 46.37543,34.8518 5.49269,11.4794 6.97612,17.7479 6.92488,29.262 -0.0816,18.3338 -5.95136,32.1955 -19.27755,45.5247 -9.41805,9.4202 -17.14732,13.924 -29.43001,17.1487 -8.43371,2.2142 -23.63872,2.3372 -31.59275,0.2556 z m 225.5,-93.907 c -24.54748,-4.55 -44.66126,-23.2786 -51.03662,-47.522 -2.23975,-8.517 -2.29574,-23.4983 -0.11958,-32 6.1027,-23.8417 26.64121,-43.3992 50.46072,-48.0506 8.59699,-1.6787 24.99459,-0.7058 32.47078,1.9267 16.85859,5.9362 30.39406,17.5251 37.55922,32.1577 5.39023,11.008 7.16885,18.3273 7.1507,29.4263 -0.0424,25.9249 -13.15351,46.9932 -36.48629,58.6298 -12.58984,6.2789 -25.77212,8.0691 -39.99893,5.4321 z m -433,-3.6212 c -20.41944,-2.911 -39.25869,-16.6551 -48.43286,-35.3341 -17.35592,-35.3374 -0.68262,-76.3885 36.69131,-90.3371 9.04342,-3.3752 26.6483,-4.2577 36.26734,-1.8181 40.95542,10.3874 61.59105,54.5125 43.06627,92.0885 -9.08726,18.4328 -26.46796,31.3815 -47.09206,35.0839 -8.38658,1.5055 -11.79286,1.5581 -20.5,0.3169 z M -3.7521,675.53658 c -0.9982,-0.6338 -1.2009,-48.8426 -1,-237.7347 l 0.2521,-236.9397 30.4502,0 30.4501,0 115.3211,168.4856 c 63.4266,92.667 115.9866,169.1509 116.7999,169.9642 1.3049,1.305 1.4787,-18.381 1.4787,-167.5355 0,-130.1222 0.2761,-169.2904 1.2,-170.2143 1.7186,-1.7186 67.8814,-1.7186 69.6,0 0.9265,0.9265 1.2,54.9255 1.2,236.9648 0,232.0703 -0.03,235.7811 -1.9343,236.8 -1.1963,0.6403 -12.2379,1.0352 -28.9442,1.0352 -26.6127,0 -27.0463,-0.033 -29.477,-2.25 -1.3568,-1.2375 -54.5401,-77.5031 -118.1851,-169.4791 C 119.8145,412.65708 67.3495,337.64618 66.8707,337.94208 66.382,338.24408 66,412.33728 66,506.80458 l 0,168.3243 -2.25,0.603 c -3.3757,0.9047 -66.0553,0.7233 -67.5021,-0.1953 z m 508.5586,-0.2188 c -16.2476,-1.1519 -31.0074,-4.8908 -43.6964,-11.069 -8.9074,-4.3369 -11.6324,-6.295 -19.0979,-13.7227 -15.6492,-15.57 -23.1732,-33.2488 -25.9694,-61.0199 -1.5869,-15.7593 -1.4367,-386.3501 0.1572,-387.944 1.8408,-1.8408 68.134,-1.7074 69.6674,0.1402 0.8058,0.9709 1.184,53.9457 1.3724,192.25 l 0.2602,190.9098 2.1031,4.5 c 2.7839,5.9568 6.708,9.7349 13.3969,12.8986 l 5.5,2.6014 90.5,0 90.5,0 5.2877,-2.3894 c 5.9927,-2.7079 12.1215,-9.0621 14.2597,-14.7841 1.2148,-3.251 1.5067,-32.6298 1.9412,-195.3265 l 0.5114,-191.5 35,0 35,0 0.2901,193.5 c 0.2062,137.5219 -0.03,195.8143 -0.8174,201.5 -3.897,28.1491 -15.1281,49.0038 -33.3449,61.9172 -8.0613,5.7144 -14.3252,8.7815 -24.4562,11.9747 -18.8494,5.9411 -18.5235,5.9239 -116.6716,6.1684 -49.5,0.1234 -95.2621,-0.1488 -101.6935,-0.6047 z m 420.6831,-0.037 c -44.6726,-3.2307 -72.2608,-22.7997 -83.7669,-59.4181 -5.4226,-17.2573 -5.2227,-8.8559 -5.2227,-219.5 l 0,-195.5 35,0 35,0 0.5,191 c 0.4838,184.8269 0.5616,191.1594 2.4062,195.9325 2.5849,6.6888 8.9316,12.8332 15.6841,15.1841 5.1412,1.7899 9.8275,1.8834 94.4097,1.8834 84.5822,0 89.2685,-0.093 94.4097,-1.8834 6.7525,-2.3509 13.0992,-8.4953 15.6841,-15.1841 1.8446,-4.7731 1.9224,-11.1056 2.4062,-195.9325 l 0.5,-191 35,0 35,0 0.298,190 c 0.2032,129.5513 -0.042,193.3848 -0.7701,200.639 -3.854,38.3894 -21.4462,64.3539 -51.4685,75.9625 -11.1383,4.3069 -23.1839,6.7268 -39.249,7.8852 -16.1508,1.1645 -169.5528,1.1079 -185.8208,-0.069 z m 421.5104,0.091 c -30.4575,-2.2222 -52.0806,-11.2051 -67.1422,-27.8929 -13.9749,-15.4836 -20.8784,-34.7425 -22.9102,-63.9132 -1.5224,-21.8581 -0.6918,-295.0342 0.925,-304.2033 4.0025,-22.699 11.0433,-38.4927 22.6696,-50.8515 12.3986,-13.1797 25.8127,-20.2329 48.1454,-25.3148 l 9.8124,-2.2328 127.8501,-0.3399 c 96.069,-0.2553 128.198,-0.051 129.25,0.8221 2.0141,1.6716 2.0814,67.1064 0.071,68.7752 -0.9492,0.7877 -36.4743,1.1801 -124.25,1.3724 -122.2605,0.2679 -122.945,0.2805 -127.432,2.3574 -5.7468,2.6601 -10.7406,7.6539 -13.4007,13.4007 -2.0823,4.4987 -2.0889,4.91 -2.3857,148.0112 -0.2704,130.3732 -0.1477,144.065 1.3412,149.6765 1.8842,7.1018 6.6522,13.3624 12.4163,16.303 7.6658,3.9108 13.3518,4.1224 102.5622,3.816 l 86.0221,-0.2955 6.7684,-3.3326 c 4.7666,-2.3469 7.516,-4.4624 9.2965,-7.1529 5.3613,-8.1015 5.3909,-8.5059 5.3909,-73.6527 l 0,-60.3204 -20.25,-0.2707 -20.25,-0.2707 0,-35 0,-35 56,0 56,0 0,100.5 c 0,92.2951 -0.1458,101.2724 -1.7863,109.9609 -8.2319,43.5984 -31.8984,66.4684 -76.7137,74.1319 -7.6951,1.3158 -181.5003,2.1205 -198,0.9166 z m -2171.53813,-45.4831 c -13.219,-2.8777 -27.75187,-11.8697 -35.95419,-22.2461 -10.59032,-13.3974 -15.11124,-27.5649 -14.2465,-44.6454 0.86393,-17.0644 6.53322,-30.1418 18.23882,-42.0717 7.32615,-7.4665 15.44927,-12.5233 26.0096,-16.1916 7.01582,-2.437 9.45402,-2.7752 19.9904,-2.7725 13.5156,0 17.54275,0.8898 29.00955,6.3861 24.26231,11.6293 39.3941,39.7301 35.55015,66.019 -2.37331,16.2312 -7.63585,26.751 -19.06779,38.1163 -15.64363,15.5526 -38.00706,22.0914 -59.53004,17.4059 z M -206,629.29498 c -22.42484,-5.8517 -38.76564,-21.2247 -46.16707,-43.4328 -1.94615,-5.8395 -2.33293,-9.0724 -2.33293,-19.5 0,-10.4276 0.38678,-13.6605 2.33293,-19.5 6.99704,-20.9948 23.08854,-36.6499 44.16707,-42.9695 8.38415,-2.5136 22.10948,-3.0223 31,-1.1488 18.87611,3.9776 36.68502,17.7579 44.81149,34.6745 9.32741,19.4166 9.32201,38.4539 -0.0164,57.9438 -5.25778,10.9733 -16.64066,22.6999 -27.49457,28.3249 -14.55531,7.5432 -31.1714,9.5557 -46.30048,5.6079 z m -525,-220.5548 c -32.61936,-6.2473 -55.68163,-35.435 -53.63283,-67.878 1.09173,-17.2877 6.68011,-29.6138 19.08595,-42.0972 13.65113,-13.7365 30.62977,-20.2507 49.54688,-19.0097 16.84293,1.1049 29.25061,6.7902 41.59721,19.06 13.74743,13.662 20.15537,30.1737 19.08885,49.1875 -1.50328,26.8004 -19.17783,49.8889 -44.68606,58.3739 -6.40251,2.1297 -24.86921,3.5377 -31,2.3635 z m 435.20495,-11.4257 c -13.56949,-2.4316 -28.64618,-10.9205 -37.63332,-21.1895 -5.68668,-6.4978 -11.83276,-18.138 -14.13086,-26.7628 -2.25255,-8.4538 -2.29782,-23.4013 -0.0969,-32 4.32141,-16.8833 17.41712,-33.6132 32.35566,-41.3347 26.01608,-13.4473 55.93564,-9.0029 76.39493,11.3481 8.32683,8.2828 14.53203,19.1434 17.39561,30.4467 3.26465,12.8864 1.12911,32.4643 -4.82225,44.2087 -8.09794,15.9805 -23.22553,28.5352 -40.66781,33.751 -6.75039,2.0186 -21.65569,2.8119 -28.79505,1.5325 z m -224.88261,-73.9842 c -22.83742,-4.1056 -41.71161,-20.2075 -50.0828,-42.7265 -3.07288,-8.2663 -4.16643,-24.8272 -2.278,-34.4986 3.54292,-18.1446 16.52911,-35.4982 33.06795,-44.1892 35.03819,-18.412 78.45606,-1.4924 91.79024,35.7701 3.36558,9.4051 4.21582,27.0077 1.77558,36.7598 -7.0536,28.1888 -31.50789,48.331 -60.04606,49.4579 -4.97709,0.1965 -11.3792,-0.062 -14.22691,-0.5735 z"
         id="path3062"
         inkscape:connector-curvature="0" />
      <path
         style="fill:#57b2f6"
         d="m -4.3825,940.80788 c -0.8002,-2.0855 -0.8105,-174.7791 -0.011,-176.8639 0.5431,-1.4153 6.2688,-1.5818 54.3834,-1.5818 l 53.7763,0 0.603,2.25 c 0.7808,2.9135 0.783,20.5782 0,23.4886 l -0.6,2.2387 -39.6364,0.2613 -39.6363,0.2614 0,21 0,21 39.6363,0.2614 39.6364,0.2613 0.6,2.2387 c 0.7785,2.9046 0.7785,20.5726 0,23.4772 l -0.6,2.2387 -39.6364,0.2613 -39.6363,0.2614 -0.5,40 -0.5,40 -13.6325,0.2775 c -11.7715,0.2395 -13.7167,0.058 -14.25,-1.3318 z m 177.1585,0.096 c -10.8125,-3.0236 -18.5563,-10.2802 -22.4319,-21.0203 -1.6562,-4.5898 -1.8392,-10.0469 -2.1303,-63.5212 -0.2186,-40.17 0.034,-60.5351 0.8058,-64.995 2.4186,-13.9725 10.2681,-23.2124 23.0066,-27.0816 6.328,-1.922 8.8187,-2.0098 48.0738,-1.6939 47.3028,0.3807 46.9732,0.3289 56.3037,8.8565 6.3308,5.786 9.2622,11.9192 10.5927,22.1628 1.2722,9.7949 1.2359,109.3696 -0.043,118.2202 -1.9806,13.7052 -8.8313,23.3125 -19.779,27.7375 -5.575,2.2534 -6.4087,2.2967 -47.6742,2.4748 -32.2128,0.139 -43.1008,-0.1266 -46.724,-1.1398 z m 80.7625,-27.9931 c 2.0446,-0.8543 3.8831,-2.5271 4.4679,-4.0651 0.6136,-1.614 0.9936,-23.2589 0.9936,-56.5981 0,-60.4723 0.1734,-58.9099 -6.7516,-60.8331 -4.9676,-1.3795 -63.5056,-1.3861 -68.4689,-0.01 -7.0903,1.9692 -6.7795,-0.816 -6.7795,60.7438 0,37.6762 0.3444,55.9867 1.0787,57.3589 2.3498,4.3906 5.4982,4.7723 39.7034,4.8138 26.0223,0.032 32.9558,-0.2424 35.7564,-1.4125 z m 102.2375,27.9931 c -10.8075,-3.0222 -18.5398,-10.2649 -22.4415,-21.0203 -1.6895,-4.6573 -1.8431,-10.3846 -2.1192,-79.0212 -0.1637,-40.7 -0.046,-75.0125 0.2626,-76.25 0.5461,-2.1932 0.8975,-2.25 13.9342,-2.25 11.2728,0 13.4693,0.2485 13.9809,1.5818 0.3339,0.87 0.607,33.5246 0.607,72.5657 0,48.9356 0.3356,71.6111 1.0805,73.0029 2.3693,4.4271 5.8473,4.8496 39.9195,4.8496 32.9068,0 37.2454,-0.4541 39.6279,-4.148 0.4797,-0.7436 1.0971,-34.202 1.3721,-74.352 l 0.5,-73 13.4223,-0.2802 c 10.0668,-0.2102 13.6254,0.04 14.2347,1 1.2328,1.9427 1.0299,141.0237 -0.217,148.7802 -2.1575,13.4208 -9.0164,22.8616 -19.7658,27.2065 -5.575,2.2534 -6.4087,2.2967 -47.6742,2.4748 -32.2128,0.139 -43.1008,-0.1266 -46.724,-1.1398 z m 158.8907,0.7918 c -0.8329,-0.8329 -0.8916,-175.5837 -0.06,-177.7515 0.945,-2.4628 22.4362,-2.316 24.6249,0.1682 0.848,0.9625 18.309,26.275 38.8021,56.25 20.4932,29.975 39.3316,57.425 41.8631,61 l 4.6029,6.5 0.5,-62.5 0.5,-62.5 13.4223,-0.2802 c 10.0668,-0.2102 13.6254,0.04 14.2347,1 0.9298,1.4653 1.1607,174.7888 0.236,177.1984 -0.504,1.3134 -2.5261,1.5818 -11.916,1.5818 l -11.3089,0 -2.9101,-3.75 c -1.6005,-2.0625 -21.1008,-30.067 -43.334,-62.2321 l -40.424,-58.4822 -0.5191,61.9822 c -0.2855,34.0901 -0.623,62.0946 -0.75,62.2321 -0.5427,0.5875 -26.9593,0.1882 -27.5642,-0.4167 z m 183,0 c -0.8329,-0.8329 -0.8916,-175.5837 -0.06,-177.7515 0.5431,-1.4152 6.2606,-1.5818 54.2899,-1.5818 45.1571,0 54.6295,0.2452 59.643,1.5439 13.7417,3.5598 21.9336,13.1134 24.4001,28.4561 0.6352,3.9516 1.041,27.8676 1.0351,61 -0.011,59.474 -0.309,63.3309 -5.6585,73.1597 -3.5165,6.461 -9.8366,11.3028 -18.0751,13.8474 -5.9574,1.8401 -9.3218,1.9929 -43.8751,1.9929 l -37.4228,0 0.2782,-13.75 0.2782,-13.75 34.5,-0.5 c 35.9155,-0.5205 37.7226,-0.7446 39.9771,-4.9572 1.6106,-3.0094 1.3557,-110.8258 -0.2696,-114.0428 -2.3572,-4.6656 -5.9287,-5.0472 -44.5745,-4.7625 l -35.633,0.2625 -0.5158,75.5 c -0.2837,41.525 -0.6212,75.6125 -0.75,75.75 -0.5503,0.5875 -26.9626,0.1883 -27.5675,-0.4167 z m 183.7824,-0.6053 c -0.4888,-1.2738 67.8635,-175.1232 69.779,-177.478 0.7043,-0.8659 4.4788,-1.25 12.2818,-1.25 l 11.2651,0 2.601,6.25 c 7.6799,18.4543 67.4816,169.5549 67.7763,171.25 0.3349,1.9266 -0.2031,2 -14.6523,2 l -15,0 -7.5,-18.5 c -4.125,-10.175 -7.8641,-19.0625 -8.309,-19.75 -0.6185,-0.9557 -8.1016,-1.25 -31.7814,-1.25 -25.2018,0 -31.0697,-0.2536 -31.4946,-1.3609 -0.6798,-1.7715 8.3939,-24.7593 10.4162,-26.3891 1.1239,-0.9057 7.0067,-1.25 21.3599,-1.25 10.8949,0 19.8089,-0.2497 19.8089,-0.555 0,-1.6387 -24.4165,-63.445 -25.0639,-63.445 -0.8283,0 -1.0723,0.6146 -31.1644,78.5 -11.05,28.6 -20.5242,52.5625 -21.0537,53.25 -1.3837,1.7963 -28.579,1.7759 -29.2689,-0.022 z m 235.2452,0.633 c -0.3818,-0.3819 -0.6943,-34.3212 -0.6943,-75.4207 0,-67.2181 -0.1589,-74.7873 -1.5818,-75.3333 -0.87,-0.3339 -12.0718,-0.607 -24.893,-0.607 -20.3343,0 -23.3887,-0.202 -23.9182,-1.5818 -0.8966,-2.3366 -0.7081,-23.7107 0.222,-25.1758 0.6303,-0.9928 14.0477,-1.2033 63.7347,-1 l 62.9363,0.2576 0,13.5 0,13.5 -24,0.5457 c -13.2,0.3001 -24.1097,0.6376 -24.2437,0.75 -0.134,0.1123 -0.359,34.0668 -0.5,75.4543 l -0.2563,75.25 -13.0557,0.2777 c -7.1806,0.1527 -13.3681,-0.035 -13.75,-0.4167 z m 114.7662,-0.611 c -0.2621,-0.6875 -0.3605,-41.075 -0.2186,-89.75 l 0.2581,-88.5 13.5,0 13.5,0 0.2553,89.75 0.2554,89.75 -13.5367,0 c -9.9085,0 -13.6645,-0.335 -14.0135,-1.25 z m 97.2854,0.1895 c -12.9543,-3.14 -21.7905,-12.3767 -24.6227,-25.7387 -1.7258,-8.1425 -1.5176,-119.8923 0.2373,-127.3482 2.5748,-10.9393 8.2498,-17.8695 18.6395,-22.7624 l 5.5,-2.5902 44,0 44,0 6.1261,2.831 c 7.5908,3.5078 12.434,8.3803 16.0716,16.169 l 2.8023,6 0,64 c 0,74.3198 0.4103,70.8102 -9.4101,80.4901 -9.7125,9.5735 -8.9247,9.4413 -57.5899,9.6657 -23.1,0.1065 -43.6893,-0.2158 -45.7541,-0.7163 z m 79.846,-28.5501 c 2.4604,-1.1676 3.687,-2.6118 4.4587,-5.25 0.712,-2.4343 0.9627,-21.4308 0.757,-57.3674 l -0.3076,-53.7279 -2.7727,-2.7721 -2.7728,-2.772 -35.4545,0 -35.4545,0 -2.7728,2.7727 -2.7727,2.7728 0,55.8967 0,55.8967 2.3743,2.5273 c 1.3058,1.39 3.3308,2.715 4.5,2.9444 1.1691,0.2293 16.6827,0.4783 34.4746,0.5532 27.8622,0.1173 32.8196,-0.087 35.743,-1.4744 z m 77.8798,28.3898 c -0.2683,-0.7036 -0.3717,-41.1042 -0.2298,-89.7792 l 0.2581,-88.5 11.8945,0 11.8946,0 42.6054,62.2288 c 23.433,34.2258 42.9396,62.2383 43.3479,62.25 0.4084,0.012 0.8584,-27.9913 1,-62.2288 l 0.2576,-62.25 14,0 14,0 0,89.5 0,89.5 -12.0981,0.2796 -12.0981,0.2795 -42.9019,-61.9796 c -23.596,-34.0888 -43.2358,-61.6456 -43.644,-61.2374 -0.4082,0.4082 -0.8583,28.1733 -1.0001,61.7001 l -0.2578,60.9578 -13.2702,0.2792 c -10.0633,0.2117 -13.3881,-0.03 -13.7581,-1 z M -519.5,937.79538 c -22.23024,-4.3787 -42.26583,-23.1131 -49.12373,-45.9332 -1.29952,-4.3242 -1.79248,-9.2119 -1.76503,-17.5 0.0323,-9.7471 0.45081,-12.7521 2.74572,-19.7145 8.77054,-26.6084 33.3561,-44.2855 61.5929,-44.2855 40.79555,0 71.41614,38.4065 62.42879,78.3026 -4.45811,19.7901 -16.53494,34.9682 -34.87865,43.8351 -13.2004,6.3807 -26.663,8.1196 -41,5.2955 z m 219.5,-95.0042 c -23.671,-6.1948 -42.29933,-25.4084 -47.56006,-49.0544 -3.38349,-15.2081 -0.38212,-33.4817 7.73947,-47.121 11.55045,-19.3978 36.59079,-32.5631 58.65435,-30.8383 17.38147,1.3588 29.56031,6.9105 41.76345,19.0378 6.38047,6.3408 8.98239,9.849 12.27226,16.5469 21.39974,43.5678 -9.77831,93.2853 -58.27943,92.9342 -4.99952,-0.036 -11.56504,-0.7135 -14.59004,-1.5052 z m -432.5,-3.3832 c -2.2,-0.4757 -7.05103,-2.0156 -10.78007,-3.4219 -18.8558,-7.1109 -34.05803,-24.3915 -39.25691,-44.6239 -2.47988,-9.6509 -1.65029,-27.0788 1.74584,-36.6761 7.44153,-21.0296 26.16951,-37.3224 47.99898,-41.7578 9.60808,-1.9522 15.48931,-1.973 25.33223,-0.09 21.71501,4.1548 40.65996,20.5399 48.23423,41.7169 3.41569,9.55 4.27859,27.0799 1.81592,36.8905 -2.92701,11.6605 -8.07324,20.5888 -16.99664,29.4878 -13.43356,13.3968 -24.70358,18.3585 -43.09358,18.9722 -6.05,0.2019 -12.8,-0.022 -15,-0.4979 z M -4.5377,674.11218 c -0.2611,-0.6875 -0.3595,-107.225 -0.2186,-236.75 l 0.2563,-235.5 30.2603,-0.2647 30.2602,-0.2647 2.9942,4.2647 c 1.6469,2.3456 53.9563,78.7397 116.2433,169.7647 62.287,91.025 113.6975,165.5 114.2455,165.5 0.6571,0 1.0826,-57.8214 1.2494,-169.75 l 0.2529,-169.75 34.9992,0 34.9992,0 -0.2521,236.75 -0.2521,236.75 -28.6634,0.2652 c -22.9085,0.2119 -28.9317,0 -30,-1.0757 -0.7351,-0.7375 -53.7267,-77.0193 -117.7591,-169.5152 -64.0324,-92.4959 -116.7949,-168.1743 -117.25,-168.1743 -0.4551,0 -0.8275,75.5632 -0.8275,167.9182 0,92.355 -0.2731,168.63 -0.607,169.5 -0.5372,1.4 -4.5633,1.5818 -35.0314,1.5818 -26.6196,0 -34.532,-0.2834 -34.8993,-1.25 z m 501.7414,0.077 c -19.5413,-2.4512 -39.13,-10.0959 -50.9582,-19.8869 -15.6375,-12.9442 -25.9994,-34.2105 -29.1927,-59.9136 -0.704,-5.6664 -1.0528,-72.1735 -1.0528,-200.75 l 0,-192.2762 35,0 35,0 0,187.9508 c 0,135.2331 0.315,189.4371 1.1232,193.25 1.5104,7.1259 4.0343,11.8523 8.3551,15.646 8.1131,7.1234 0.8327,6.6532 103.0217,6.6532 l 92,0 5.2573,-2.3763 c 5.6969,-2.5749 10.5486,-7.402 13.1178,-13.051 1.4761,-3.2456 1.6707,-21.1513 2.1249,-195.5727 l 0.5,-192 35,0 35,0 0.298,189 c 0.205,130.0318 -0.039,192.3523 -0.7811,199.7444 -5.0768,50.5483 -32.1711,78.0912 -82.32,83.6831 -11.9024,1.3272 -190.8225,1.2377 -201.4932,-0.1008 z M 915.5,673.79758 c -45.4338,-6.1738 -70.3233,-31.0474 -77.6885,-77.6386 -1.0488,-6.6348 -1.3115,-46.9523 -1.3115,-201.2965 l 0,-193 35,0 35,0 0.5,191.5 0.5,191.5 2.0881,4.5112 c 2.6601,5.7468 7.6539,10.7406 13.4007,13.4007 4.4545,2.0618 5.6417,2.0915 94.4335,2.359 98.6891,0.2973 95.8273,0.4529 104.2823,-5.6719 2.644,-1.9153 5.0821,-5.0001 6.9362,-8.7762 l 2.8592,-5.8228 0.5,-191.5 0.5,-191.5 34.7277,-0.2629 34.7277,-0.263 0.5654,2.263 c 0.311,1.2446 0.4002,89.1129 0.1984,195.2629 -0.3351,176.2336 -0.5138,193.7384 -2.0565,201.5 -7.7264,38.8734 -26.1055,60.1227 -60.6627,70.1365 -15.7761,4.5715 -23.4099,4.8698 -121.8012,4.7605 -72.0748,-0.08 -94.9236,-0.4054 -102.6988,-1.4619 z m 424.1088,0.5024 c -44.5108,-5.1647 -70.1695,-27.5238 -79.763,-69.5056 l -2.2696,-9.9319 -0.3161,-150.9249 c -0.2746,-131.1286 -0.1149,-152.4718 1.2182,-162.7182 5.9669,-45.8652 30.8661,-71.3709 76.5217,-78.3855 7.9478,-1.2211 30.0466,-1.4606 135.25,-1.4655 l 125.75,-0.006 0,34.4698 0,34.4698 -122.75,0.2802 -122.75,0.2802 -5.4292,2.222 c -7.106,2.9083 -12.5877,8.3709 -15.0772,15.0247 -1.9576,5.2322 -1.9936,7.932 -1.9936,149.6093 0,159.5144 -0.3727,150.3437 6.434,158.2958 1.9616,2.2917 5.7878,5.1077 8.7725,6.4563 l 5.2935,2.3919 92,0 c 85.9831,0 92.2467,-0.1159 95.7723,-1.7727 5.8186,-2.7344 11.2496,-8.2154 13.8582,-13.9857 l 2.3695,-5.2416 0.2993,-61.0866 c 0.2493,-50.8813 0.07,-61.2773 -1.0757,-62.2278 -0.899,-0.7461 -8.0996,-1.2354 -20.7993,-1.4134 l -19.4243,-0.2722 0,-34 0,-34 55.7288,-0.2584 55.7289,-0.2584 0.5847,2.3295 c 0.3215,1.2813 0.3993,45.4975 0.1729,98.2584 -0.4332,100.9144 -0.5396,103.3937 -5.1966,121.0578 -9.6768,36.7041 -36.0214,57.5261 -78.8218,62.2986 -11.2826,1.2581 -189.2552,1.267 -200.0881,0.01 z m -2158.91163,-44.0557 c -20.43543,-2.6575 -39.39798,-16.4105 -48.52894,-35.1967 -5.29699,-10.8981 -6.67074,-17.1294 -6.54448,-29.6854 0.0848,-8.4316 0.62587,-12.1017 2.74669,-18.6305 6.23551,-19.1959 21.51748,-34.7911 40.62956,-41.4625 8.78896,-3.068 26.84215,-3.817 36.08372,-1.4972 14.97742,3.7596 29.89542,14.319 38.46112,27.2237 12.1651,18.3275 13.74259,43.9925 3.92523,63.8613 -12.22819,24.748 -39.09525,38.9866 -66.7729,35.3873 z M -198,630.32068 c -18.3111,-2.1304 -35.2355,-12.5185 -45.46532,-27.9063 -21.45653,-32.2753 -10.58405,-75.277 23.51885,-93.0192 10.96377,-5.704 18.87118,-7.3298 32.94647,-6.7738 9.0477,0.3574 12.93759,0.9908 18.24155,2.9704 19.05334,7.111 33.99446,22.3789 39.89778,40.7704 2.94236,9.1667 3.60229,24.569 1.46442,34.1783 -7.15292,32.151 -37.60226,53.6197 -70.60375,49.7802 z m -531.79504,-222.1075 c -13.74806,-1.9702 -28.84345,-10.1325 -38.19592,-20.6531 -5.9236,-6.6635 -12.32199,-18.9936 -14.61919,-28.1721 -2.41438,-9.6467 -1.52075,-27.2634 1.83971,-36.2674 7.03072,-18.838 20.4254,-32.2586 39.52889,-39.6054 6.13931,-2.3611 8.03687,-2.5927 21.24155,-2.5927 13.20468,0 15.10224,0.2316 21.24155,2.5927 19.10093,7.3458 32.48512,20.7543 39.53344,39.6054 3.40575,9.1089 4.26669,27.5224 1.74126,37.2416 -6.58688,25.3498 -27.90786,44.3054 -53.90056,47.9206 -8.67344,1.2064 -9.52955,1.2032 -18.41073,-0.07 z M -300,395.85488 c -29.92956,-7.2954 -50.53873,-35.3934 -48.70647,-66.4049 1.40554,-23.7892 14.28858,-43.2761 35.78402,-54.1269 8.50725,-4.2945 17.22941,-6.2785 27.92245,-6.3516 11.5825,-0.079 17.91974,1.37 29,6.6319 11.84783,5.6263 22.92943,16.6654 28.86947,28.7588 15.76527,32.0966 3.06429,70.6224 -28.36947,86.053 -4.4,2.1599 -10.68204,4.6066 -13.9601,5.4371 -7.28085,1.8445 -22.978,1.8459 -30.5399,0 z m -225.34361,-74.0741 c -20.70156,-5.0119 -39.9029,-23.516 -46.09228,-44.4186 -2.52461,-8.526 -3.04561,-22.1708 -1.18366,-31 4.01042,-19.0172 17.72928,-36.7494 34.61955,-44.7472 19.75542,-9.3545 37.58212,-9.3714 57,-0.054 6.81283,3.2691 10.10101,5.6887 16.5659,12.1898 8.9106,8.9606 12.3539,14.4251 16.10728,25.5619 11.76568,34.9107 -9.9983,74.0769 -45.86147,82.5317 -7.83644,1.8475 -23.39246,1.8156 -31.15532,-0.064 z"
         id="path3060"
         inkscape:connector-curvature="0" />
      <path
         style="fill:#9c9c9c"
         d="m -4.3825,940.80788 c -0.8002,-2.0855 -0.8105,-174.7791 -0.011,-176.8639 0.5431,-1.4153 6.2688,-1.5818 54.3834,-1.5818 l 53.7763,0 0.603,2.25 c 0.7808,2.9135 0.783,20.5782 0,23.4886 l -0.6,2.2387 -39.6364,0.2613 -39.6363,0.2614 0,21 0,21 39.6363,0.2614 39.6364,0.2613 0.6,2.2387 c 0.7785,2.9046 0.7785,20.5726 0,23.4772 l -0.6,2.2387 -39.6364,0.2613 -39.6363,0.2614 -0.5,40 -0.5,40 -13.6325,0.2775 c -11.7715,0.2395 -13.7167,0.058 -14.25,-1.3318 z m 177.1585,0.096 c -10.8125,-3.0236 -18.5563,-10.2802 -22.4319,-21.0203 -1.6562,-4.5898 -1.8392,-10.0469 -2.1303,-63.5212 -0.2186,-40.17 0.034,-60.5351 0.8058,-64.995 2.4186,-13.9725 10.2681,-23.2124 23.0066,-27.0816 6.328,-1.922 8.8187,-2.0098 48.0738,-1.6939 47.3028,0.3807 46.9732,0.3289 56.3037,8.8565 6.3308,5.786 9.2622,11.9192 10.5927,22.1628 1.2722,9.7949 1.2359,109.3696 -0.043,118.2202 -1.9806,13.7052 -8.8313,23.3125 -19.779,27.7375 -5.575,2.2534 -6.4087,2.2967 -47.6742,2.4748 -32.2128,0.139 -43.1008,-0.1266 -46.724,-1.1398 z m 80.7625,-27.9931 c 2.0446,-0.8543 3.8831,-2.5271 4.4679,-4.0651 0.6136,-1.614 0.9936,-23.2589 0.9936,-56.5981 0,-60.4723 0.1734,-58.9099 -6.7516,-60.8331 -4.9676,-1.3795 -63.5056,-1.3861 -68.4689,-0.01 -7.0903,1.9692 -6.7795,-0.816 -6.7795,60.7438 0,37.6762 0.3444,55.9867 1.0787,57.3589 2.3498,4.3906 5.4982,4.7723 39.7034,4.8138 26.0223,0.032 32.9558,-0.2424 35.7564,-1.4125 z m 102.2375,27.9931 c -10.8075,-3.0222 -18.5398,-10.2649 -22.4415,-21.0203 -1.6895,-4.6573 -1.8431,-10.3846 -2.1192,-79.0212 -0.1637,-40.7 -0.046,-75.0125 0.2626,-76.25 0.5461,-2.1932 0.8975,-2.25 13.9342,-2.25 11.2728,0 13.4693,0.2485 13.9809,1.5818 0.3339,0.87 0.607,33.5246 0.607,72.5657 0,48.9356 0.3356,71.6111 1.0805,73.0029 2.3693,4.4271 5.8473,4.8496 39.9195,4.8496 32.9068,0 37.2454,-0.4541 39.6279,-4.148 0.4797,-0.7436 1.0971,-34.202 1.3721,-74.352 l 0.5,-73 13.4223,-0.2802 c 10.0668,-0.2102 13.6254,0.04 14.2347,1 1.2328,1.9427 1.0299,141.0237 -0.217,148.7802 -2.1575,13.4208 -9.0164,22.8616 -19.7658,27.2065 -5.575,2.2534 -6.4087,2.2967 -47.6742,2.4748 -32.2128,0.139 -43.1008,-0.1266 -46.724,-1.1398 z m 158.8907,0.7918 c -0.8329,-0.8329 -0.8916,-175.5837 -0.06,-177.7515 0.945,-2.4628 22.4362,-2.316 24.6249,0.1682 0.848,0.9625 18.309,26.275 38.8021,56.25 20.4932,29.975 39.3316,57.425 41.8631,61 l 4.6029,6.5 0.5,-62.5 0.5,-62.5 13.4223,-0.2802 c 10.0668,-0.2102 13.6254,0.04 14.2347,1 0.9298,1.4653 1.1607,174.7888 0.236,177.1984 -0.504,1.3134 -2.5261,1.5818 -11.916,1.5818 l -11.3089,0 -2.9101,-3.75 c -1.6005,-2.0625 -21.1008,-30.067 -43.334,-62.2321 l -40.424,-58.4822 -0.5191,61.9822 c -0.2855,34.0901 -0.623,62.0946 -0.75,62.2321 -0.5427,0.5875 -26.9593,0.1882 -27.5642,-0.4167 z m 183,0 c -0.8329,-0.8329 -0.8916,-175.5837 -0.06,-177.7515 0.5431,-1.4152 6.2606,-1.5818 54.2899,-1.5818 45.1571,0 54.6295,0.2452 59.643,1.5439 13.7417,3.5598 21.9336,13.1134 24.4001,28.4561 0.6352,3.9516 1.041,27.8676 1.0351,61 -0.011,59.474 -0.309,63.3309 -5.6585,73.1597 -3.5165,6.461 -9.8366,11.3028 -18.0751,13.8474 -5.9574,1.8401 -9.3218,1.9929 -43.8751,1.9929 l -37.4228,0 0.2782,-13.75 0.2782,-13.75 34.5,-0.5 c 35.9155,-0.5205 37.7226,-0.7446 39.9771,-4.9572 1.6106,-3.0094 1.3557,-110.8258 -0.2696,-114.0428 -2.3572,-4.6656 -5.9287,-5.0472 -44.5745,-4.7625 l -35.633,0.2625 -0.5158,75.5 c -0.2837,41.525 -0.6212,75.6125 -0.75,75.75 -0.5503,0.5875 -26.9626,0.1883 -27.5675,-0.4167 z m 183.7824,-0.6053 c -0.4888,-1.2738 67.8635,-175.1232 69.779,-177.478 0.7043,-0.8659 4.4788,-1.25 12.2818,-1.25 l 11.2651,0 2.601,6.25 c 7.6799,18.4543 67.4816,169.5549 67.7763,171.25 0.3349,1.9266 -0.2031,2 -14.6523,2 l -15,0 -7.5,-18.5 c -4.125,-10.175 -7.8641,-19.0625 -8.309,-19.75 -0.6185,-0.9557 -8.1016,-1.25 -31.7814,-1.25 -25.2018,0 -31.0697,-0.2536 -31.4946,-1.3609 -0.6798,-1.7715 8.3939,-24.7593 10.4162,-26.3891 1.1239,-0.9057 7.0067,-1.25 21.3599,-1.25 10.8949,0 19.8089,-0.2497 19.8089,-0.555 0,-1.6387 -24.4165,-63.445 -25.0639,-63.445 -0.8283,0 -1.0723,0.6146 -31.1644,78.5 -11.05,28.6 -20.5242,52.5625 -21.0537,53.25 -1.3837,1.7963 -28.579,1.7759 -29.2689,-0.022 z m 235.2452,0.633 c -0.3818,-0.3819 -0.6943,-34.3212 -0.6943,-75.4207 0,-67.2181 -0.1589,-74.7873 -1.5818,-75.3333 -0.87,-0.3339 -12.0718,-0.607 -24.893,-0.607 -20.3343,0 -23.3887,-0.202 -23.9182,-1.5818 -0.8966,-2.3366 -0.7081,-23.7107 0.222,-25.1758 0.6303,-0.9928 14.0477,-1.2033 63.7347,-1 l 62.9363,0.2576 0,13.5 0,13.5 -24,0.5457 c -13.2,0.3001 -24.1097,0.6376 -24.2437,0.75 -0.134,0.1123 -0.359,34.0668 -0.5,75.4543 l -0.2563,75.25 -13.0557,0.2777 c -7.1806,0.1527 -13.3681,-0.035 -13.75,-0.4167 z m 114.7662,-0.611 c -0.2621,-0.6875 -0.3605,-41.075 -0.2186,-89.75 l 0.2581,-88.5 13.5,0 13.5,0 0.2553,89.75 0.2554,89.75 -13.5367,0 c -9.9085,0 -13.6645,-0.335 -14.0135,-1.25 z m 97.2854,0.1895 c -12.9543,-3.14 -21.7905,-12.3767 -24.6227,-25.7387 -1.7258,-8.1425 -1.5176,-119.8923 0.2373,-127.3482 2.5748,-10.9393 8.2498,-17.8695 18.6395,-22.7624 l 5.5,-2.5902 44,0 44,0 6.1261,2.831 c 7.5908,3.5078 12.434,8.3803 16.0716,16.169 l 2.8023,6 0,64 c 0,74.3198 0.4103,70.8102 -9.4101,80.4901 -9.7125,9.5735 -8.9247,9.4413 -57.5899,9.6657 -23.1,0.1065 -43.6893,-0.2158 -45.7541,-0.7163 z m 79.846,-28.5501 c 2.4604,-1.1676 3.687,-2.6118 4.4587,-5.25 0.712,-2.4343 0.9627,-21.4308 0.757,-57.3674 l -0.3076,-53.7279 -2.7727,-2.7721 -2.7728,-2.772 -35.4545,0 -35.4545,0 -2.7728,2.7727 -2.7727,2.7728 0,55.8967 0,55.8967 2.3743,2.5273 c 1.3058,1.39 3.3308,2.715 4.5,2.9444 1.1691,0.2293 16.6827,0.4783 34.4746,0.5532 27.8622,0.1173 32.8196,-0.087 35.743,-1.4744 z m 77.8798,28.3898 c -0.2683,-0.7036 -0.3717,-41.1042 -0.2298,-89.7792 l 0.2581,-88.5 11.8945,0 11.8946,0 42.6054,62.2288 c 23.433,34.2258 42.9396,62.2383 43.3479,62.25 0.4084,0.012 0.8584,-27.9913 1,-62.2288 l 0.2576,-62.25 14,0 14,0 0,89.5 0,89.5 -12.0981,0.2796 -12.0981,0.2795 -42.9019,-61.9796 c -23.596,-34.0888 -43.2358,-61.6456 -43.644,-61.2374 -0.4082,0.4082 -0.8583,28.1733 -1.0001,61.7001 l -0.2578,60.9578 -13.2702,0.2792 c -10.0633,0.2117 -13.3881,-0.03 -13.7581,-1 z M -515.5,937.73168 c -19.97171,-3.0952 -38.71285,-16.6923 -47.37221,-34.3695 -6.90896,-14.1039 -8.60986,-26.9091 -5.54515,-41.7464 4.94157,-23.9236 22.82243,-42.5054 46.87746,-48.715 7.60218,-1.9625 22.39098,-1.9766 30.0798,-0.029 33.78768,8.5599 54.23252,41.5804 46.96967,75.861 -4.56375,21.5408 -22.45375,40.4508 -44.51123,47.0488 -5.56983,1.6662 -21.0018,2.8016 -26.49834,1.9498 z m 215.67496,-95.8283 c -2.92878,-0.7087 -9.20265,-3.21 -13.94193,-5.5585 -30.53294,-15.1296 -42.94425,-53.3372 -27.56379,-84.8536 2.77583,-5.688 5.77228,-9.6946 11.77694,-15.7472 11.88944,-11.9843 24.46163,-17.7991 41.0222,-18.9732 30.70273,-2.1768 59.6983,19.8189 66.03227,50.0913 7.02948,33.5966 -13.46781,66.3155 -46.96075,74.9614 -7.18309,1.8543 -22.86222,1.8955 -30.36494,0.08 z M -736,837.54258 c -22.52332,-6.2969 -39.77466,-23.5966 -45.55251,-45.6804 -2.10668,-8.052 -2.09251,-23.2817 0.0293,-31.5 10.19001,-39.4682 53.45359,-59.205 90.02321,-41.0685 14.168,7.0266 24.81956,18.7433 30.79785,33.8775 2.63199,6.663 3.09763,9.2994 3.4836,19.7237 0.33332,9.0024 0.0366,13.6614 -1.17816,18.5 -5.14712,20.5015 -20.77598,37.6307 -40.7965,44.713 -9.84272,3.4819 -27.08075,4.1538 -36.80679,1.4347 z m 732,-399.1673 0,-236.0131 29.9091,0 29.9091,0 116.1345,169.75 c 63.8739,93.3625 116.6169,169.9173 117.2065,170.1219 0.5897,0.2045 1.4632,-0.2455 1.9411,-1 0.4831,-0.7625 0.8759,-76.3257 0.8844,-170.1219 l 0.0153,-168.75 34,0 34,0 0,236 0,236 -28.3776,0 c -25.0476,0 -28.5386,-0.192 -29.75,-1.6361 -0.7548,-0.8998 -53.5987,-77.0612 -117.4308,-169.2475 -64.6346,-93.3453 -116.8067,-167.7556 -117.7471,-167.9367 -1.5788,-0.3041 -1.7052,10.6983 -1.9416,168.9975 l -0.2529,169.3228 -34.25,0.2631 -34.25,0.2632 0,-236.0132 z m 498,234.4247 c -12.2902,-1.7961 -24.4857,-5.5939 -34.5,-10.7437 -6.0566,-3.1146 -10.2179,-6.3198 -17.1296,-13.1939 -8.0216,-7.978 -9.7449,-10.3494 -14.199,-19.5401 -5.3098,-10.9561 -8.3179,-21.1608 -10.1056,-34.2825 -0.7236,-5.3107 -1.0658,-69.6086 -1.0658,-200.25 l 0,-192.4276 34,0 34,0 0,186.8163 c 0,130.6628 0.3279,188.5904 1.091,192.7183 1.4626,7.9116 3.9211,12.4258 9.3883,17.2383 8.6245,7.5916 5.2305,7.3666 106.0207,7.027 l 89,-0.2999 5.1074,-2.3118 c 6.0387,-2.7333 11.5934,-8.1282 14.0938,-13.6882 1.7058,-3.7932 1.8247,-13.9014 2.2988,-195.5 l 0.5,-191.5 34.274,-0.2632 34.2741,-0.2631 -0.3094,196.7631 -0.3094,196.7632 -2.1353,9 c -9.0672,38.2172 -28.9455,58.0295 -66.8621,66.6401 -9.9071,2.2498 -10.1789,2.2559 -108.9319,2.4707 -80.1075,0.1742 -100.8129,-0.05 -108.5,-1.173 z m 423.5,0.4483 c -48.3583,-6.23 -74.7564,-34.1427 -79.4249,-83.9818 -0.7132,-7.6142 -1.0694,-73.8005 -1.0717,-199.1543 l 0,-187.75 34.4874,0 34.4874,0 0.2626,191.25 0.2626,191.25 2.0918,4.5 c 3.1178,6.7069 6.8493,10.5783 13.2041,13.6989 l 5.7041,2.8011 92,0 92,0 5.7041,-2.8011 c 6.3548,-3.1206 10.0863,-6.992 13.2041,-13.6989 l 2.0918,-4.5 0.2626,-191.2631 0.2626,-191.2631 34.2374,0.2631 34.2374,0.2631 0.2948,182.5 c 0.3155,195.2462 0.084,207.3221 -4.3045,224.6565 -7.5247,29.7211 -25.5442,49.353 -53.4903,58.2763 -17.5216,5.5947 -13.4658,5.4049 -120.5,5.6388 -54.45,0.1189 -102.15,-0.1895 -106,-0.6855 z m 421.5,0.026 c -29.536,-3.7911 -50.2207,-14.6743 -63.5032,-33.4121 -5.6184,-7.9259 -7.9963,-12.788 -11.5041,-23.5225 -6.1653,-18.8664 -6.0824,-16.2022 -5.7125,-183.526 0.3052,-138.0594 0.4899,-152.6346 2.02,-159.4229 4.7976,-21.2847 10.8491,-33.2065 23.1697,-45.6458 7.9333,-8.0099 10.3054,-9.7391 19.5301,-14.237 10.7184,-5.2263 21.0267,-8.3376 33.5,-10.111 4.3399,-0.617 54.7875,-1.0027 132.75,-1.015 l 125.75,-0.0198 0,33.4696 0,33.4696 -121.75,0.2926 c -139.2108,0.3346 -128.3846,-0.3819 -137.8924,9.1258 -9.0305,9.0306 -8.3576,-3.8287 -8.3576,159.7091 0,160.7055 -0.4965,149.6795 7.1304,158.3442 2.1508,2.4433 6.0846,5.3453 9.0819,6.6997 l 5.2877,2.3894 89.5,0.2712 c 86.9819,0.2637 89.6848,0.2152 96.0699,-1.724 10.7991,-3.2798 16.86,-10.7194 18.8813,-23.1764 0.6238,-3.8447 1.0367,-28.8448 1.0412,-63.0494 0.01,-50.1992 -0.172,-56.8582 -1.5638,-58.25 -1.3208,-1.3207 -4.671,-1.5714 -21,-1.5714 l -19.4286,0 0,-33.4809 0,-33.481 2.25,-0.5458 c 1.2375,-0.3003 25.875,-0.4213 54.75,-0.2691 l 52.5,0.2768 0.2982,97 c 0.2098,68.2499 -0.04,99.7917 -0.8436,106.4188 -5.6597,46.691 -31.1084,72.4848 -77.517,78.5684 -9.6552,1.2657 -26.762,1.4921 -104.7388,1.386 -51.2593,-0.07 -96.1238,-0.5022 -99.6988,-0.9611 z m -2158.46922,-43.9812 c -23.34654,-3.5738 -42.94338,-19.6031 -50.60046,-41.3888 -11.7838,-33.5271 5.65855,-69.9724 39.06968,-81.6351 8.78896,-3.068 26.84215,-3.817 36.08372,-1.4972 20.45278,5.134 37.61255,20.8071 44.65206,40.7834 3.40831,9.6719 4.2067,25.1331 1.82319,35.3068 -4.23734,18.0865 -17.33465,34.5831 -33.55897,42.2688 -12.56645,5.9529 -25.23027,8.0356 -37.46922,6.1621 z m 619.67418,-0.042 c -23.56786,-3.5184 -42.76096,-19.9183 -50.79004,-43.3983 -2.35486,-6.8865 -2.73235,-9.5792 -2.73235,-19.4904 0,-9.9112 0.37749,-12.6039 2.73235,-19.4904 5.5367,-16.1914 16.23958,-28.9912 30.38436,-36.3375 10.22303,-5.3094 17.89657,-7.1721 29.54584,-7.1721 12.37326,0 18.25142,1.2757 28.65488,6.219 6.90758,3.2822 9.99956,5.5602 16.50433,12.1599 12.98222,13.1716 18.49567,26.4788 18.49567,44.6409 0,18.2646 -5.58806,31.7827 -18.40642,44.5271 -14.99018,14.9037 -34.1462,21.3638 -54.38862,18.3418 z m -530.27779,-221.8943 c -24.41954,-3.8492 -45.13387,-22.7996 -51.45643,-47.0746 -2.12072,-8.1423 -2.1289,-23.3802 -0.0169,-31.42 5.86449,-22.3241 23.91934,-40.3706 46.00622,-45.985 3.27805,-0.8332 10.27101,-1.515 15.5399,-1.515 5.26889,0 12.26185,0.6818 15.5399,1.515 21.80751,5.5434 40.19381,23.7339 45.97462,45.485 1.96792,7.4046 1.91447,24.5497 -0.10087,32.3557 -3.85178,14.9188 -14.95637,29.9698 -27.92325,37.8465 -12.30333,7.4737 -29.68,10.9808 -43.56323,8.7924 z M -300,394.84628 c -21.10702,-5.178 -37.47627,-20.4897 -45.12388,-42.2088 -2.8484,-8.0894 -3.54993,-23.54 -1.50473,-33.1404 5.12142,-24.0405 25.68373,-44.0622 49.96658,-48.6531 9.95624,-1.8823 14.85852,-1.8654 24.45419,0.084 19.06199,3.8731 35.71568,16.5202 44.07031,33.4677 6.91346,14.0242 8.6228,26.8599 5.55489,41.7126 -4.93996,23.9158 -23.47851,43.2831 -46.66379,48.7496 -7.67958,1.8107 -23.34899,1.8046 -30.75357,-0.012 z m -226.5,-74.3565 c -27.30301,-7.8719 -46.46527,-33.0809 -46.46527,-61.1276 0,-23.8362 14.17614,-46.7987 35.0953,-56.8472 8.70629,-4.1821 20.48885,-7.1528 28.36997,-7.1528 7.88112,0 19.66368,2.9707 28.36997,7.1528 20.64082,9.9148 35.16915,33.192 35.11267,56.2572 -0.0721,29.4218 -19.50454,54.7106 -47.64407,62.0023 -8.25967,2.1403 -24.92904,1.9958 -32.83857,-0.2847 z"
         id="path3058"
         inkscape:connector-curvature="0" />
      <path
         style="fill:#018cf3"
         d="m -3.3819,939.80938 c -0.8006,-2.0864 -0.8115,-172.7797 -0.011,-174.8654 0.5429,-1.4148 6.1815,-1.5818 53.393,-1.5818 47.2115,0 52.8501,0.167 53.393,1.5818 0.7894,2.0572 0.7894,20.7792 0,22.8364 -0.5389,1.4043 -4.9059,1.5818 -38.9182,1.5818 -21.0712,0 -39.023,0.2731 -39.893,0.607 -1.3738,0.5272 -1.5818,3.4054 -1.5818,21.893 0,18.4876 0.208,21.3658 1.5818,21.893 0.87,0.3339 18.8218,0.607 39.893,0.607 34.0123,0 38.3793,0.1775 38.9182,1.5818 0.3339,0.87 0.607,6.0082 0.607,11.4182 0,5.41 -0.2731,10.5482 -0.607,11.4182 -0.5389,1.4043 -4.9442,1.5835 -39.25,1.5971 -21.2536,0.01 -39.2002,0.3692 -39.8812,0.8017 -0.9427,0.5988 -1.3007,10.2025 -1.5,40.2347 l -0.2618,39.4483 -12.6319,0.279 c -10.8581,0.2398 -12.7187,0.053 -13.25,-1.3318 z m 174.0864,-0.8145 c -11.4073,-3.8871 -18.4324,-12.6227 -20.7034,-25.744 -0.7474,-4.3182 -1.0077,-25.3478 -0.8034,-64.8887 l 0.3023,-58.5 2.3774,-6 c 3.5341,-8.9195 10.899,-15.767 19.8983,-18.5005 6.6371,-2.016 8.6407,-2.0906 48.3243,-1.8013 l 41.4,0.3018 6.2618,2.8919 c 10.8446,5.0083 16.472,13.2816 18.2271,26.7969 1.2312,9.4817 1.2375,108.0927 0.01,117.5624 -1.9501,15.0138 -9.1288,24.3561 -21.6984,28.2385 -6.0686,1.8744 -9.223,2.0086 -46.6533,1.9845 -39.3113,-0.025 -40.2858,-0.074 -46.9402,-2.3415 z m 83.2816,-25.3843 c 1.9173,-0.9616 4.0482,-2.8734 4.7352,-4.2484 1.5501,-3.1022 1.8531,-109.359 0.3233,-113.3826 -0.5254,-1.382 -2.192,-3.3238 -3.7035,-4.3151 -2.4699,-1.6198 -5.8922,-1.8342 -33.7947,-2.1176 -17.0755,-0.1733 -33.0321,-0.022 -35.459,0.3357 -2.9238,0.4313 -5.3699,1.6082 -7.25,3.4883 l -2.8374,2.8375 0,56.0002 0,56.0001 2.5341,3.0117 c 1.3938,1.6564 3.5313,3.2046 4.75,3.4405 1.2188,0.2359 16.8409,0.4895 34.7159,0.5636 29.1143,0.1206 32.8632,-0.048 35.9861,-1.6139 z m 99.5645,25.3325 c -8.646,-2.9454 -15.0395,-9.1495 -18.6366,-18.0847 l -2.414,-5.9962 0,-75.5 0,-75.5 12.4211,-0.2822 c 9.2652,-0.2104 12.6278,0.044 13.2347,1 0.4475,0.7052 0.8205,33.3376 0.8289,72.5164 l 0.015,71.2342 2.9167,3.2658 2.9168,3.2658 33.3332,0.3169 c 34.8772,0.3317 38.9156,-0.041 42.4205,-3.9128 1.8368,-2.0291 1.9327,-5.0005 2.4128,-74.7586 l 0.5,-72.6455 13,0 13,0 0.2723,70.5 c 0.2838,73.4666 -0.01,80.0227 -3.938,89.1635 -3.022,7.025 -10.3796,13.3068 -18.5363,15.8262 -6.0686,1.8744 -9.223,2.0086 -46.6533,1.9845 -39.5643,-0.026 -40.2452,-0.06 -47.0941,-2.3933 z m 161.9214,1.1991 c -0.2685,-0.704 -0.3721,-40.655 -0.2301,-88.78 l 0.2581,-87.5 11.3643,0 11.3643,0 42.7583,62.4575 c 23.5171,34.3517 43.2623,62.6256 43.8782,62.8309 0.8167,0.2722 1.1895,-16.6339 1.3774,-62.4576 l 0.2575,-62.8308 13,0 13,0 0,88.5 0,88.5 -11.1688,0.282 -11.1687,0.282 -43.1158,-62.282 c -23.7137,-34.2551 -43.5468,-62.4309 -44.0737,-62.6128 -0.6019,-0.2079 -1.0535,22.8281 -1.2154,62 l -0.2576,62.3308 -12.7699,0.28 c -9.6621,0.2119 -12.8886,-0.032 -13.2581,-1 z m 183,0 c -0.2685,-0.704 -0.3721,-40.655 -0.2301,-88.78 l 0.2581,-87.5 55.5,0 c 50.9122,0 55.9274,0.1491 60.6705,1.804 10.7059,3.7352 18.2161,13.6187 20.2857,26.696 1.3838,8.744 1.3707,111.392 -0.015,119.9344 -2.3308,14.3657 -9.4756,23.2972 -21.6429,27.0553 -6.0214,1.8598 -9.2706,2.0103 -43.4033,2.0103 l -36.8947,0 0,-13 0,-13 33.0321,0 c 35.4327,0 37.9735,-0.3145 41.3372,-5.1169 1.4594,-2.0835 1.6307,-8.0769 1.6307,-57.0405 0,-32.3507 -0.3905,-55.7394 -0.9554,-57.2252 -0.5254,-1.382 -2.1922,-3.3238 -3.7039,-4.3151 -2.4966,-1.637 -6.0531,-1.8296 -38.785,-2.1004 -19.82,-0.1639 -37.0504,-0.044 -38.2897,0.2675 l -2.2534,0.5655 -0.2563,75.2326 -0.2563,75.2325 -12.7699,0.28 c -9.6621,0.2119 -12.8886,-0.032 -13.2581,-1 z M 882,940.55378 c 0,-0.4446 15.6863,-40.3821 34.8585,-88.75 l 34.8586,-87.9416 11.3698,0 11.3697,0 34.7164,87 c 19.094,47.85 34.7412,87.7875 34.7717,88.75 0.05,1.5854 -1.2519,1.75 -13.8385,1.75 l -13.8937,0 -7.9121,-19.75 -7.9121,-19.75 -30.9089,-0.2648 c -16.9999,-0.1456 -31.2853,-0.6411 -31.7454,-1.1012 -0.8402,-0.8402 6.148,-19.6753 8.8615,-23.884 1.4267,-2.2129 1.7887,-2.25 21.9276,-2.25 15.7248,0 20.4726,-0.2901 20.4583,-1.25 -0.044,-2.9443 -24.9603,-65.25 -26.0938,-65.25 -0.7115,0 -9.4782,21.2985 -20.5806,50 -10.6377,27.5 -22.2917,57.5375 -25.8978,66.75 l -6.5566,16.75 -13.9263,0 c -7.6595,0 -13.9263,-0.3638 -13.9263,-0.8084 z m 235,-74.0692 c 0,-61.089 -0.2449,-75.0808 -1.3302,-75.9815 -0.8672,-0.7197 -9.6545,-1.1973 -25.25,-1.3724 l -23.9198,-0.2685 0,-12.5 0,-12.5 62.75,-0.2575 62.75,-0.2575 0,13.0075 0,13.0075 -23.3,0 c -16.7889,0 -23.6353,0.3353 -24.5,1.2 -0.9119,0.9119 -1.2,19.1556 -1.2,76 l 0,74.8 -13,0 -13,0 0,-74.8776 z m 115.2446,-13.8724 0.2554,-88.75 12.75,-0.2799 12.75,-0.2799 0,89.0299 0,89.0299 -13.0054,0 -13.0054,0 0.2554,-88.75 z m 96.1657,87.6409 c -10.2159,-2.361 -19.5787,-11.1397 -22.6467,-21.2336 -0.9603,-3.1594 -1.2636,-19.1588 -1.2636,-66.6573 0,-57.7062 0.1387,-62.8974 1.8077,-67.6818 3.7721,-10.8125 11.8779,-17.7552 23.6923,-20.2924 3.8724,-0.8316 17.4854,-1.0841 46,-0.8534 39.6986,0.3211 40.5978,0.3727 45.4449,2.6076 7.0676,3.2587 11.13,6.6384 14.1277,11.7536 5.4652,9.3257 5.5242,10.2 5.2135,77.2352 l -0.2861,61.7312 -2.8041,6 c -3.6372,7.7823 -7.4983,11.6705 -15.0588,15.1641 l -6.1371,2.8359 -42,0.168 c -23.5056,0.094 -43.8008,-0.2481 -46.0897,-0.7771 z m 80.1578,-26.3549 c 6.4788,-2.707 6.4321,-2.2582 6.4303,-61.7539 0,-60.5217 0.1729,-59.0834 -7.4767,-61.5811 -5.9874,-1.955 -69.1224,-1.2977 -72.2113,0.7518 -4.8386,3.2105 -4.8104,2.8496 -4.8104,61.4933 0,61.3857 -0.2158,59.4233 6.7552,61.4365 1.7846,0.5153 17.7718,0.9776 35.5269,1.0272 26.2338,0.073 32.9386,-0.1841 35.786,-1.3738 z m 78.4319,-61.5677 0,-89.0318 11.4261,0.2818 11.4261,0.2817 42.8239,62.439 c 23.5531,34.3414 43.3864,62.6164 44.0739,62.8333 0.991,0.3126 1.25,-12.6844 1.25,-62.718 l 0,-63.1124 13.25,0.2791 13.25,0.279 0,88.5 0,88.5 -11.0669,0.281 c -9.5819,0.2434 -11.2768,0.042 -12.6308,-1.5 -0.8601,-0.9795 -19.9035,-28.331 -42.3187,-60.781 -22.4152,-32.45 -41.429,-59.7769 -42.2529,-60.7264 -0.8239,-0.9495 -1.8879,-1.4855 -2.3643,-1.191 -0.4765,0.2945 -0.8664,28.4089 -0.8664,62.4764 l 0,61.941 -13,0 -13,0 0,-89.0317 z m -2002.5,85.4012 c -19.97171,-3.0952 -38.71285,-16.6923 -47.37221,-34.3695 -6.90896,-14.1039 -8.60986,-26.9091 -5.54515,-41.7464 4.94157,-23.9236 22.82243,-42.5054 46.87746,-48.715 7.60218,-1.9625 22.39098,-1.9766 30.0798,-0.029 33.78768,8.5599 54.23252,41.5804 46.96967,75.861 -4.56375,21.5408 -22.45375,40.4508 -44.51123,47.0488 -5.56983,1.6662 -21.0018,2.8016 -26.49834,1.9498 z m 215.67496,-95.8283 c -2.92878,-0.7087 -9.20265,-3.21 -13.94193,-5.5585 -30.53294,-15.1296 -42.94425,-53.3372 -27.56379,-84.8536 2.77583,-5.688 5.77228,-9.6946 11.77694,-15.7472 11.88944,-11.9843 24.46163,-17.7991 41.0222,-18.9732 30.70273,-2.1768 59.6983,19.8189 66.03227,50.0913 7.02948,33.5966 -13.46781,66.3155 -46.96075,74.9614 -7.18309,1.8543 -22.86222,1.8955 -30.36494,0.08 z M -736,837.54258 c -22.52332,-6.2969 -39.77466,-23.5966 -45.55251,-45.6804 -2.10668,-8.052 -2.09251,-23.2817 0.0293,-31.5 10.19001,-39.4682 53.45359,-59.205 90.02321,-41.0685 14.168,7.0266 24.81956,18.7433 30.79785,33.8775 2.63199,6.663 3.09763,9.2994 3.4836,19.7237 0.33332,9.0024 0.0366,13.6614 -1.17816,18.5 -5.14712,20.5015 -20.77598,37.6307 -40.7965,44.713 -9.84272,3.4819 -27.08075,4.1538 -36.80679,1.4347 z m 732,-399.1673 0,-236.0131 29.9091,0 29.9091,0 116.1345,169.75 c 63.8739,93.3625 116.6169,169.9173 117.2065,170.1219 0.5897,0.2045 1.4632,-0.2455 1.9411,-1 0.4831,-0.7625 0.8759,-76.3257 0.8844,-170.1219 l 0.0153,-168.75 34,0 34,0 0,236 0,236 -28.3776,0 c -25.0476,0 -28.5386,-0.192 -29.75,-1.6361 -0.7548,-0.8998 -53.5987,-77.0612 -117.4308,-169.2475 -64.6346,-93.3453 -116.8067,-167.7556 -117.7471,-167.9367 -1.5788,-0.3041 -1.7052,10.6983 -1.9416,168.9975 l -0.2529,169.3228 -34.25,0.2631 -34.25,0.2632 0,-236.0132 z m 498,234.4247 c -12.2902,-1.7961 -24.4857,-5.5939 -34.5,-10.7437 -6.0566,-3.1146 -10.2179,-6.3198 -17.1296,-13.1939 -8.0216,-7.978 -9.7449,-10.3494 -14.199,-19.5401 -5.3098,-10.9561 -8.3179,-21.1608 -10.1056,-34.2825 -0.7236,-5.3107 -1.0658,-69.6086 -1.0658,-200.25 l 0,-192.4276 34,0 34,0 0,186.8163 c 0,130.6628 0.3279,188.5904 1.091,192.7183 1.4626,7.9116 3.9211,12.4258 9.3883,17.2383 8.6245,7.5916 5.2305,7.3666 106.0207,7.027 l 89,-0.2999 5.1074,-2.3118 c 6.0387,-2.7333 11.5934,-8.1282 14.0938,-13.6882 1.7058,-3.7932 1.8247,-13.9014 2.2988,-195.5 l 0.5,-191.5 34.274,-0.2632 34.2741,-0.2631 -0.3094,196.7631 -0.3094,196.7632 -2.1353,9 c -9.0672,38.2172 -28.9455,58.0295 -66.8621,66.6401 -9.9071,2.2498 -10.1789,2.2559 -108.9319,2.4707 -80.1075,0.1742 -100.8129,-0.05 -108.5,-1.173 z m 423.5,0.4483 c -48.3583,-6.23 -74.7564,-34.1427 -79.4249,-83.9818 -0.7132,-7.6142 -1.0694,-73.8005 -1.0717,-199.1543 l 0,-187.75 34.4874,0 34.4874,0 0.2626,191.25 0.2626,191.25 2.0918,4.5 c 3.1178,6.7069 6.8493,10.5783 13.2041,13.6989 l 5.7041,2.8011 92,0 92,0 5.7041,-2.8011 c 6.3548,-3.1206 10.0863,-6.992 13.2041,-13.6989 l 2.0918,-4.5 0.2626,-191.2631 0.2626,-191.2631 34.2374,0.2631 34.2374,0.2631 0.2948,182.5 c 0.3155,195.2462 0.084,207.3221 -4.3045,224.6565 -7.5247,29.7211 -25.5442,49.353 -53.4903,58.2763 -17.5216,5.5947 -13.4658,5.4049 -120.5,5.6388 -54.45,0.1189 -102.15,-0.1895 -106,-0.6855 z m 421.5,0.026 c -29.536,-3.7911 -50.2207,-14.6743 -63.5032,-33.4121 -5.6184,-7.9259 -7.9963,-12.788 -11.5041,-23.5225 -6.1653,-18.8664 -6.0824,-16.2022 -5.7125,-183.526 0.3052,-138.0594 0.4899,-152.6346 2.02,-159.4229 4.7976,-21.2847 10.8491,-33.2065 23.1697,-45.6458 7.9333,-8.0099 10.3054,-9.7391 19.5301,-14.237 10.7184,-5.2263 21.0267,-8.3376 33.5,-10.111 4.3399,-0.617 54.7875,-1.0027 132.75,-1.015 l 125.75,-0.0198 0,33.4696 0,33.4696 -121.75,0.2926 c -139.2108,0.3346 -128.3846,-0.3819 -137.8924,9.1258 -9.0305,9.0306 -8.3576,-3.8287 -8.3576,159.7091 0,160.7055 -0.4965,149.6795 7.1304,158.3442 2.1508,2.4433 6.0846,5.3453 9.0819,6.6997 l 5.2877,2.3894 89.5,0.2712 c 86.9819,0.2637 89.6848,0.2152 96.0699,-1.724 10.7991,-3.2798 16.86,-10.7194 18.8813,-23.1764 0.6238,-3.8447 1.0367,-28.8448 1.0412,-63.0494 0.01,-50.1992 -0.172,-56.8582 -1.5638,-58.25 -1.3208,-1.3207 -4.671,-1.5714 -21,-1.5714 l -19.4286,0 0,-33.4809 0,-33.481 2.25,-0.5458 c 1.2375,-0.3003 25.875,-0.4213 54.75,-0.2691 l 52.5,0.2768 0.2982,97 c 0.2098,68.2499 -0.04,99.7917 -0.8436,106.4188 -5.6597,46.691 -31.1084,72.4848 -77.517,78.5684 -9.6552,1.2657 -26.762,1.4921 -104.7388,1.386 -51.2593,-0.07 -96.1238,-0.5022 -99.6988,-0.9611 z m -2158.46922,-43.9812 c -23.34654,-3.5738 -42.94338,-19.6031 -50.60046,-41.3888 -11.7838,-33.5271 5.65855,-69.9724 39.06968,-81.6351 8.78896,-3.068 26.84215,-3.817 36.08372,-1.4972 20.45278,5.134 37.61255,20.8071 44.65206,40.7834 3.40831,9.6719 4.2067,25.1331 1.82319,35.3068 -4.23734,18.0865 -17.33465,34.5831 -33.55897,42.2688 -12.56645,5.9529 -25.23027,8.0356 -37.46922,6.1621 z m 619.67418,-0.042 c -23.56786,-3.5184 -42.76096,-19.9183 -50.79004,-43.3983 -2.35486,-6.8865 -2.73235,-9.5792 -2.73235,-19.4904 0,-9.9112 0.37749,-12.6039 2.73235,-19.4904 5.5367,-16.1914 16.23958,-28.9912 30.38436,-36.3375 10.22303,-5.3094 17.89657,-7.1721 29.54584,-7.1721 12.37326,0 18.25142,1.2757 28.65488,6.219 6.90758,3.2822 9.99956,5.5602 16.50433,12.1599 12.98222,13.1716 18.49567,26.4788 18.49567,44.6409 0,18.2646 -5.58806,31.7827 -18.40642,44.5271 -14.99018,14.9037 -34.1462,21.3638 -54.38862,18.3418 z m -530.27779,-221.8943 c -24.41954,-3.8492 -45.13387,-22.7996 -51.45643,-47.0746 -2.12072,-8.1423 -2.1289,-23.3802 -0.0169,-31.42 5.86449,-22.3241 23.91934,-40.3706 46.00622,-45.985 3.27805,-0.8332 10.27101,-1.515 15.5399,-1.515 5.26889,0 12.26185,0.6818 15.5399,1.515 21.80751,5.5434 40.19381,23.7339 45.97462,45.485 1.96792,7.4046 1.91447,24.5497 -0.10087,32.3557 -3.85178,14.9188 -14.95637,29.9698 -27.92325,37.8465 -12.30333,7.4737 -29.68,10.9808 -43.56323,8.7924 z M -300,394.84628 c -21.10702,-5.178 -37.47627,-20.4897 -45.12388,-42.2088 -2.8484,-8.0894 -3.54993,-23.54 -1.50473,-33.1404 5.12142,-24.0405 25.68373,-44.0622 49.96658,-48.6531 9.95624,-1.8823 14.85852,-1.8654 24.45419,0.084 19.06199,3.8731 35.71568,16.5202 44.07031,33.4677 6.91346,14.0242 8.6228,26.8599 5.55489,41.7126 -4.93996,23.9158 -23.47851,43.2831 -46.66379,48.7496 -7.67958,1.8107 -23.34899,1.8046 -30.75357,-0.012 z m -226.5,-74.3565 c -27.30301,-7.8719 -46.46527,-33.0809 -46.46527,-61.1276 0,-23.8362 14.17614,-46.7987 35.0953,-56.8472 8.70629,-4.1821 20.48885,-7.1528 28.36997,-7.1528 7.88112,0 19.66368,2.9707 28.36997,7.1528 20.64082,9.9148 35.16915,33.192 35.11267,56.2572 -0.0721,29.4218 -19.50454,54.7106 -47.64407,62.0023 -8.25967,2.1403 -24.92904,1.9958 -32.83857,-0.2847 z"
         id="path3056"
         inkscape:connector-curvature="0" />
      <path
         style="fill:#5a5a5a"
         d="m -3.3819,939.80938 c -0.8006,-2.0864 -0.8115,-172.7797 -0.011,-174.8654 0.5429,-1.4148 6.1815,-1.5818 53.393,-1.5818 47.2115,0 52.8501,0.167 53.393,1.5818 0.7894,2.0572 0.7894,20.7792 0,22.8364 -0.5389,1.4043 -4.9059,1.5818 -38.9182,1.5818 -21.0712,0 -39.023,0.2731 -39.893,0.607 -1.3738,0.5272 -1.5818,3.4054 -1.5818,21.893 0,18.4876 0.208,21.3658 1.5818,21.893 0.87,0.3339 18.8218,0.607 39.893,0.607 34.0123,0 38.3793,0.1775 38.9182,1.5818 0.3339,0.87 0.607,6.0082 0.607,11.4182 0,5.41 -0.2731,10.5482 -0.607,11.4182 -0.5389,1.4043 -4.9442,1.5835 -39.25,1.5971 -21.2536,0.01 -39.2002,0.3692 -39.8812,0.8017 -0.9427,0.5988 -1.3007,10.2025 -1.5,40.2347 l -0.2618,39.4483 -12.6319,0.279 c -10.8581,0.2398 -12.7187,0.053 -13.25,-1.3318 z m 174.0864,-0.8145 c -11.4073,-3.8871 -18.4324,-12.6227 -20.7034,-25.744 -0.7474,-4.3182 -1.0077,-25.3478 -0.8034,-64.8887 l 0.3023,-58.5 2.3774,-6 c 3.5341,-8.9195 10.899,-15.767 19.8983,-18.5005 6.6371,-2.016 8.6407,-2.0906 48.3243,-1.8013 l 41.4,0.3018 6.2618,2.8919 c 10.8446,5.0083 16.472,13.2816 18.2271,26.7969 1.2312,9.4817 1.2375,108.0927 0.01,117.5624 -1.9501,15.0138 -9.1288,24.3561 -21.6984,28.2385 -6.0686,1.8744 -9.223,2.0086 -46.6533,1.9845 -39.3113,-0.025 -40.2858,-0.074 -46.9402,-2.3415 z m 83.2816,-25.3843 c 1.9173,-0.9616 4.0482,-2.8734 4.7352,-4.2484 1.5501,-3.1022 1.8531,-109.359 0.3233,-113.3826 -0.5254,-1.382 -2.192,-3.3238 -3.7035,-4.3151 -2.4699,-1.6198 -5.8922,-1.8342 -33.7947,-2.1176 -17.0755,-0.1733 -33.0321,-0.022 -35.459,0.3357 -2.9238,0.4313 -5.3699,1.6082 -7.25,3.4883 l -2.8374,2.8375 0,56.0002 0,56.0001 2.5341,3.0117 c 1.3938,1.6564 3.5313,3.2046 4.75,3.4405 1.2188,0.2359 16.8409,0.4895 34.7159,0.5636 29.1143,0.1206 32.8632,-0.048 35.9861,-1.6139 z m 99.5645,25.3325 c -8.646,-2.9454 -15.0395,-9.1495 -18.6366,-18.0847 l -2.414,-5.9962 0,-75.5 0,-75.5 12.4211,-0.2822 c 9.2652,-0.2104 12.6278,0.044 13.2347,1 0.4475,0.7052 0.8205,33.3376 0.8289,72.5164 l 0.015,71.2342 2.9167,3.2658 2.9168,3.2658 33.3332,0.3169 c 34.8772,0.3317 38.9156,-0.041 42.4205,-3.9128 1.8368,-2.0291 1.9327,-5.0005 2.4128,-74.7586 l 0.5,-72.6455 13,0 13,0 0.2723,70.5 c 0.2838,73.4666 -0.01,80.0227 -3.938,89.1635 -3.022,7.025 -10.3796,13.3068 -18.5363,15.8262 -6.0686,1.8744 -9.223,2.0086 -46.6533,1.9845 -39.5643,-0.026 -40.2452,-0.06 -47.0941,-2.3933 z m 161.9214,1.1991 c -0.2685,-0.704 -0.3721,-40.655 -0.2301,-88.78 l 0.2581,-87.5 11.3643,0 11.3643,0 42.7583,62.4575 c 23.5171,34.3517 43.2623,62.6256 43.8782,62.8309 0.8167,0.2722 1.1895,-16.6339 1.3774,-62.4576 l 0.2575,-62.8308 13,0 13,0 0,88.5 0,88.5 -11.1688,0.282 -11.1687,0.282 -43.1158,-62.282 c -23.7137,-34.2551 -43.5468,-62.4309 -44.0737,-62.6128 -0.6019,-0.2079 -1.0535,22.8281 -1.2154,62 l -0.2576,62.3308 -12.7699,0.28 c -9.6621,0.2119 -12.8886,-0.032 -13.2581,-1 z m 183,0 c -0.2685,-0.704 -0.3721,-40.655 -0.2301,-88.78 l 0.2581,-87.5 55.5,0 c 50.9122,0 55.9274,0.1491 60.6705,1.804 10.7059,3.7352 18.2161,13.6187 20.2857,26.696 1.3838,8.744 1.3707,111.392 -0.015,119.9344 -2.3308,14.3657 -9.4756,23.2972 -21.6429,27.0553 -6.0214,1.8598 -9.2706,2.0103 -43.4033,2.0103 l -36.8947,0 0,-13 0,-13 33.0321,0 c 35.4327,0 37.9735,-0.3145 41.3372,-5.1169 1.4594,-2.0835 1.6307,-8.0769 1.6307,-57.0405 0,-32.3507 -0.3905,-55.7394 -0.9554,-57.2252 -0.5254,-1.382 -2.1922,-3.3238 -3.7039,-4.3151 -2.4966,-1.637 -6.0531,-1.8296 -38.785,-2.1004 -19.82,-0.1639 -37.0504,-0.044 -38.2897,0.2675 l -2.2534,0.5655 -0.2563,75.2326 -0.2563,75.2325 -12.7699,0.28 c -9.6621,0.2119 -12.8886,-0.032 -13.2581,-1 z M 882,940.55378 c 0,-0.4446 15.6863,-40.3821 34.8585,-88.75 l 34.8586,-87.9416 11.3698,0 11.3697,0 34.7164,87 c 19.094,47.85 34.7412,87.7875 34.7717,88.75 0.05,1.5854 -1.2519,1.75 -13.8385,1.75 l -13.8937,0 -7.9121,-19.75 -7.9121,-19.75 -30.9089,-0.2648 c -16.9999,-0.1456 -31.2853,-0.6411 -31.7454,-1.1012 -0.8402,-0.8402 6.148,-19.6753 8.8615,-23.884 1.4267,-2.2129 1.7887,-2.25 21.9276,-2.25 15.7248,0 20.4726,-0.2901 20.4583,-1.25 -0.044,-2.9443 -24.9603,-65.25 -26.0938,-65.25 -0.7115,0 -9.4782,21.2985 -20.5806,50 -10.6377,27.5 -22.2917,57.5375 -25.8978,66.75 l -6.5566,16.75 -13.9263,0 c -7.6595,0 -13.9263,-0.3638 -13.9263,-0.8084 z m 235,-74.0692 c 0,-61.089 -0.2449,-75.0808 -1.3302,-75.9815 -0.8672,-0.7197 -9.6545,-1.1973 -25.25,-1.3724 l -23.9198,-0.2685 0,-12.5 0,-12.5 62.75,-0.2575 62.75,-0.2575 0,13.0075 0,13.0075 -23.3,0 c -16.7889,0 -23.6353,0.3353 -24.5,1.2 -0.9119,0.9119 -1.2,19.1556 -1.2,76 l 0,74.8 -13,0 -13,0 0,-74.8776 z m 115.2446,-13.8724 0.2554,-88.75 12.75,-0.2799 12.75,-0.2799 0,89.0299 0,89.0299 -13.0054,0 -13.0054,0 0.2554,-88.75 z m 96.1657,87.6409 c -10.2159,-2.361 -19.5787,-11.1397 -22.6467,-21.2336 -0.9603,-3.1594 -1.2636,-19.1588 -1.2636,-66.6573 0,-57.7062 0.1387,-62.8974 1.8077,-67.6818 3.7721,-10.8125 11.8779,-17.7552 23.6923,-20.2924 3.8724,-0.8316 17.4854,-1.0841 46,-0.8534 39.6986,0.3211 40.5978,0.3727 45.4449,2.6076 7.0676,3.2587 11.13,6.6384 14.1277,11.7536 5.4652,9.3257 5.5242,10.2 5.2135,77.2352 l -0.2861,61.7312 -2.8041,6 c -3.6372,7.7823 -7.4983,11.6705 -15.0588,15.1641 l -6.1371,2.8359 -42,0.168 c -23.5056,0.094 -43.8008,-0.2481 -46.0897,-0.7771 z m 80.1578,-26.3549 c 6.4788,-2.707 6.4321,-2.2582 6.4303,-61.7539 0,-60.5217 0.1729,-59.0834 -7.4767,-61.5811 -5.9874,-1.955 -69.1224,-1.2977 -72.2113,0.7518 -4.8386,3.2105 -4.8104,2.8496 -4.8104,61.4933 0,61.3857 -0.2158,59.4233 6.7552,61.4365 1.7846,0.5153 17.7718,0.9776 35.5269,1.0272 26.2338,0.073 32.9386,-0.1841 35.786,-1.3738 z m 78.4319,-61.5677 0,-89.0318 11.4261,0.2818 11.4261,0.2817 42.8239,62.439 c 23.5531,34.3414 43.3864,62.6164 44.0739,62.8333 0.991,0.3126 1.25,-12.6844 1.25,-62.718 l 0,-63.1124 13.25,0.2791 13.25,0.279 0,88.5 0,88.5 -11.0669,0.281 c -9.5819,0.2434 -11.2768,0.042 -12.6308,-1.5 -0.8601,-0.9795 -19.9035,-28.331 -42.3187,-60.781 -22.4152,-32.45 -41.429,-59.7769 -42.2529,-60.7264 -0.8239,-0.9495 -1.8879,-1.4855 -2.3643,-1.191 -0.4765,0.2945 -0.8664,28.4089 -0.8664,62.4764 l 0,61.941 -13,0 -13,0 0,-89.0317 z"
         id="path3054"
         inkscape:connector-curvature="0" />
      <path
         style="fill:#030303"
         d="m -2,852.36218 0,-88 52,0 52,0 0,12 0,12 -38.8,0 c -28.8444,0 -39.1079,0.3079 -40,1.2 -0.8596,0.8596 -1.2,7.354 -1.2,22.893 0,18.8587 0.2067,21.7723 1.5818,22.3 0.87,0.3339 18.87,0.607 40,0.607 l 38.4182,0 0,12 0,12 -38.8,0 c -28.8444,0 -39.1079,0.3079 -40,1.2 -0.8926,0.8926 -1.2,11.2667 -1.2,40.5 l 0,39.3 -12,0 -12,0 0,-88 z m 176,86.6739 c -11.1566,-3.0804 -18.4941,-9.9957 -21.7414,-20.4903 -1.5961,-5.1585 -1.7586,-11.2728 -1.7586,-66.1836 0,-54.4504 0.1724,-61.0563 1.7238,-66.0638 3.3755,-10.8949 10.5495,-17.5 22.3556,-20.5831 4.5441,-1.1866 13.0376,-1.4001 45.7503,-1.1501 39.0723,0.2986 40.3239,0.369 45.7911,2.5755 7.0581,2.8486 12.4086,7.9909 15.7685,15.1549 l 2.6107,5.5666 0.3043,62 c 0.3391,69.1054 0.2998,69.5958 -6.3,78.6599 -2.4958,3.4278 -5.1863,5.5432 -10.1749,8 l -6.7818,3.3401 -41.5238,0.2082 c -30.5656,0.1532 -42.7114,-0.1197 -46.0238,-1.0343 z m 80.4657,-24.0951 c 6.6776,-2.7901 6.5343,-1.4197 6.5343,-62.4821 0,-39.4354 -0.3266,-55.7195 -1.1541,-57.5356 -2.7157,-5.9604 -3.1813,-6.0335 -40.5121,-6.3596 -38.1283,-0.333 -39.6969,-0.1153 -43.0174,5.9697 -1.6929,3.1025 -1.8164,7.0716 -1.8164,58.373 0,51.6061 0.114,55.2183 1.8255,57.8301 3.4759,5.3043 5.2543,5.544 41.4566,5.5866 26.5705,0.031 33.9681,-0.2475 36.6836,-1.3821 z m 102.4636,24.0538 c -10.9878,-2.9626 -18.4381,-10.0227 -21.7055,-20.5688 -1.5661,-5.0547 -1.7238,-12.3344 -1.7238,-79.5638 l 0,-74 11.7122,-0.2814 11.7122,-0.2814 0.2878,71.2814 c 0.3185,78.8769 0.042,75.6583 6.7889,79.0298 3.1206,1.5594 7.0977,1.7487 36.781,1.75 35.8022,0 38.6459,-0.3531 41.3874,-5.1637 1.0601,-1.8602 1.4321,-16.9694 1.8305,-74.3347 l 0.5,-72 12,0 12,0 0,73.5 c 0,68.4234 -0.1266,73.9146 -1.8333,79.5023 -1.0084,3.3013 -3.0512,7.8013 -4.5396,10 -3.2628,4.8198 -11.5237,9.9881 -18.281,11.4373 -7.2493,1.5547 -80.9779,1.2943 -86.9168,-0.307 z m 159.5434,0.1493 c -0.2689,-0.705 -0.3728,-40.2069 -0.2308,-87.7819 l 0.2581,-86.5 10.0652,-0.2829 c 8.6332,-0.2427 10.2858,-0.029 11.6156,1.5 0.8528,0.9806 20.5538,29.5704 43.78,63.5329 23.2262,33.9625 42.8583,61.75 43.6269,61.75 1.1791,0 1.4376,-9.8806 1.6548,-63.25 l 0.2575,-63.25 11.75,-0.2817 11.75,-0.2818 0,88.0318 0,88.0317 -9.9685,0 -9.9684,0 -3.8379,-5.25 c -2.1108,-2.8875 -21.5617,-30.9 -43.2242,-62.25 -21.6626,-31.35 -39.8585,-57.3188 -40.4354,-57.7084 -0.5769,-0.3896 -1.3867,-0.3705 -1.7995,0.042 -0.4129,0.4129 -0.8667,28.6317 -1.0084,62.7084 l -0.2577,61.9577 -11.7691,0.2819 c -8.8596,0.2122 -11.8901,-0.035 -12.2582,-1 z m 183,0 c -0.2689,-0.705 -0.3728,-40.2069 -0.2308,-87.7819 l 0.2581,-86.5 51,-0.3116 c 34.4212,-0.2102 53.1331,0.052 57.562,0.8073 12.8234,2.1863 20.7753,9.1552 24.6045,21.5631 1.6916,5.4815 1.8335,10.584 1.8335,65.9412 0,54.4337 -0.1632,60.5273 -1.7586,65.6836 -2.6006,8.4046 -7.105,13.6906 -15.182,17.8164 l -6.852,3.5 -38.3537,0.3046 -38.3537,0.3046 0,-12.0546 0,-12.0546 33.0321,0 c 36.3989,0 38.5208,-0.3009 41.4015,-5.8716 1.3662,-2.6419 1.5664,-10.0598 1.5664,-58.0317 0,-39.4354 -0.3266,-55.7195 -1.1541,-57.5356 -2.7392,-6.0118 -2.8857,-6.0333 -43.3407,-6.3581 -20.3471,-0.1633 -38.0067,-0.043 -39.2436,0.2675 l -2.249,0.5644 -0.2563,75.2326 -0.2563,75.2325 -11.7691,0.2819 c -8.8596,0.2122 -11.8901,-0.035 -12.2582,-1 z m 184.6109,-1.5032 c 0.5498,-1.5283 16.1739,-41.0287 34.7202,-87.7787 l 33.7205,-85 10.4878,0 10.4879,0 34.6516,86.5 c 19.0583,47.575 34.6958,87.0756 34.75,87.779 0.076,0.9917 -2.8447,1.2164 -13.0003,1 l -13.0987,-0.279 -7.3424,-18.3265 c -4.0383,-10.0796 -7.874,-18.9671 -8.5237,-19.75 -0.9742,-1.1738 -6.48,-1.4235 -31.3923,-1.4235 -16.616,0 -30.4591,-0.2482 -30.7625,-0.5516 -0.3034,-0.3034 1.4892,-5.6686 3.9836,-11.9227 3.4135,-8.5586 5.0545,-11.5104 6.6349,-11.9347 1.1549,-0.31 10.7623,-0.5698 21.3498,-0.5773 18.2672,-0.013 19.25,-0.1111 19.25,-1.9211 0,-2.2956 -24.5544,-66.047 -25.9924,-67.485 -0.6768,-0.6768 -1.3901,-0.6251 -2.1726,0.1574 -0.6408,0.6408 -12.7094,30.9933 -26.8192,67.45 l -25.6543,66.285 -13.1387,0.2787 -13.1388,0.2788 0.9996,-2.7788 z M 1118,865.48458 c 0,-61.089 -0.2449,-75.0808 -1.3302,-75.9815 -0.8672,-0.7197 -9.6545,-1.1973 -25.25,-1.3724 l -23.9198,-0.2685 0,-11.5 0,-11.5 61.75,-0.2576 61.75,-0.2577 0,12.0077 0,12.0076 -23.3,0 c -16.7889,0 -23.6353,0.3353 -24.5,1.2 -0.9119,0.9119 -1.2,19.1556 -1.2,76 l 0,74.8 -12,0 -12,0 0,-74.8776 z m 115,-13.1224 0,-88 12,0 12,0 0,88 0,88 -12,0 -12,0 0,-88 z m 95.0814,86.4375 c -6.8945,-1.8867 -11.1485,-4.5297 -15.5305,-9.6491 -7.1828,-8.3915 -7.0509,-6.9545 -7.0509,-76.7884 0,-71.9793 -0.3292,-69.1147 9.032,-78.5972 8.7515,-8.8649 8.9982,-8.9028 57.968,-8.9028 48.9646,0 49.1606,0.03 58.0652,8.9348 9.2554,9.2553 8.9348,6.4365 8.9348,78.5652 0,58.783 -0.1128,62.8241 -1.8967,67.9497 -2.573,7.3928 -9.1846,14.3275 -16.4604,17.2648 -5.5189,2.228 -6.5436,2.2828 -46.6429,2.4919 -33.6273,0.1754 -41.9744,-0.053 -46.4186,-1.2689 z m 84.1505,-26.2062 3.2681,-3.2687 0.2619,-55.2313 c 0.2421,-51.0636 0.1289,-55.4954 -1.5,-58.7313 -3.4121,-6.7781 -4.7179,-6.9969 -41.7619,-6.9969 -37.0518,0 -38.3629,0.2197 -41.7484,6.9969 -1.5992,3.2012 -1.7485,8.0669 -1.7485,57 0,59.8493 -0.133,58.6659 6.9969,62.2684 3.18,1.6068 6.6751,1.744 38.2319,1.5 l 34.7319,-0.2684 3.2681,-3.2687 z m 75.7681,-60.2651 0,-88.0339 10.6093,0.2839 10.6094,0.2838 43.1534,63 c 24.4873,35.7492 43.7967,63 44.6407,63 1.2979,0 1.52,-8.051 1.7447,-63.25 l 0.2574,-63.25 12.4926,0 12.4925,0 0,88.0328 0,88.0327 -10.9946,-0.2827 -10.9945,-0.2828 -43.2555,-62.5 c -24.6827,-35.6643 -43.8995,-62.5 -44.7554,-62.5 -1.3147,0 -1.5318,7.7533 -1.7575,62.75 l -0.2575,62.75 -11.9925,0 -11.9925,0 0,-88.0338 z"
         id="path3052"
         inkscape:connector-curvature="0" />
    </g>
  </g>
</svg>
